<?xml version="1.0" encoding="utf-8"?>
<!-- Generator: Adobe Illustrator 17.1.0, SVG Export Plug-In . SVG Version: 6.00 Build 0)  -->
<!DOCTYPE svg PUBLIC "-//W3C//DTD SVG 1.1//EN" "http://www.w3.org/Graphics/SVG/1.1/DTD/svg11.dtd" [
	<!ENTITY ns_extend "http://ns.adobe.com/Extensibility/1.0/">
	<!ENTITY ns_ai "http://ns.adobe.com/AdobeIllustrator/10.0/">
	<!ENTITY ns_graphs "http://ns.adobe.com/Graphs/1.0/">
	<!ENTITY ns_vars "http://ns.adobe.com/Variables/1.0/">
	<!ENTITY ns_imrep "http://ns.adobe.com/ImageReplacement/1.0/">
	<!ENTITY ns_sfw "http://ns.adobe.com/SaveForWeb/1.0/">
	<!ENTITY ns_custom "http://ns.adobe.com/GenericCustomNamespace/1.0/">
	<!ENTITY ns_adobe_xpath "http://ns.adobe.com/XPath/1.0/">
]>
<svg version="1.1" id="Ebene_1" xmlns:x="&ns_extend;" xmlns:i="&ns_ai;" xmlns:graph="&ns_graphs;"
	 xmlns="http://www.w3.org/2000/svg" xmlns:xlink="http://www.w3.org/1999/xlink" x="0px" y="0px" width="140px" height="40px"
	 viewBox="0 0 140 40" enable-background="new 0 0 140 40" xml:space="preserve">
<metadata>
	<sfw  xmlns="&ns_sfw;">
		<slices></slices>
		<sliceSourceBounds  bottomLeftOrigin="true" width="114.1" height="36.3" x="12.9" y="1.6"></sliceSourceBounds>
	</sfw>
</metadata>
<g>
	<g>
		<path fill="#FFFFFF" d="M124.4,21.9h-0.5v-0.2h1.2v0.2h-0.5v1.5h-0.2V21.9z"/>
		<path fill="#FFFFFF" d="M126.7,22.7c0-0.2,0-0.5,0-0.7l0,0c-0.1,0.2-0.1,0.4-0.2,0.6l-0.3,0.8H126l-0.2-0.8
			c-0.1-0.2-0.1-0.4-0.2-0.6l0,0c0,0.2,0,0.5-0.1,0.7l-0.1,0.7h-0.2l0.1-1.6h0.2l0.3,0.8c0.1,0.2,0.1,0.4,0.2,0.5l0,0
			c0.1-0.2,0.1-0.4,0.2-0.5l0.3-0.8h0.2l0.1,1.6h-0.2L126.7,22.7z"/>
	</g>
	<line fill="#FFFFFF" x1="57.3" y1="20" x2="57.3" y2="20"/>
	<polygon fill="#FFFFFF" points="55.8,18.7 55.8,16.5 57.5,18.1 57.5,20.2 	"/>
	<path fill="#FFFFFF" d="M53.6,23.1c-0.5-0.5-1.1-1-1.7-1.3c-0.7-0.3-1.4-0.5-2.2-0.5c-1.2,0-2.2,0.3-3.1,1c-0.5,0.4-1,0.9-1.3,1.4
		v-9.5h-1v19h1v-2.2c0.4,0.5,0.8,1,1.3,1.4c0.9,0.6,2,1,3.1,1c0.8,0,1.5-0.1,2.2-0.4c0.7-0.3,1.2-0.7,1.7-1.3
		c0.5-0.5,0.9-1.2,1.2-1.9c0.2-0.7,0.4-1.5,0.4-2.4c0-0.9-0.1-1.6-0.4-2.4C54.5,24.3,54.1,23.7,53.6,23.1z M54.1,27.4
		c0,0.7-0.1,1.4-0.3,2c-0.2,0.6-0.5,1.1-0.9,1.5c-0.4,0.4-0.9,0.7-1.4,1c-0.5,0.2-1.2,0.4-1.8,0.4c-0.7,0-1.3-0.1-1.8-0.4
		c-0.5-0.2-1-0.5-1.4-1c-0.4-0.4-0.7-1-0.9-1.5c-0.2-0.6-0.3-1.3-0.3-2c0-0.7,0.1-1.4,0.3-2c0.2-0.6,0.5-1.2,0.9-1.6
		c0.4-0.4,0.9-0.8,1.4-1c0.5-0.2,1.2-0.4,1.8-0.4c0.7,0,1.3,0.1,1.8,0.4c0.5,0.2,1,0.6,1.4,1c0.4,0.4,0.7,1,0.9,1.6
		C54,26,54.1,26.7,54.1,27.4z"/>
	<rect x="56.6" y="21.5" fill="#FFFFFF" width="1" height="11.9"/>
	<path fill="#FFFFFF" d="M64.1,32c-0.3,0.2-0.7,0.4-1,0.4c-0.4,0-0.7-0.1-1-0.4c-0.2-0.3-0.4-0.7-0.4-1.2v-8.2h3.1v-1h-3.1v-3.9h-1
		v3.9h-1.6v1h1.6v8.2c0,0.7,0.2,1.4,0.7,1.9c0.5,0.5,1,0.7,1.8,0.7c0.3,0,0.7-0.1,0.9-0.2c0.3-0.1,0.5-0.2,0.8-0.4l0.2-0.2l-0.6-0.9
		L64.1,32z"/>
	<path fill="#FFFFFF" d="M72.7,27.9c-0.3-0.2-0.7-0.4-1.1-0.5c-0.4-0.1-0.8-0.2-1.2-0.4l-0.7-0.2c-0.3-0.1-0.6-0.2-0.9-0.2
		c-0.2-0.1-0.5-0.2-0.7-0.4c-0.2-0.1-0.4-0.4-0.5-0.6c-0.1-0.2-0.2-0.6-0.2-1c0-0.4,0.1-0.6,0.2-0.9c0.2-0.2,0.4-0.5,0.6-0.6
		c0.2-0.2,0.5-0.3,0.9-0.4s0.7-0.1,1-0.1c0.5,0,1.1,0.1,1.5,0.2c0.4,0.1,0.9,0.4,1.3,0.7l0.2,0.2l0.6-0.9l-0.2-0.2
		c-0.5-0.4-1-0.7-1.6-0.9c-0.5-0.2-1.2-0.2-1.8-0.2c-0.4,0-0.9,0.1-1.3,0.2c-0.4,0.1-0.9,0.3-1.2,0.5s-0.7,0.6-0.9,1
		c-0.2,0.4-0.4,0.9-0.4,1.4c0,0.6,0.1,1.1,0.4,1.5c0.2,0.4,0.5,0.7,0.8,0.9s0.7,0.4,1,0.5c0.4,0.1,0.7,0.2,1,0.3l0.7,0.2
		c0.4,0.1,0.7,0.2,1,0.3c0.3,0.1,0.6,0.2,0.8,0.4c0.2,0.2,0.4,0.4,0.5,0.6s0.2,0.6,0.2,1c0,0.4-0.1,0.7-0.2,0.9s-0.4,0.5-0.7,0.6
		c-0.2,0.2-0.6,0.3-0.9,0.4s-0.7,0.1-1,0.1c-0.7,0-1.3-0.1-1.9-0.4s-1.1-0.6-1.6-1l-0.2-0.2l-0.7,0.8l0.2,0.2c0.5,0.5,1.2,1,1.9,1.3
		c0.7,0.3,1.5,0.4,2.3,0.4c0.4,0,0.9-0.1,1.3-0.1c0.5-0.1,0.9-0.2,1.3-0.5c0.4-0.2,0.7-0.5,0.9-0.9c0.2-0.4,0.4-0.9,0.4-1.5
		c0-0.6-0.1-1.1-0.3-1.5C73.4,28.5,73.1,28.2,72.7,27.9z"/>
	<path fill="#FFFFFF" d="M83.1,22.8c-0.4-0.4-0.9-0.7-1.4-0.9c-0.5-0.2-1.1-0.4-1.7-0.4c-0.9,0-1.6,0.2-2.3,0.7
		c-0.4,0.2-0.7,0.5-1,0.9v-8.7h-1v19h1V26c0-0.5,0.1-0.9,0.2-1.3c0.2-0.4,0.4-0.8,0.7-1.1s0.7-0.5,1-0.7c0.4-0.2,0.9-0.2,1.3-0.2
		c0.5,0,0.9,0.1,1.3,0.2c0.4,0.2,0.7,0.4,1,0.7s0.5,0.7,0.7,1.1c0.2,0.4,0.2,0.9,0.2,1.3v7.5h1V26c0-0.6-0.1-1.2-0.3-1.7
		C83.8,23.7,83.5,23.2,83.1,22.8z"/>
	<path fill="#FFFFFF" d="M94.2,23c-0.3-0.5-0.8-0.9-1.3-1.2s-1.3-0.4-2.2-0.4c-0.4,0-0.9,0.1-1.5,0.1c-0.6,0.1-1.3,0.3-2.1,0.6
		l-0.3,0.1l0.4,1l0.3-0.1c0.6-0.3,1.2-0.5,1.8-0.5c0.5-0.1,1-0.1,1.3-0.1c0.7,0,1.2,0.1,1.6,0.3c0.4,0.2,0.7,0.4,1,0.8
		c0.2,0.4,0.4,0.8,0.5,1.3c0.1,0.4,0.1,0.9,0.2,1.3c-1.3-0.2-2.4-0.4-3.4-0.4c-1.5,0-2.7,0.3-3.6,1c-0.5,0.4-0.9,1-1.1,1.5
		c-0.2,0.5-0.2,1-0.2,1.5c0,0.3,0.1,0.7,0.2,1.1c0.1,0.4,0.3,0.9,0.6,1.2c0.3,0.4,0.7,0.7,1.2,1c0.5,0.2,1.1,0.4,1.9,0.4
		c0.4,0,0.8-0.1,1.2-0.1c0.4-0.1,0.9-0.2,1.3-0.4c0.4-0.2,0.9-0.4,1.3-0.7c0.2-0.2,0.5-0.4,0.7-0.7v1.8h1v-6.4
		c0-0.8-0.1-1.5-0.2-2.1C94.7,24.1,94.5,23.5,94.2,23z M93.9,27.2v1c0,0.4-0.1,0.7-0.1,1.2c-0.1,0.4-0.2,0.7-0.4,1
		c-0.2,0.4-0.5,0.7-0.9,0.9c-0.3,0.2-0.7,0.5-1,0.6c-0.4,0.2-0.7,0.2-1.1,0.4c-0.4,0.1-0.7,0.1-1,0.1c-0.5,0-1-0.1-1.3-0.3
		c-0.4-0.2-0.6-0.4-0.9-0.7c-0.2-0.2-0.4-0.5-0.4-0.9c-0.1-0.3-0.1-0.5-0.1-0.8c0-0.4,0.1-0.7,0.2-1.2c0.1-0.4,0.4-0.7,0.7-1
		c0.7-0.5,1.6-0.8,2.9-0.8C91.5,26.8,92.7,26.9,93.9,27.2z"/>
	<path fill="#FFFFFF" d="M102.7,22.2c-0.3-0.2-0.6-0.4-1-0.5c-0.4-0.1-0.7-0.2-1.1-0.2c-0.7,0-1.4,0.2-2,0.6
		c-0.3,0.2-0.5,0.4-0.8,0.7v-1.2h-1v11.7h1v-7.6c0-0.4,0.1-0.9,0.2-1.2c0.1-0.4,0.4-0.7,0.6-1c0.2-0.3,0.5-0.5,0.9-0.7
		c0.6-0.2,1.3-0.3,1.9-0.1c0.2,0.1,0.5,0.2,0.7,0.4l0.3,0.2l0.4-1L102.7,22.2z"/>
	<path fill="#FFFFFF" d="M103.8,27.1h9.5v-0.3c-0.1-0.8-0.2-1.5-0.5-2.2c-0.2-0.7-0.6-1.2-1-1.6c-0.4-0.5-1-0.8-1.5-1.1
		c-0.6-0.2-1.3-0.4-2-0.4c-0.8,0-1.5,0.1-2.2,0.4s-1.2,0.7-1.7,1.3c-0.5,0.5-0.9,1.2-1.1,1.9c-0.2,0.7-0.4,1.5-0.4,2.4
		c0,0.9,0.1,1.6,0.4,2.4c0.2,0.7,0.6,1.3,1.1,1.9c0.5,0.5,1,1,1.7,1.2c0.7,0.3,1.4,0.4,2.2,0.4c0.9,0,1.7-0.1,2.4-0.4
		c0.7-0.2,1.4-0.7,2-1.2l0.2-0.2l-0.7-0.8L112,31c-0.4,0.4-1,0.7-1.6,1c-0.6,0.2-1.3,0.4-2.1,0.4c-0.7,0-1.2-0.1-1.8-0.4
		c-0.5-0.2-1-0.5-1.4-1c-0.4-0.4-0.7-1-0.9-1.5c-0.2-0.6-0.3-1.3-0.3-2L103.8,27.1L103.8,27.1z M104,26c0.1-0.4,0.2-0.9,0.4-1.2
		c0.2-0.5,0.5-0.9,0.9-1.2c0.4-0.4,0.8-0.6,1.3-0.8c0.5-0.2,1-0.3,1.6-0.3c0.6,0,1.2,0.1,1.6,0.3c0.5,0.2,0.9,0.5,1.2,0.9
		c0.3,0.4,0.5,0.8,0.7,1.2c0.1,0.4,0.2,0.7,0.3,1.2C112.1,26,104,26,104,26z"/>
	<path fill="#FFFFFF" d="M122.1,28.9c-0.2-0.4-0.5-0.7-0.8-1c-0.3-0.2-0.7-0.4-1.1-0.5c-0.4-0.1-0.8-0.2-1.2-0.4l-0.7-0.2
		c-0.3-0.1-0.5-0.2-0.9-0.2c-0.2-0.1-0.5-0.2-0.7-0.4c-0.2-0.1-0.4-0.4-0.5-0.6c-0.1-0.2-0.2-0.6-0.2-1c0-0.4,0.1-0.6,0.2-0.9
		c0.1-0.2,0.4-0.5,0.6-0.6c0.2-0.2,0.5-0.3,0.9-0.4s0.7-0.1,1-0.1c0.5,0,1.1,0.1,1.5,0.2c0.4,0.1,0.9,0.4,1.3,0.7l0.2,0.2l0.6-0.9
		l-0.2-0.2c-0.5-0.4-1-0.7-1.6-0.9c-0.5-0.2-1.2-0.2-1.8-0.2c-0.4,0-0.9,0.1-1.3,0.2c-0.4,0.1-0.9,0.3-1.2,0.5s-0.7,0.6-0.9,1
		c-0.2,0.4-0.4,0.9-0.4,1.4c0,0.6,0.1,1.1,0.4,1.5c0.2,0.4,0.5,0.7,0.8,0.9s0.7,0.4,1,0.5c0.4,0.1,0.7,0.2,1,0.3l0.7,0.2
		c0.4,0.1,0.7,0.2,1,0.3c0.3,0.1,0.5,0.2,0.8,0.4c0.2,0.2,0.4,0.4,0.5,0.6c0.1,0.2,0.2,0.6,0.2,1c0,0.4-0.1,0.7-0.2,0.9
		c-0.2,0.2-0.4,0.5-0.7,0.6c-0.2,0.2-0.6,0.3-0.9,0.4c-1,0.2-2,0.1-2.9-0.2c-0.6-0.2-1.1-0.6-1.6-1l-0.2-0.2l-0.7,0.8l0.2,0.2
		c0.5,0.5,1.2,1,1.9,1.3c0.7,0.3,1.5,0.4,2.3,0.4c0.4,0,0.9-0.1,1.3-0.1c0.5-0.1,0.9-0.2,1.3-0.5c0.4-0.2,0.7-0.5,0.9-0.9
		c0.2-0.4,0.4-0.9,0.4-1.5C122.4,29.7,122.3,29.3,122.1,28.9z"/>
</g>
<g>
	<path fill="#FFFFFF" d="M20.8,24.9L12.9,17c0,4,0,6.8,0,9.4h7.2C20.2,25.8,20.5,25.3,20.8,24.9z"/>
	<path fill="#FFFFFF" d="M20.1,28h-7.2c0.2,2.5,1.2,4.8,2.7,6.7l5.1-5.1C20.4,29.1,20.2,28.5,20.1,28z"/>
	<path fill="#FFFFFF" d="M31.5,18.7c-1.8-1.6-4.1-2.6-6.7-2.7v7.2c0.5,0.1,1.1,0.3,1.5,0.6L31.5,18.7z"/>
	<path fill="#FFFFFF" d="M27.6,29.4l5.1,5.1c1.5-1.8,2.5-4,2.7-6.5h-7.3C28,28.5,27.9,28.9,27.6,29.4z"/>
	<path fill="#FFFFFF" d="M28.2,26.4h7.2c-0.2-2.5-1.2-4.8-2.7-6.7l-5.1,5.1C27.9,25.3,28,25.9,28.2,26.4z"/>
	<path fill="#FFFFFF" d="M16.7,35.7c1.8,1.6,4.1,2.6,6.7,2.7v-7.2c-0.5-0.1-1.1-0.3-1.5-0.6L16.7,35.7z"/>
	<path fill="#FFFFFF" d="M24.9,31.2v7.2c2.6-0.2,4.8-1.2,6.7-2.7l-5.1-5.1C26,30.9,25.5,31.1,24.9,31.2z"/>
	<path fill="#FFFFFF" d="M12.9,14.7c1.9,2.1,7.9,8.4,9,9c0.4,0.2,0.9-0.5,1.4-0.5c0-2,0-11.8,0-11.8L12.9,2.1
		C12.9,2.1,12.9,14.4,12.9,14.7z"/>
</g>
</svg>
