<?xml version="1.0" encoding="UTF-8" standalone="no"?>
<svg width="210px" height="160px" viewBox="0 0 210 160" version="1.1" xmlns="http://www.w3.org/2000/svg" xmlns:xlink="http://www.w3.org/1999/xlink" xmlns:sketch="http://www.bohemiancoding.com/sketch/ns">
    <!-- Generator: Sketch 3.3.1 (12002) - http://www.bohemiancoding.com/sketch -->
    <title>icons</title>
    <desc>Created with Sketch.</desc>
    <defs></defs>
    <g id="Website" stroke="none" stroke-width="1" fill="none" fill-rule="evenodd" sketch:type="MSPage">
        <g id="icons" sketch:type="MSArtboardGroup">
            <g id="icon-daex" sketch:type="MSLayerGroup" transform="translate(39.000000, 28.000000)">
                <g id="Group" stroke="#546979" stroke-width="0.9" sketch:type="MSShapeGroup">
                    <g id="Group-+-Path-374" transform="translate(4.851852, 3.669928)">
                        <g id="Group">
                            <path d="M91.034746,97.1878519 L103.708333,60.5538132 L72.7777778,49.544029" id="Path-375"></path>
                            <path d="M0.606481481,44.0391369 L44.2731481,33.6410073 L27.8981481,13.4564029" id="Path-376"></path>
                            <path d="M123.115741,34.252662 L91.5787037,23.8545325 L103.708333,0 L63.6805556,1.22330936 L72.7777778,48.3207196" id="Path-377"></path>
                            <path d="M62.4675926,1.22330936 L43.0601852,33.6410073" id="Path-378"></path>
                        </g>
                        <path d="M12.7361111,70.3402881 L49.7314815,60.5538132 L58.2222222,92.3598565" id="Path-374"></path>
                    </g>
                    <ellipse id="Oval-40" fill="#FDE699" cx="16.9814815" cy="74.6218708" rx="4.85185185" ry="4.89323743"></ellipse>
                    <ellipse id="Oval-40-Copy" fill="#ECECED" cx="4.85185185" cy="47.7090649" rx="4.85185185" ry="4.89323743"></ellipse>
                    <ellipse id="Oval-40-Copy-2" fill="#ACD7F7" cx="53.3703704" cy="64.8353959" rx="4.85185185" ry="4.89323743"></ellipse>
                    <ellipse id="Oval-40-Copy-3" fill="#FDE699" cx="32.75" cy="18.3496404" rx="4.85185185" ry="4.89323743"></ellipse>
                    <ellipse id="Oval-40-Copy-4" fill="#ACD7F7" cx="48.5185185" cy="37.9225901" rx="4.85185185" ry="4.89323743"></ellipse>
                    <ellipse id="Oval-40-Copy-5" fill="#FDE699" cx="67.9259259" cy="4.89323743" rx="4.85185185" ry="4.89323743"></ellipse>
                    <ellipse id="Oval-40-Copy-6" fill="#ECECED" cx="97.037037" cy="28.1361152" rx="4.85185185" ry="4.89323743"></ellipse>
                    <ellipse id="Oval-40-Copy-12" fill="#73C9C9" cx="77.6296296" cy="52.6023024" rx="4.85185185" ry="4.89323743"></ellipse>
                    <ellipse id="Oval-40-Copy-7" fill="#FDE699" cx="107.953704" cy="4.89323743" rx="4.85185185" ry="4.89323743"></ellipse>
                    <ellipse id="Oval-40-Copy-8" fill="#FDE699" cx="126.148148" cy="37.9225901" rx="4.85185185" ry="4.89323743"></ellipse>
                    <ellipse id="Oval-40-Copy-9" fill="#FDE699" cx="63.0740741" cy="96.6414392" rx="4.85185185" ry="4.89323743"></ellipse>
                    <ellipse id="Oval-40-Copy-10" fill="#FDE699" cx="95.825659" cy="101.534677" rx="4.85185185" ry="4.89323743"></ellipse>
                    <ellipse id="Oval-40-Copy-11" fill="#FDE699" cx="107.953704" cy="64.8353959" rx="4.85185185" ry="4.89323743"></ellipse>
                </g>
                <path d="M98.1009636,91 L96,79 L108,82.3541256 L98.1009636,91 L98.1009636,91 Z" id="Triangle-1" stroke="#546979" fill="#546979" sketch:type="MSShapeGroup" transform="translate(102.000000, 85.000000) rotate(63.000000) translate(-102.000000, -85.000000) "></path>
                <path d="M31.1009636,77 L29,65 L41,68.3541256 L31.1009636,77 L31.1009636,77 Z" id="Triangle-1-Copy-2" stroke="#546979" fill="#546979" sketch:type="MSShapeGroup" transform="translate(35.000000, 71.000000) rotate(-3.000000) translate(-35.000000, -71.000000) "></path>
                <path d="M72.4493213,24 L81,33.6943606 L69,36 L72.4493213,24 L72.4493213,24 Z" id="Triangle-1-Copy" stroke="#546979" fill="#546979" sketch:type="MSShapeGroup"></path>
                <text id="$" sketch:type="MSTextLayer" font-family="Proxima Nova" font-size="14.5555556" font-weight="260" fill="#546979">
                    <tspan x="109" y="96">$</tspan>
                </text>
                <text id="€" sketch:type="MSTextLayer" font-family="Proxima Nova" font-size="14.5555556" font-weight="260" fill="#546979">
                    <tspan x="32" y="61">€</tspan>
                </text>
                <g id="Group" transform="translate(76.000000, 9.000000)">
                    <g id="B-+-Line-Copy" font-size="14.4" font-family="Proxima Nova" fill="#546979" sketch:type="MSTextLayer" font-weight="260">
                        <text id="B">
                            <tspan x="0" y="13">B</tspan>
                        </text>
                    </g>
                    <path d="M2.875,2.44948454 L2.875,3.6" id="Line-Copy-5" stroke="#546979" stroke-width="0.6" stroke-linecap="round" stroke-linejoin="round" sketch:type="MSShapeGroup"></path>
                    <path d="M4.125,2.44948454 L4.125,3.6" id="Line-Copy-14" stroke="#546979" stroke-width="0.6" stroke-linecap="round" stroke-linejoin="round" sketch:type="MSShapeGroup"></path>
                    <path d="M2.875,13.2494845 L2.875,14.4" id="Line-Copy-16" stroke="#546979" stroke-width="0.6" stroke-linecap="round" stroke-linejoin="round" sketch:type="MSShapeGroup"></path>
                    <path d="M4.125,13.2494845 L4.125,14.4" id="Line-Copy-15" stroke="#546979" stroke-width="0.6" stroke-linecap="round" stroke-linejoin="round" sketch:type="MSShapeGroup"></path>
                </g>
            </g>
        </g>
    </g>
</svg>