<?xml version="1.0" encoding="UTF-8" standalone="no"?>
<svg width="210px" height="160px" viewBox="0 0 210 160" version="1.1" xmlns="http://www.w3.org/2000/svg" xmlns:xlink="http://www.w3.org/1999/xlink" xmlns:sketch="http://www.bohemiancoding.com/sketch/ns">
    <!-- Generator: Sketch 3.3.1 (12002) - http://www.bohemiancoding.com/sketch -->
    <title>icons</title>
    <desc>Created with Sketch.</desc>
    <defs>
        <rect id="path-1" x="0" y="6.45134576" width="45" height="30.6438923"></rect>
    </defs>
    <g id="Website" stroke="none" stroke-width="1" fill="none" fill-rule="evenodd" sketch:type="MSPage">
        <g id="icons" sketch:type="MSArtboardGroup">
            <g id="icon-app-plugin" sketch:type="MSLayerGroup" transform="translate(35.000000, 12.000000)">
                <rect id="Rectangle-2407-Copy-6" stroke="#546979" stroke-linecap="round" stroke-linejoin="round" fill="#F6FAFC" sketch:type="MSShapeGroup" x="0.0808652695" y="27.284" width="117.365269" height="86" rx="2.4"></rect>
                <circle id="Oval-80" fill="#FDE699" sketch:type="MSShapeGroup" cx="42.9191347" cy="71.284" r="17"></circle>
                <g id="Imported-Layers-Copy" transform="translate(14.392135, 39.784000)" stroke="#546979" stroke-width="0.5" fill="#546979" sketch:type="MSShapeGroup">
                    <path d="M28.5,62.594 C27.035,62.594 25.66,62.266 24.621,61.664 L4.352,49.941 C2.215,48.707 0.473,45.691 0.473,43.219 L0.473,19.777 C0.473,17.309 2.211,14.293 4.352,13.055 L24.621,1.34 C25.66,0.738 27.035,0.41 28.5,0.41 C29.965,0.41 31.34,0.738 32.379,1.34 L52.648,13.059 C54.785,14.293 56.527,17.309 56.527,19.781 L56.527,43.227 C56.527,45.695 54.789,48.711 52.648,49.949 L32.379,61.66 C31.34,62.262 29.965,62.594 28.5,62.594 L28.5,62.594 Z M28.5,1.156 C27.168,1.156 25.922,1.449 24.996,1.984 L4.727,13.707 C2.828,14.805 1.223,17.586 1.223,19.777 L1.223,43.223 C1.223,45.414 2.828,48.195 4.727,49.293 L24.996,61.012 C25.922,61.547 27.164,61.84 28.5,61.84 C29.832,61.84 31.078,61.547 32.004,61.012 L52.273,49.293 C54.172,48.195 55.777,45.414 55.777,43.223 L55.777,19.777 C55.777,17.586 54.172,14.805 52.273,13.707 L32.004,1.988 C31.078,1.453 29.832,1.156 28.5,1.156 L28.5,1.156 Z" id="Fill-2"></path>
                    <path d="M28.5,48.75 C18.988,48.75 11.25,41.012 11.25,31.5 C11.25,21.988 18.988,14.25 28.5,14.25 C38.012,14.25 45.75,21.988 45.75,31.5 C45.75,41.012 38.012,48.75 28.5,48.75 L28.5,48.75 Z M28.5,15 C19.402,15 12,22.402 12,31.5 C12,40.598 19.402,48 28.5,48 C37.598,48 45,40.598 45,31.5 C45,22.402 37.598,15 28.5,15 L28.5,15 Z" id="Fill-3"></path>
                    <path d="M13.441,24.25 C13.379,24.25 13.312,24.234 13.254,24.199 L1.523,17.418 C1.344,17.312 1.281,17.086 1.387,16.906 C1.488,16.727 1.719,16.664 1.898,16.77 L13.629,23.551 C13.809,23.656 13.871,23.883 13.766,24.062 C13.699,24.184 13.574,24.25 13.441,24.25 L13.441,24.25 Z" id="Fill-4"></path>
                    <path d="M43.559,24.25 C43.43,24.25 43.305,24.184 43.234,24.062 C43.133,23.883 43.191,23.652 43.371,23.551 L55.102,16.77 C55.281,16.664 55.512,16.727 55.613,16.906 C55.715,17.086 55.656,17.316 55.477,17.418 L43.746,24.199 C43.684,24.234 43.621,24.25 43.559,24.25 L43.559,24.25 Z" id="Fill-5"></path>
                    <path d="M28.5,62.344 C28.293,62.344 28.125,62.176 28.125,61.969 L28.125,48.375 C28.125,48.168 28.293,48 28.5,48 C28.707,48 28.875,48.168 28.875,48.375 L28.875,61.969 C28.875,62.176 28.707,62.344 28.5,62.344 L28.5,62.344 Z" id="Fill-6"></path>
                </g>
                <g id="Group" transform="translate(95.919135, 50.284000)">
                    <g id="Rectangle-435-Copy">
                        <use stroke="#546979" stroke-width="0.81" stroke-linecap="round" stroke-linejoin="round" fill="#ECECED" fill-rule="evenodd" sketch:type="MSShapeGroup" xlink:href="#path-1"></use>
                        <use stroke="none" fill="none" xlink:href="#path-1"></use>
                    </g>
                    <rect id="Rectangle-436-Copy" stroke="#546979" stroke-width="0.81" stroke-linecap="round" stroke-linejoin="round" fill="#73C9C9" sketch:type="MSShapeGroup" x="0" y="0" width="45" height="6.45134576"></rect>
                    <ellipse id="Oval-475-Copy" stroke="#546979" stroke-width="1.62" stroke-linecap="round" sketch:type="MSShapeGroup" cx="3.21428571" cy="3.22567288" rx="0.803571429" ry="0.806418219"></ellipse>
                    <ellipse id="Oval-476-Copy" stroke="#546979" stroke-width="1.62" stroke-linecap="round" sketch:type="MSShapeGroup" cx="7.23214286" cy="3.22567288" rx="0.803571429" ry="0.806418219"></ellipse>
                    <ellipse id="Oval-477-Copy" stroke="#546979" stroke-width="1.62" stroke-linecap="round" sketch:type="MSShapeGroup" cx="11.25" cy="3.22567288" rx="0.803571429" ry="0.806418219"></ellipse>
                    <path d="M26.1160714,13.3059006 L18.8839286,30.2406832" id="Line-Copy" stroke="#546979" stroke-width="1.62" stroke-linecap="round" sketch:type="MSShapeGroup"></path>
                    <path d="M17.2697349,16.9347826 L19.4117579,25.9318731 L10.4464286,23.7822617" id="Rectangle-445-Copy" stroke="#546979" stroke-width="1.62" stroke-linecap="round" stroke-linejoin="round" sketch:type="MSShapeGroup" transform="translate(14.929093, 21.433328) rotate(-225.000000) translate(-14.929093, -21.433328) "></path>
                    <path d="M28.6710821,16.5972924 L36.5476248,21.4445572 L28.6881748,26.2639975" id="Rectangle-445-Copy-2" stroke="#546979" stroke-width="1.62" stroke-linecap="round" stroke-linejoin="round" sketch:type="MSShapeGroup"></path>
                </g>
                <path d="M42.4207983,63.284 L42.4041734,63.284 C42.2978749,63.2870233 39.7867623,63.3618487 38.0204947,64.4955684 C37.711675,64.6943472 37.6209938,65.1057615 37.8197367,65.4146371 C38.0184796,65.7237647 38.4298194,65.8142103 38.7388911,65.6154315 C40.1497389,64.7109751 42.2978749,64.6195217 42.4316296,64.614483 C46.379283,64.6205295 49.5888924,67.8337429 49.5888924,71.784126 C49.5888924,75.7372804 46.3732376,78.953517 42.4207983,78.953517 C40.4547802,78.953517 38.5537504,78.161173 37.2068832,76.7805544 C35.902082,75.4440249 35.2083711,73.6754223 35.2527041,71.8047849 C35.295022,70.4909298 35.9700929,69.3186637 36.8957964,68.9556214 C37.5570132,68.6958737 38.2950572,68.8631603 39.0605573,69.4368224 C38.1937965,70.7713364 38.3451837,72.5792413 39.514215,73.7482323 L40.5807263,74.8151884 C40.7056648,74.9401495 40.8749363,75.0099362 41.0510089,75.0099362 C41.2273334,75.0099362 41.3966049,74.9401495 41.5215434,74.8151884 L41.9603395,74.3763129 L43.0268507,75.4430171 C43.156827,75.573017 43.3271061,75.637765 43.4971333,75.637765 C43.6674124,75.637765 43.8376915,75.573017 43.9676678,75.4430171 C44.2273686,75.1832694 44.2273686,74.7620296 43.9676678,74.5022818 L42.9009046,73.4353256 L44.0719511,72.2643192 L45.1384624,73.3310234 C45.2684387,73.4610233 45.4384659,73.5260232 45.608745,73.5260232 C45.779024,73.5260232 45.9493031,73.4610233 46.0790276,73.3310234 C46.3389802,73.0712757 46.3389802,72.6500358 46.0790276,72.3902881 L45.0125163,71.3233319 L45.4513124,70.8844565 C45.7110132,70.6247087 45.7110132,70.2034689 45.4513124,69.9437211 L44.3848011,68.8767649 C43.7344157,68.2262618 42.8694181,67.8682583 41.9495081,67.8682583 C41.239928,67.8682583 40.5641014,68.0816496 39.9933139,68.4774437 C38.4230184,67.2293443 37.1005847,67.4460108 36.4078814,67.7186073 C34.9801568,68.2794207 33.9814045,69.9051746 33.9214542,71.7692616 C33.8693125,74.0052087 34.6977857,76.1151869 36.2542272,77.7104564 C37.8512232,79.346036 40.0986048,80.284 42.4207983,80.284 C47.1072512,80.284 50.9191347,76.4704191 50.9191347,71.784126 C50.9191347,67.0965732 47.1072512,63.284 42.4207983,63.284 L42.4207983,63.284 Z" id="Imported-Layers" fill="#546979" sketch:type="MSShapeGroup"></path>
                <path d="M81.5,1.69241579 L81.5,135.692417" id="Line-Copy-23" stroke="#546979" stroke-linecap="round" stroke-linejoin="round" stroke-dasharray="2,4" sketch:type="MSShapeGroup"></path>
            </g>
        </g>
    </g>
</svg>