<?xml version="1.0" encoding="UTF-8" standalone="no"?>
<svg width="210px" height="160px" viewBox="0 0 210 160" version="1.1" xmlns="http://www.w3.org/2000/svg" xmlns:xlink="http://www.w3.org/1999/xlink" xmlns:sketch="http://www.bohemiancoding.com/sketch/ns">
    <!-- Generator: Sketch 3.3.1 (12002) - http://www.bohemiancoding.com/sketch -->
    <title>icons</title>
    <desc>Created with Sketch.</desc>
    <defs></defs>
    <g id="Website" stroke="none" stroke-width="1" fill="none" fill-rule="evenodd" sketch:type="MSPage">
        <g id="icons" sketch:type="MSArtboardGroup" stroke-linecap="round" stroke="#546979" stroke-linejoin="round">
            <g id="icon-performance" sketch:type="MSLayerGroup" transform="translate(7.000000, 34.000000)">
                <path d="M1.0988024,45 L199.915634,45" id="Line" stroke-dasharray="2,4" sketch:type="MSShapeGroup"></path>
                <rect id="Rectangle-2407" fill="#F6FAFC" sketch:type="MSShapeGroup" x="40.0209581" y="0.5" width="117.365269" height="86" rx="2.4"></rect>
                <g id="icon-performance-copy" transform="translate(84.000000, 28.000000)" sketch:type="MSShapeGroup">
                    <rect id="Rectangle-2452" fill="#F7A696" x="5" y="34" width="9" height="24"></rect>
                    <rect id="Rectangle-2452" fill="#ACD7F7" x="22" y="12" width="9" height="46"></rect>
                    <rect id="Rectangle-2452" fill="#FDE699" x="38" y="0" width="9" height="58"></rect>
                    <path d="M53,10.5 L65,10.5" id="Line"></path>
                    <path d="M0,25.5 L12,25.5" id="Line"></path>
                    <path d="M53,17.5 L59,17.5" id="Line"></path>
                </g>
                <g id="Speedometer" transform="translate(51.500000, 11.500000)" stroke-width="1.5" sketch:type="MSShapeGroup">
                    <path d="M41,20.9310877 C41,9.7473215 31.8218374,0.681087681 20.5,0.681087681 C9.17816263,0.681087681 0,9.7473215 0,20.9310877 C0,32.1148539 41,32.1148539 41,20.9310877 Z" id="Oval-1491" fill="#FFFFFF"></path>
                    <path d="M23.537037,29.25 C23.537037,27.5931458 22.1773092,26.25 20.5,26.25 C18.8226908,26.25 17.462963,27.5931458 17.462963,29.25" id="Oval-1492"></path>
                    <path d="M35.6851852,21 C35.6851852,12.7157288 28.8865462,6 20.5,6 C12.1134538,6 5.31481481,12.7157288 5.31481481,21" id="Oval-1492" stroke-dasharray="1,4"></path>
                    <path d="M22.0185185,24.0000006 L27.3333332,11.25" id="Path-3774"></path>
                </g>
            </g>
        </g>
    </g>
</svg>