<?xml version="1.0" encoding="UTF-8" standalone="no"?>
<svg width="203px" height="61px" viewBox="0 0 203 61" version="1.1" xmlns="http://www.w3.org/2000/svg" xmlns:xlink="http://www.w3.org/1999/xlink" xmlns:sketch="http://www.bohemiancoding.com/sketch/ns">
    <!-- Generator: Sketch 3.3.1 (12002) - http://www.bohemiancoding.com/sketch -->
    <title>icon-soon-2</title>
    <desc>Created with Sketch.</desc>
    <defs>
        <filter x="-50%" y="-50%" width="200%" height="200%" filterUnits="objectBoundingBox" id="filter-1">
            <feOffset dx="0" dy="2" in="SourceAlpha" result="shadowOffsetOuter1"></feOffset>
            <feGaussianBlur stdDeviation="2" in="shadowOffsetOuter1" result="shadowBlurOuter1"></feGaussianBlur>
            <feColorMatrix values="0 0 0 0 0   0 0 0 0 0   0 0 0 0 0  0 0 0 0.35 0" in="shadowBlurOuter1" type="matrix" result="shadowMatrixOuter1"></feColorMatrix>
            <feMerge>
                <feMergeNode in="shadowMatrixOuter1"></feMergeNode>
                <feMergeNode in="SourceGraphic"></feMergeNode>
            </feMerge>
        </filter>
        <filter x="-50%" y="-50%" width="200%" height="200%" filterUnits="objectBoundingBox" id="filter-2">
            <feOffset dx="-1" dy="1" in="SourceAlpha" result="shadowOffsetOuter1"></feOffset>
            <feGaussianBlur stdDeviation="2" in="shadowOffsetOuter1" result="shadowBlurOuter1"></feGaussianBlur>
            <feColorMatrix values="0 0 0 0 0.329411775   0 0 0 0 0.411764711   0 0 0 0 0.474509805  0 0 0 0.22895437 0" in="shadowBlurOuter1" type="matrix" result="shadowMatrixOuter1"></feColorMatrix>
            <feMerge>
                <feMergeNode in="shadowMatrixOuter1"></feMergeNode>
                <feMergeNode in="SourceGraphic"></feMergeNode>
            </feMerge>
        </filter>
        <filter x="-50%" y="-50%" width="200%" height="200%" filterUnits="objectBoundingBox" id="filter-3">
            <feOffset dx="-1" dy="1" in="SourceAlpha" result="shadowOffsetOuter1"></feOffset>
            <feGaussianBlur stdDeviation="0.5" in="shadowOffsetOuter1" result="shadowBlurOuter1"></feGaussianBlur>
            <feColorMatrix values="0 0 0 0 0   0 0 0 0 0   0 0 0 0 0  0 0 0 0.106541553 0" in="shadowBlurOuter1" type="matrix" result="shadowMatrixOuter1"></feColorMatrix>
            <feMerge>
                <feMergeNode in="shadowMatrixOuter1"></feMergeNode>
                <feMergeNode in="SourceGraphic"></feMergeNode>
            </feMerge>
        </filter>
        <filter x="-50%" y="-50%" width="200%" height="200%" filterUnits="objectBoundingBox" id="filter-4">
            <feOffset dx="0" dy="1" in="SourceAlpha" result="shadowOffsetInner1"></feOffset>
            <feGaussianBlur stdDeviation="1.5" in="shadowOffsetInner1" result="shadowBlurInner1"></feGaussianBlur>
            <feComposite in="shadowBlurInner1" in2="SourceAlpha" operator="arithmetic" k2="-1" k3="1" result="shadowInnerInner1"></feComposite>
            <feColorMatrix values="0 0 0 0 0   0 0 0 0 0   0 0 0 0 0  0 0 0 0.35 0" in="shadowInnerInner1" type="matrix" result="shadowMatrixInner1"></feColorMatrix>
            <feMerge>
                <feMergeNode in="SourceGraphic"></feMergeNode>
                <feMergeNode in="shadowMatrixInner1"></feMergeNode>
            </feMerge>
        </filter>
        <filter x="-50%" y="-50%" width="200%" height="200%" filterUnits="objectBoundingBox" id="filter-5">
            <feOffset dx="-1" dy="1" in="SourceAlpha" result="shadowOffsetOuter1"></feOffset>
            <feGaussianBlur stdDeviation="0.5" in="shadowOffsetOuter1" result="shadowBlurOuter1"></feGaussianBlur>
            <feColorMatrix values="0 0 0 0 0   0 0 0 0 0   0 0 0 0 0  0 0 0 0.106541553 0" in="shadowBlurOuter1" type="matrix" result="shadowMatrixOuter1"></feColorMatrix>
            <feMerge>
                <feMergeNode in="shadowMatrixOuter1"></feMergeNode>
                <feMergeNode in="SourceGraphic"></feMergeNode>
            </feMerge>
        </filter>
    </defs>
    <g id="Website" stroke="none" stroke-width="1" fill="none" fill-rule="evenodd" sketch:type="MSPage">
        <g id="128" sketch:type="MSArtboardGroup" transform="translate(-3.000000, -35.000000)">
            <g id="icon-soon-2" sketch:type="MSLayerGroup" transform="translate(7.000000, 37.000000)">
                <rect id="Rectangle-185" fill="#1998D1" filter="url(#filter-1)" sketch:type="MSShapeGroup" x="0" y="15.5" width="195" height="24" rx="11"></rect>
                <g id="icon-soon" transform="translate(69.500000, 0.000000)" filter="url(#filter-2)" fill="#FFFFFF" sketch:type="MSShapeGroup">
                    <polygon id="Star-1" points="28 52.9810574 26.1632026 54.9385892 24.6037074 52.7537023 22.5223854 54.4489469 21.2680218 52.0756944 18.9793164 53.4784 18.0524685 50.9591326 15.5972217 52.044268 15.0144291 49.423942 12.4364549 50.1721429 12.2081175 47.4975182 9.55341992 47.8954329 9.68361248 45.2142381 6.99956459 45.2547659 7.4859638 42.6148471 4.82046254 42.2972647 5.65438857 39.7457313 3.05499987 39.075706 4.22157132 36.6580901 1.73468133 35.6475785 3.21308069 33.4070225 0.883068015 32.0740573 2.64691322 30.0505441 0.515356997 28.4189119 2.53317218 26.6485511 0.638110085 24.7473685 2.87388729 23.2617522 1.24913675 21.1249459 3.66297848 19.9505849 2.3375332 17.6162862 4.88636439 16.7741372 3.88387697 14.2840017 6.52221368 13.7890927 5.86057354 11.187557 8.54133457 11.0487197 8.23234869 8.38220824 10.9076958 8.60192015 10.9568781 5.9180169 13.5790696 6.49235731 13.9855423 3.83895657 16.5077853 4.75767635 17.2642949 2.18212812 19.6415798 3.42883269 20.7346264 0.977097686 22.9245305 2.52953958 24.3346087 0.245369076 26.2980531 2.07584493 28 0 29.7019469 2.07584493 31.6653913 0.245369076 33.0754695 2.52953958 35.2653736 0.977097686 36.3584202 3.42883269 38.7357051 2.18212812 39.4922147 4.75767635 42.0144577 3.83895657 42.4209304 6.49235731 45.0431219 5.9180169 45.0923042 8.60192015 47.7676513 8.38220824 47.4586654 11.0487197 50.1394265 11.187557 49.4777863 13.7890927 52.116123 14.2840017 51.1136356 16.7741372 53.6624668 17.6162862 52.3370215 19.9505849 54.7508633 21.1249459 53.1261127 23.2617522 55.3618899 24.7473685 53.4668278 26.6485511 55.484643 28.4189119 53.3530868 30.0505441 55.116932 32.0740573 52.7869193 33.4070225 54.2653187 35.6475785 51.7784287 36.6580901 52.9450001 39.075706 50.3456114 39.7457313 51.1795375 42.2972647 48.5140362 42.6148471 49.0004354 45.2547659 46.3163875 45.2142381 46.4465801 47.8954329 43.7918825 47.4975182 43.5635451 50.1721429 40.9855709 49.423942 40.4027783 52.044268 37.9475315 50.9591326 37.0206836 53.4784 34.7319782 52.0756944 33.4776146 54.4489469 31.3962926 52.7537023 29.8367974 54.9385892 "></polygon>
                </g>
                <path d="M12.09375,31.9814453 C10.832676,31.9814453 9.78109145,31.5625042 8.93896484,30.7246094 C8.09683824,29.8867146 7.67789711,28.8097397 7.68212891,27.4936523 C7.68212891,26.177565 8.10107003,25.1005901 8.93896484,24.2626953 C9.78109145,23.4248005 10.8347919,23.0058594 12.1000977,23.0058594 C13.3654035,23.0058594 14.4106404,23.5178985 15.2358398,24.5419922 L14.6074219,24.9482422 C14.3281236,24.5631491 13.964195,24.2563488 13.515625,24.027832 C13.067055,23.7993153 12.5867539,23.6850586 12.074707,23.6850586 C11.0421498,23.6850586 10.180993,24.0405238 9.49121094,24.7514648 C8.80566063,25.4624059 8.46289063,26.3743434 8.46289063,27.4873047 C8.46289063,28.600266 8.80566063,29.5143193 9.49121094,30.2294922 C10.1767612,30.944665 11.037918,31.3022461 12.074707,31.3022461 C12.5867539,31.3022461 13.067055,31.1879894 13.515625,30.9594727 C13.964195,30.7309559 14.3281236,30.4241556 14.6074219,30.0390625 L15.2358398,30.4326172 C14.4021768,31.4651744 13.354824,31.9814453 12.09375,31.9814453 L12.09375,31.9814453 Z M21.6123047,31.3022461 C22.6448619,31.3022461 23.4785125,30.944665 24.1132813,30.2294922 C24.74805,29.5143193 25.0654297,28.600266 25.0654297,27.4873047 C25.0654297,26.3743434 24.7501659,25.4624059 24.1196289,24.7514648 C23.4975555,24.0405238 22.6660208,23.6850586 21.625,23.6850586 C20.5839792,23.6850586 19.7524445,24.0405238 19.1303711,24.7514648 C18.5082977,25.4624059 18.1972656,26.3743434 18.1972656,27.4873047 C18.1972656,28.600266 18.5082977,29.5143193 19.1303711,30.2294922 C19.7524445,30.944665 20.5797474,31.3022461 21.6123047,31.3022461 L21.6123047,31.3022461 Z M25.8398438,27.4936523 C25.8398438,28.7843489 25.4505247,29.8549762 24.671875,30.7055664 C23.8932253,31.5561566 22.8754946,31.9814453 21.6186523,31.9814453 C20.3660419,31.9814453 19.3525429,31.5561566 18.578125,30.7055664 C17.8037071,29.8549762 17.4165039,28.7843489 17.4165039,27.4936523 C17.4165039,26.2029558 17.8037071,25.1323285 18.578125,24.2817383 C19.3525429,23.4311481 20.3660419,23.0058594 21.6186523,23.0058594 C22.8754946,23.0058594 23.8932253,23.4311481 24.671875,24.2817383 C25.4505247,25.1323285 25.8398438,26.2029558 25.8398438,27.4936523 L25.8398438,27.4936523 Z M36.7802734,31.8227539 L36.0249023,31.8227539 L36.0249023,24.1674805 L32.8637695,31.8227539 L32.578125,31.8227539 L29.4106445,24.1674805 L29.4106445,31.8227539 L28.6679688,31.8227539 L28.6679688,23.1518555 L29.7724609,23.1518555 L32.7241211,30.2993164 L35.6630859,23.1518555 L36.7802734,23.1518555 L36.7802734,31.8227539 Z M40.6748047,31.8227539 L39.9321289,31.8227539 L39.9321289,23.1518555 L40.6748047,23.1518555 L40.6748047,31.8227539 Z M50.7583008,31.8227539 L50.0283203,31.8227539 L44.5693359,24.3706055 L44.5693359,31.8227539 L43.8266602,31.8227539 L43.8266602,23.1518555 L44.5820313,23.1518555 L50.015625,30.4960938 L50.015625,23.1518555 L50.7583008,23.1518555 L50.7583008,31.8227539 Z M58.0488281,31.9941406 C56.7623634,31.9941406 55.6959678,31.5730836 54.8496094,30.730957 C54.003251,29.8888304 53.582194,28.8097397 53.5864258,27.4936523 C53.5864258,26.177565 54.0074828,25.1005901 54.8496094,24.2626953 C55.6959678,23.4248005 56.7581316,23.0058594 58.0361328,23.0058594 C59.314134,23.0058594 60.3826454,23.5009716 61.2416992,24.4912109 L60.6831055,24.8911133 C60.3741847,24.5187156 59.9827498,24.2246105 59.5087891,24.0087891 C59.0348284,23.7929677 58.5249051,23.6850586 57.9790039,23.6850586 C56.9464467,23.6850586 56.0852899,24.0405238 55.3955078,24.7514648 C54.7099575,25.4624059 54.3671875,26.3743434 54.3671875,27.4873047 C54.3671875,28.600266 54.7099575,29.5164352 55.3955078,30.2358398 C56.0810581,30.9552445 56.9422149,31.3149414 57.9790039,31.3149414 C58.5079779,31.3149414 58.9925108,31.2112641 59.4326172,31.0039062 C59.8727236,30.7965484 60.2366522,30.5489923 60.5244141,30.2612305 L60.5244141,28.1855469 L57.2490234,28.1855469 L57.2490234,27.519043 L61.2670898,27.519043 L61.2670898,30.546875 C60.4080361,31.5117236 59.3352929,31.9941406 58.0488281,31.9941406 L58.0488281,31.9941406 Z" id="COMING" fill="#FFFFFF" filter="url(#filter-3)" sketch:type="MSShapeGroup"></path>
                <path d="M92.628,35.48 L92.628,33.008 L85.524,33.008 C89.82,29.768 92.532,27.128 92.532,24.176 C92.532,20.984 89.82,19.232 86.724,19.232 C84.492,19.232 82.236,20.096 80.82,21.8 L82.452,23.648 C83.46,22.496 84.9,21.728 86.772,21.728 C88.236,21.728 89.676,22.496 89.676,24.176 C89.676,26.48 87.252,28.568 81.036,33.272 L81.036,35.48 L92.628,35.48 Z M97.044,35.744 C97.956,35.744 98.724,34.976 98.724,34.064 C98.724,33.152 97.956,32.384 97.044,32.384 C96.132,32.384 95.364,33.152 95.364,34.064 C95.364,34.976 96.132,35.744 97.044,35.744 L97.044,35.744 Z M106.788,35.768 C111.276,35.768 113.196,31.52 113.196,27.488 C113.196,23.456 111.276,19.232 106.788,19.232 C102.3,19.232 100.38,23.456 100.38,27.488 C100.38,31.52 102.3,35.768 106.788,35.768 L106.788,35.768 Z M106.788,33.272 C104.172,33.272 103.236,30.536 103.236,27.488 C103.236,24.44 104.172,21.728 106.788,21.728 C109.404,21.728 110.34,24.44 110.34,27.488 C110.34,30.536 109.404,33.272 106.788,33.272 L106.788,33.272 Z" id="2.0" fill="#00A9E0" filter="url(#filter-4)" sketch:type="MSShapeGroup"></path>
                <path d="M142.527344,31.9877658 C141.164707,31.9877658 140.106775,31.5265074 139.353516,30.6039768 L139.835938,30.045383 C140.555342,30.8875096 141.4567,31.3085666 142.540039,31.3085666 C143.34408,31.3085666 143.925942,31.1329499 144.285645,30.7817112 C144.645347,30.4304724 144.825195,30.0559644 144.825195,29.658176 C144.825195,28.9472349 144.482425,28.4436592 143.796875,28.1474338 C143.487954,28.0120165 143.149416,27.8935281 142.78125,27.7919651 C142.413084,27.6904021 142.044924,27.5803771 141.676758,27.4618869 C141.308592,27.3433968 140.970054,27.2058656 140.661133,27.0492893 C140.352212,26.8842494 140.10254,26.6578519 139.912109,26.3700901 C139.721679,26.0823282 139.626465,25.7353265 139.626465,25.3290744 C139.626465,24.6350605 139.899411,24.0764724 140.445312,23.6532932 C140.991214,23.230114 141.66829,23.0164117 142.476562,23.0121799 C143.716478,23.0121799 144.696123,23.4205417 145.415527,24.2372776 L144.92041,24.783176 C144.315264,24.0553078 143.487961,23.6913791 142.438477,23.6913791 C141.862953,23.6913791 141.380536,23.8416055 140.991211,24.1420627 C140.601886,24.4425199 140.407227,24.8254914 140.407227,25.2909885 C140.407227,25.5872139 140.50244,25.8411176 140.692871,26.0527072 C140.883302,26.2642968 141.132974,26.4293343 141.441895,26.5478244 C141.750815,26.6663146 142.233232,26.8144251 142.88916,26.9921604 C143.545088,27.1741274 144.067706,27.3730187 144.457031,27.5888401 C145.222986,28.0247146 145.605957,28.6721691 145.605957,29.5312229 C145.601725,30.1913824 145.354169,30.7668975 144.863281,31.2577854 C144.372393,31.7486732 143.593755,31.9919976 142.527344,31.9877658 L142.527344,31.9877658 Z M152.255371,31.3085666 C153.287928,31.3085666 154.121579,30.9509856 154.756348,30.2358127 C155.391116,29.5206399 155.708496,28.6065865 155.708496,27.4936252 C155.708496,26.3806639 155.393232,25.4687264 154.762695,24.7577854 C154.140622,24.0468443 153.309087,23.6913791 152.268066,23.6913791 C151.227046,23.6913791 150.395511,24.0468443 149.773438,24.7577854 C149.151364,25.4687264 148.840332,26.3806639 148.840332,27.4936252 C148.840332,28.6065865 149.151364,29.5206399 149.773438,30.2358127 C150.395511,30.9509856 151.222814,31.3085666 152.255371,31.3085666 L152.255371,31.3085666 Z M156.48291,27.4999729 C156.48291,28.7906694 156.093591,29.8612967 155.314941,30.7118869 C154.536292,31.5624771 153.518561,31.9877658 152.261719,31.9877658 C151.009108,31.9877658 149.995609,31.5624771 149.221191,30.7118869 C148.446773,29.8612967 148.05957,28.7906694 148.05957,27.4999729 C148.05957,26.2092763 148.446773,25.138649 149.221191,24.2880588 C149.995609,23.4374686 151.009108,23.0121799 152.261719,23.0121799 C153.518561,23.0121799 154.536292,23.4374686 155.314941,24.2880588 C156.093591,25.138649 156.48291,26.2092763 156.48291,27.4999729 L156.48291,27.4999729 Z M163.183105,31.3085666 C164.215663,31.3085666 165.049313,30.9509856 165.684082,30.2358127 C166.318851,29.5206399 166.63623,28.6065865 166.63623,27.4936252 C166.63623,26.3806639 166.320967,25.4687264 165.69043,24.7577854 C165.068356,24.0468443 164.236822,23.6913791 163.195801,23.6913791 C162.15478,23.6913791 161.323245,24.0468443 160.701172,24.7577854 C160.079098,25.4687264 159.768066,26.3806639 159.768066,27.4936252 C159.768066,28.6065865 160.079098,29.5206399 160.701172,30.2358127 C161.323245,30.9509856 162.150548,31.3085666 163.183105,31.3085666 L163.183105,31.3085666 Z M167.410645,27.4999729 C167.410645,28.7906694 167.021326,29.8612967 166.242676,30.7118869 C165.464026,31.5624771 164.446295,31.9877658 163.189453,31.9877658 C161.936843,31.9877658 160.923344,31.5624771 160.148926,30.7118869 C159.374508,29.8612967 158.987305,28.7906694 158.987305,27.4999729 C158.987305,26.2092763 159.374508,25.138649 160.148926,24.2880588 C160.923344,23.4374686 161.936843,23.0121799 163.189453,23.0121799 C164.446295,23.0121799 165.464026,23.4374686 166.242676,24.2880588 C167.021326,25.138649 167.410645,26.2092763 167.410645,27.4999729 L167.410645,27.4999729 Z M177.17041,31.8290744 L176.44043,31.8290744 L170.981445,24.376926 L170.981445,31.8290744 L170.23877,31.8290744 L170.23877,23.158176 L170.994141,23.158176 L176.427734,30.5024143 L176.427734,23.158176 L177.17041,23.158176 L177.17041,31.8290744 Z" id="SOON" stroke="#FFFFFF" fill="#FFFFFF" filter="url(#filter-5)" sketch:type="MSShapeGroup"></path>
            </g>
        </g>
    </g>
</svg>