<?xml version="1.0" encoding="UTF-8" standalone="no"?>
<svg width="210px" height="160px" viewBox="0 0 210 160" version="1.1" xmlns="http://www.w3.org/2000/svg" xmlns:xlink="http://www.w3.org/1999/xlink" xmlns:sketch="http://www.bohemiancoding.com/sketch/ns">
    <!-- Generator: Sketch 3.3.1 (12002) - http://www.bohemiancoding.com/sketch -->
    <title>icons</title>
    <desc>Created with Sketch.</desc>
    <defs></defs>
    <g id="Website" stroke="none" stroke-width="1" fill="none" fill-rule="evenodd" sketch:type="MSPage">
        <g id="icons" sketch:type="MSArtboardGroup" stroke="#546979">
            <g id="icon-bonds" sketch:type="MSLayerGroup" transform="translate(32.000000, 12.000000)">
                <g id="Group" sketch:type="MSShapeGroup" stroke-linecap="round" stroke-linejoin="round">
                    <rect id="Rectangle-2407-Copy-8" fill="#F6FAFC" x="27.1347305" y="24" width="117.365269" height="86" rx="2.4"></rect>
                    <g id="Diploma-Copy-2" transform="translate(0.500000, 48.000000)">
                        <rect id="Rectangle-1568" fill="#ACD7F7" x="0" y="0" width="56" height="38" rx="1"></rect>
                        <path d="M4,27 L4,11 C7.3137085,11 10,8.3137085 10,5 C10,4.65928779 9.9716012,4.32520847 9.91704156,4 L9.91704156,4 L46.0829584,4 L46.0829584,4 C46.0283988,4.32520847 46,4.65928779 46,5 C46,8.3137085 48.6862915,11 52,11 L52,27 L52,27 C48.6862915,27 46,29.6862915 46,33 C46,33.3407122 46.0283988,33.6747915 46.0829584,34 L9.91704156,34 C9.9716012,33.6747915 10,33.3407122 10,33 C10,29.6862915 7.3137085,27 4,27 Z" id="Rectangle-1569" fill="#FDE699"></path>
                        <path d="M13,13.5 L42.0172367,13.5" id="Line"></path>
                        <path d="M17,24.5 L38,24.5" id="Line"></path>
                        <path d="M17,27.5 L38,27.5" id="Line"></path>
                        <path d="M23,9.5 L33,9.5" id="Line"></path>
                    </g>
                    <g id="Balance-Copy-2" transform="translate(85.817365, 41.000000)">
                        <path d="M3.57446809,11.5 L37.5319149,11.5" id="Line"></path>
                        <path d="M20.5,5.43396226 L20.5,43.4815409" id="Line"></path>
                        <ellipse id="Oval-1393" fill="#ACD7F7" cx="20.5531915" cy="2.71698113" rx="2.68085106" ry="2.71698113"></ellipse>
                        <path d="M25.0212766,48 C25.0212766,45.4990879 23.0208468,43.4716981 20.5531915,43.4716981 C18.0855362,43.4716981 16.0851064,45.4990879 16.0851064,48 L25.0212766,48 Z" id="Oval-1394" fill="#ACD7F7"></path>
                        <path d="M42,32.6037736 C42,29.1024967 39.1993982,26.2641509 35.7446809,26.2641509 C32.2899635,26.2641509 29.4893617,29.1024967 29.4893617,32.6037736 L42,32.6037736 Z" id="Oval-1395" fill="#73C9C9" transform="translate(35.744681, 29.433962) scale(1, -1) translate(-35.744681, -29.433962) "></path>
                        <path d="M35.5104791,12.7719603 L31.3638843,26.0456329" id="Path-3452"></path>
                        <path d="M40.1804339,12.7808494 L35.9894612,26.0893973" id="Path-3452" transform="translate(38.084948, 19.435123) scale(-1, 1) translate(-38.084948, -19.435123) "></path>
                        <path d="M12.5106383,32.6037736 C12.5106383,29.1024967 9.71003652,26.2641509 6.25531915,26.2641509 C2.80060178,26.2641509 0,29.1024967 0,32.6037736 L12.5106383,32.6037736 Z" id="Oval-1396" fill="#FDE699" transform="translate(6.255319, 29.433962) scale(1, -1) translate(-6.255319, -29.433962) "></path>
                        <path d="M6.02111738,12.7719603 L1.87452264,26.0456329" id="Path-3453"></path>
                        <path d="M10.6910722,12.7808494 L6.50009947,26.0893973" id="Path-3454" transform="translate(8.595586, 19.435123) scale(-1, 1) translate(-8.595586, -19.435123) "></path>
                    </g>
                    <path d="M67.7957919,0.353698389 L67.7957919,134.353699" id="Line-Copy-23" stroke-dasharray="2,4"></path>
                </g>
                <path d="M20.836,69 C21.568,69 21.994,68.562 21.994,67.92 C21.994,67.44 21.64,67.002 21.214,66.936 C21.58,66.858 21.916,66.522 21.916,66.018 C21.916,65.418 21.49,64.998 20.794,64.998 L19.012,64.998 L19.012,69 L20.836,69 Z M20.71,66.732 L19.51,66.732 L19.51,65.442 L20.71,65.442 C21.16,65.442 21.4,65.73 21.4,66.09 C21.4,66.456 21.16,66.732 20.71,66.732 L20.71,66.732 Z M20.734,68.556 L19.51,68.556 L19.51,67.176 L20.734,67.176 C21.226,67.176 21.478,67.5 21.478,67.866 C21.478,68.292 21.202,68.556 20.734,68.556 L20.734,68.556 Z M25.31,69.072 C26.492,69.072 27.296,68.184 27.296,67.002 C27.296,65.82 26.492,64.932 25.31,64.932 C24.122,64.932 23.324,65.82 23.324,67.002 C23.324,68.184 24.122,69.072 25.31,69.072 L25.31,69.072 Z M25.31,68.628 C24.41,68.628 23.84,67.932 23.84,67.002 C23.84,66.066 24.41,65.376 25.31,65.376 C26.204,65.376 26.78,66.066 26.78,67.002 C26.78,67.932 26.204,68.628 25.31,68.628 L25.31,68.628 Z M32.088,69 L32.088,64.998 L31.59,64.998 L31.59,68.124 L29.286,64.998 L28.776,64.998 L28.776,69 L29.274,69 L29.274,65.808 L31.608,69 L32.088,69 Z M35.092,69 C36.334,69 37.144,68.142 37.144,67.002 C37.144,65.868 36.334,64.998 35.092,64.998 L33.724,64.998 L33.724,69 L35.092,69 Z M35.092,68.556 L34.222,68.556 L34.222,65.442 L35.092,65.442 C36.082,65.442 36.628,66.138 36.628,67.002 C36.628,67.86 36.064,68.556 35.092,68.556 L35.092,68.556 Z" id="BOND" stroke-width="0.2" fill="#546979" sketch:type="MSShapeGroup"></path>
            </g>
        </g>
    </g>
</svg>