<?xml version="1.0" encoding="UTF-8" standalone="no"?>
<svg width="210px" height="160px" viewBox="0 0 210 160" version="1.1" xmlns="http://www.w3.org/2000/svg" xmlns:xlink="http://www.w3.org/1999/xlink" xmlns:sketch="http://www.bohemiancoding.com/sketch/ns">
    <!-- Generator: Sketch 3.3.1 (12002) - http://www.bohemiancoding.com/sketch -->
    <title>icons</title>
    <desc>Created with Sketch.</desc>
    <defs></defs>
    <g id="Website" stroke="none" stroke-width="1" fill="none" fill-rule="evenodd" sketch:type="MSPage">
        <g id="icons" sketch:type="MSArtboardGroup">
            <g id="icon-rec-payments" sketch:type="MSLayerGroup" transform="translate(39.000000, 12.000000)">
                <rect id="Rectangle-2407-Copy-5" stroke="#546979" stroke-linecap="round" stroke-linejoin="round" fill="#F6FAFC" sketch:type="MSShapeGroup" x="15.0673653" y="24.9084158" width="117.365269" height="86" rx="2.4"></rect>
                <g id="Imported-Layers" transform="translate(54.567365, 37.908416)" sketch:type="MSShapeGroup">
                    <path d="M21.0528522,18 C20.4734242,18 20,18.5020958 20,19.0805389 L20,22.9473054 C20,23.5257485 20.4734242,24 21.0528522,24 L24.9192993,24 C25.4987274,24 26,23.5257485 26,22.9473054 L26,19.0805389 C26,18.5020958 25.4987274,18 24.9192993,18 L21.0528522,18 Z M21.0807007,19.1047904 L24.8986375,19.1047904 L24.8986375,22.9221557 L21.0807007,22.9221557 L21.0807007,19.1047904 Z" id="Fill-3" fill="#546979"></path>
                    <path d="M29.0576026,18 C28.4764626,18 28,18.5020958 28,19.0805389 L28,22.9473054 C28,23.5257485 28.4764626,24 29.0576026,24 L32.9423974,24 C33.5244398,24 34,23.5257485 34,22.9473054 L34,19.0805389 C34,18.5020958 33.5244398,18 32.9423974,18 L29.0576026,18 Z M29.0864792,19.1047904 L32.9216424,19.1047904 L32.9216424,22.9221557 L29.0864792,22.9221557 L29.0864792,19.1047904 Z" id="Fill-4" fill="#546979"></path>
                    <path d="M36.0805389,18 C35.5011976,18 35,18.5020958 35,19.0805389 L35,22.9473054 C35,23.5257485 35.5011976,24 36.0805389,24 L39.9473054,24 C40.5257485,24 41,23.5257485 41,22.9473054 L41,19.0805389 C41,18.5020958 40.5257485,18 39.9473054,18 L36.0805389,18 Z M36.1047904,19.1047904 L39.9221557,19.1047904 L39.9221557,22.9221557 L36.1047904,22.9221557 L36.1047904,19.1047904 Z" id="Fill-5" fill="#546979"></path>
                    <path d="M44.0519539,18 C43.4734242,18 43,18.5020958 43,19.0805389 L43,22.9473054 C43,23.5257485 43.4734242,24 44.0519539,24 L47.9192993,24 C48.4987274,24 49,23.5257485 49,22.9473054 L49,19.0805389 C49,18.5020958 48.4987274,18 47.9192993,18 L44.0519539,18 Z M44.0771074,19.1047904 L47.8950442,19.1047904 L47.8950442,22.9221557 L44.0771074,22.9221557 L44.0771074,19.1047904 Z" id="Fill-6" fill="#546979"></path>
                    <path d="M52.0576026,18 C51.4764626,18 51,18.5020958 51,19.0805389 L51,22.9473054 C51,23.5257485 51.4764626,24 52.0576026,24 L55.9423974,24 C56.5235374,24 57,23.5257485 57,22.9473054 L57,19.0805389 C57,18.5020958 56.5235374,18 55.9423974,18 L52.0576026,18 Z M52.0828696,19.1047904 L55.9180328,19.1047904 L55.9180328,22.9221557 L52.0828696,22.9221557 L52.0828696,19.1047904 Z" id="Fill-7" fill="#546979"></path>
                    <path d="M5.05685921,26 C4.47563177,26 4,26.4756318 4,27.0577617 L4,30.9422383 C4,31.5243682 4.47563177,32 5.05685921,32 L8.94223827,32 C9.52436823,32 10,31.5243682 10,30.9422383 L10,27.0577617 C10,26.4756318 9.52436823,26 8.94223827,26 L5.05685921,26 Z M5.08574007,27.0857401 L8.92148014,27.0857401 L8.92148014,30.9214801 L5.08574007,30.9214801 L5.08574007,27.0857401 Z" id="Fill-8" fill="#546979"></path>
                    <path d="M13.0805389,26 C12.5020958,26 12,26.4756318 12,27.0577617 L12,30.9422383 C12,31.5243682 12.5020958,32 13.0805389,32 L16.9473054,32 C17.5257485,32 18,31.5243682 18,30.9422383 L18,27.0577617 C18,26.4756318 17.5257485,26 16.9473054,26 L13.0805389,26 Z M13.1083832,27.0857401 L16.9257485,27.0857401 L16.9257485,30.9214801 L13.1083832,30.9214801 L13.1083832,27.0857401 Z" id="Fill-9" fill="#546979"></path>
                    <path d="M21.0528522,26 C20.4734242,26 20,26.4756318 20,27.0577617 L20,30.9422383 C20,31.5243682 20.4734242,32 21.0528522,32 L24.9192993,32 C25.4987274,32 26,31.5243682 26,30.9422383 L26,27.0577617 C26,26.4756318 25.4987274,26 24.9192993,26 L21.0528522,26 Z M21.0807007,27.0857401 L24.8986375,27.0857401 L24.8986375,30.9214801 L21.0807007,30.9214801 L21.0807007,27.0857401 Z" id="Fill-10" fill="#546979"></path>
                    <rect id="Rectangle-140" stroke="#546979" fill="#F7A696" x="20" y="26" width="6" height="6" rx="1"></rect>
                    <rect id="Rectangle-140-Copy-3" stroke="#546979" fill="#ACD7F7" x="4" y="42" width="6" height="6" rx="1"></rect>
                    <rect id="Rectangle-140-Copy" fill="#73C9C9" x="43" y="34" width="6" height="6" rx="1"></rect>
                    <rect id="Rectangle-140-Copy-2" fill="#FDE699" x="28" y="50" width="6" height="6" rx="1"></rect>
                    <path d="M29.0576026,26 C28.4764626,26 28,26.4756318 28,27.0577617 L28,30.9422383 C28,31.5243682 28.4764626,32 29.0576026,32 L32.9423974,32 C33.5244398,32 34,31.5243682 34,30.9422383 L34,27.0577617 C34,26.4756318 33.5244398,26 32.9423974,26 L29.0576026,26 Z M29.0864792,27.0857401 L32.9216424,27.0857401 L32.9216424,30.9214801 L29.0864792,30.9214801 L29.0864792,27.0857401 Z" id="Fill-11" fill="#546979"></path>
                    <path d="M36.0805389,26 C35.5011976,26 35,26.4756318 35,27.0577617 L35,30.9422383 C35,31.5243682 35.5011976,32 36.0805389,32 L39.9473054,32 C40.5257485,32 41,31.5243682 41,30.9422383 L41,27.0577617 C41,26.4756318 40.5257485,26 39.9473054,26 L36.0805389,26 Z M36.1083832,27.0857401 L39.9257485,27.0857401 L39.9257485,30.9214801 L36.1083832,30.9214801 L36.1083832,27.0857401 Z" id="Fill-12" fill="#546979"></path>
                    <path d="M44.0519539,26 C43.4734242,26 43,26.4756318 43,27.0577617 L43,30.9422383 C43,31.5243682 43.4734242,32 44.0519539,32 L47.9192993,32 C48.4987274,32 49,31.5243682 49,30.9422383 L49,27.0577617 C49,26.4756318 48.4987274,26 47.9192993,26 L44.0519539,26 Z M44.0807007,27.0857401 L47.8986375,27.0857401 L47.8986375,30.9214801 L44.0807007,30.9214801 L44.0807007,27.0857401 Z" id="Fill-13" fill="#546979"></path>
                    <path d="M52.0576026,26 C51.4764626,26 51,26.4764626 51,27.0576026 L51,30.9423974 C51,31.5235374 51.4764626,32 52.0576026,32 L55.9423974,32 C56.5235374,32 57,31.5235374 57,30.9423974 L57,27.0576026 C57,26.4764626 56.5235374,26 55.9423974,26 L52.0576026,26 Z M52.0855768,27.0855768 L55.92074,27.0855768 L55.92074,30.92074 L52.0855768,30.92074 L52.0855768,27.0855768 Z" id="Fill-14" fill="#546979"></path>
                    <path d="M5.05685921,34 C4.47563177,34 4,34.4755602 4,35.0576026 L4,38.9423974 C4,39.5235374 4.47563177,40 5.05685921,40 L8.94223827,40 C9.52436823,40 10,39.5235374 10,38.9423974 L10,35.0576026 C10,34.4755602 9.52436823,34 8.94223827,34 L5.05685921,34 Z M5.08212996,35.0855768 L8.91787004,35.0855768 L8.91787004,38.92074 L5.08212996,38.92074 L5.08212996,35.0855768 Z" id="Fill-15" fill="#546979"></path>
                    <path d="M13.0805389,34 C12.5020958,34 12,34.4755602 12,35.0576026 L12,38.9423974 C12,39.5235374 12.498503,40 13.0805389,40 L16.9473054,40 C17.5257485,40 18,39.5235374 18,38.9423974 L18,35.0576026 C18,34.4755602 17.5257485,34 16.9473054,34 L13.0805389,34 Z M13.1083832,35.0855768 L16.9257485,35.0855768 L16.9257485,38.92074 L13.1083832,38.92074 L13.1083832,35.0855768 Z" id="Fill-16" fill="#546979"></path>
                    <path d="M21.0528522,34 C20.4734242,34 20,34.4755602 20,35.0576026 L20,38.9423974 C20,39.5235374 20.4734242,40 21.0528522,40 L24.9192993,40 C25.4987274,40 26,39.5235374 26,38.9423974 L26,35.0576026 C26,34.4755602 25.4987274,34 24.9192993,34 L21.0528522,34 Z M21.0807007,35.0855768 L24.8986375,35.0855768 L24.8986375,38.92074 L21.0807007,38.92074 L21.0807007,35.0855768 Z" id="Fill-17" fill="#546979"></path>
                    <path d="M29.0576026,34 C28.4764626,34 28,34.4755602 28,35.0576026 L28,38.9423974 C28,39.5235374 28.4764626,40 29.0576026,40 L32.9423974,40 C33.5244398,40 34,39.5235374 34,38.9423974 L34,35.0576026 C34,34.4755602 33.5244398,34 32.9423974,34 L29.0576026,34 Z M29.0864792,35.0855768 L32.9216424,35.0855768 L32.9216424,38.92074 L29.0864792,38.92074 L29.0864792,35.0855768 Z" id="Fill-18" fill="#546979"></path>
                    <path d="M36.0805389,34 C35.5011976,34 35,34.4755602 35,35.0576026 L35,38.9423974 C35,39.5235374 35.498503,40 36.0805389,40 L39.9473054,40 C40.5257485,40 41,39.5235374 41,38.9423974 L41,35.0576026 C41,34.4755602 40.5257485,34 39.9473054,34 L36.0805389,34 Z M36.1047904,35.0855768 L39.9221557,35.0855768 L39.9221557,38.92074 L36.1047904,38.92074 L36.1047904,35.0855768 Z" id="Fill-19" fill="#546979"></path>
                    <path d="M44.0519539,34 C43.4734242,34 43,34.4755602 43,35.0576026 L43,38.9423974 C43,39.5235374 43.4734242,40 44.0519539,40 L47.9192993,40 C48.4987274,40 49,39.5235374 49,38.9423974 L49,35.0576026 C49,34.4755602 48.4987274,34 47.9192993,34 L44.0519539,34 Z M44.0771074,35.0855768 L47.8950442,35.0855768 L47.8950442,38.92074 L44.0771074,38.92074 L44.0771074,35.0855768 Z" id="Fill-20" fill="#546979"></path>
                    <path d="M52.0576026,34 C51.4764626,34 51,34.4755602 51,35.0576026 L51,38.9423974 C51,39.5235374 51.4764626,40 52.0576026,40 L55.9423974,40 C56.5235374,40 57,39.5235374 57,38.9423974 L57,35.0576026 C57,34.4755602 56.5235374,34 55.9423974,34 L52.0576026,34 Z M52.0855768,35.0855768 L55.92074,35.0855768 L55.92074,38.92074 L52.0855768,38.92074 L52.0855768,35.0855768 Z" id="Fill-21" fill="#546979"></path>
                    <path d="M5.05685921,42 C4.47563177,42 4,42.4734242 4,43.0519539 L4,46.9192993 C4,47.4987274 4.47563177,48 5.05685921,48 L8.94223827,48 C9.52436823,48 10,47.4987274 10,46.9192993 L10,43.0519539 C10,42.4734242 9.52436823,42 8.94223827,42 L5.05685921,42 Z M5.08574007,43.0807007 L8.92148014,43.0807007 L8.92148014,46.8986375 L5.08574007,46.8986375 L5.08574007,43.0807007 Z" id="Fill-22" fill="#546979"></path>
                    <path d="M13.0805389,42 C12.5020958,42 12,42.4734242 12,43.0519539 L12,46.9192993 C12,47.4987274 12.5020958,48 13.0805389,48 L16.9473054,48 C17.5257485,48 18,47.4987274 18,46.9192993 L18,43.0519539 C18,42.4734242 17.5257485,42 16.9473054,42 L13.0805389,42 Z M13.1083832,43.0807007 L16.9257485,43.0807007 L16.9257485,46.8986375 L13.1083832,46.8986375 L13.1083832,43.0807007 Z" id="Fill-23" fill="#546979"></path>
                    <path d="M21.0528522,42 C20.4734242,42 20,42.4734242 20,43.0519539 L20,46.9192993 C20,47.4987274 20.4734242,48 21.0528522,48 L24.9192993,48 C25.4987274,48 26,47.4987274 26,46.9192993 L26,43.0519539 C26,42.4734242 25.4987274,42 24.9192993,42 L21.0528522,42 Z M21.0807007,43.0807007 L24.8986375,43.0807007 L24.8986375,46.8986375 L21.0807007,46.8986375 L21.0807007,43.0807007 Z" id="Fill-24" fill="#546979"></path>
                    <path d="M29.0576026,42 C28.4764626,42 28,42.4734242 28,43.0519539 L28,46.9192993 C28,47.4987274 28.4764626,48 29.0576026,48 L32.9423974,48 C33.5244398,48 34,47.4987274 34,46.9192993 L34,43.0519539 C34,42.4734242 33.5244398,42 32.9423974,42 L29.0576026,42 Z M29.0864792,43.0807007 L32.9216424,43.0807007 L32.9216424,46.8986375 L29.0864792,46.8986375 L29.0864792,43.0807007 Z" id="Fill-25" fill="#546979"></path>
                    <path d="M36.0805389,42 C35.5011976,42 35,42.4734242 35,43.0519539 L35,46.9192993 C35,47.4987274 35.5011976,48 36.0805389,48 L39.9473054,48 C40.5257485,48 41,47.4987274 41,46.9192993 L41,43.0519539 C41,42.4734242 40.5257485,42 39.9473054,42 L36.0805389,42 Z M36.1083832,43.0807007 L39.9257485,43.0807007 L39.9257485,46.8986375 L36.1083832,46.8986375 L36.1083832,43.0807007 Z" id="Fill-26" fill="#546979"></path>
                    <path d="M44.0519539,42 C43.4734242,42 43,42.4734242 43,43.0519539 L43,46.9192993 C43,47.4987274 43.4734242,48 44.0519539,48 L47.9192993,48 C48.4987274,48 49,47.4987274 49,46.9192993 L49,43.0519539 C49,42.4734242 48.4987274,42 47.9192993,42 L44.0519539,42 Z M44.0807007,43.0807007 L47.8986375,43.0807007 L47.8986375,46.8986375 L44.0807007,46.8986375 L44.0807007,43.0807007 Z" id="Fill-27" fill="#546979"></path>
                    <path d="M52.0576026,42 C51.4764626,42 51,42.4734242 51,43.0519539 L51,46.9192993 C51,47.4987274 51.4764626,48 52.0576026,48 L55.9423974,48 C56.5235374,48 57,47.4987274 57,46.9192993 L57,43.0519539 C57,42.4734242 56.5235374,42 55.9423974,42 L52.0576026,42 Z M52.0855768,43.0807007 L55.92074,43.0807007 L55.92074,46.8986375 L52.0855768,46.8986375 L52.0855768,43.0807007 Z" id="Fill-28" fill="#546979"></path>
                    <path d="M5.05685921,50 C4.47563177,50 4,50.5011976 4,51.0805389 L4,54.9473054 C4,55.5257485 4.47563177,56 5.05685921,56 L8.94223827,56 C9.52436823,56 10,55.5257485 10,54.9473054 L10,51.0805389 C10,50.5011976 9.52436823,50 8.94223827,50 L5.05685921,50 Z M5.08574007,51.1047904 L8.92148014,51.1047904 L8.92148014,54.9221557 L5.08574007,54.9221557 L5.08574007,51.1047904 Z" id="Fill-29" fill="#546979"></path>
                    <path d="M13.0805389,50 C12.5020958,50 12,50.5011976 12,51.0805389 L12,54.9473054 C12,55.5257485 12.5020958,56 13.0805389,56 L16.9473054,56 C17.5257485,56 18,55.5257485 18,54.9473054 L18,51.0805389 C18,50.5011976 17.5257485,50 16.9473054,50 L13.0805389,50 Z M13.1083832,51.1047904 L16.9257485,51.1047904 L16.9257485,54.9221557 L13.1083832,54.9221557 L13.1083832,51.1047904 Z" id="Fill-30" fill="#546979"></path>
                    <path d="M21.0528522,50 C20.4734242,50 20,50.5011976 20,51.0805389 L20,54.9473054 C20,55.5257485 20.4734242,56 21.0528522,56 L24.9192993,56 C25.4987274,56 26,55.5257485 26,54.9473054 L26,51.0805389 C26,50.5011976 25.4987274,50 24.9192993,50 L21.0528522,50 Z M21.0807007,51.1047904 L24.8986375,51.1047904 L24.8986375,54.9221557 L21.0807007,54.9221557 L21.0807007,51.1047904 Z" id="Fill-31" fill="#546979"></path>
                    <path d="M29.0576026,50 C28.4764626,50 28,50.5011976 28,51.0805389 L28,54.9473054 C28,55.5257485 28.4764626,56 29.0576026,56 L32.9423974,56 C33.5244398,56 34,55.5257485 34,54.9473054 L34,51.0805389 C34,50.5011976 33.5244398,50 32.9423974,50 L29.0576026,50 Z M29.0864792,51.1047904 L32.9216424,51.1047904 L32.9216424,54.9221557 L29.0864792,54.9221557 L29.0864792,51.1047904 Z" id="Fill-32" fill="#546979"></path>
                    <g id="Group">
                        <path d="M5,14 L5,15 L57,15 L57,14 L5,14 Z" id="Fill-34" fill="#546979"></path>
                        <rect id="Rectangle-139" stroke="#546979" stroke-linecap="round" stroke-linejoin="round" x="0.432634731" y="4.09158417" width="61" height="55" rx="3"></rect>
                        <circle id="Oval-75" stroke="#546979" cx="11.9326347" cy="9.59158417" r="2.5"></circle>
                        <circle id="Oval-75-Copy" stroke="#546979" cx="48.9326347" cy="9.59158417" r="2.5"></circle>
                        <path d="M11.9326347,9.59158417 L11.9326347,0.591584166" id="Line" stroke="#546979" stroke-linecap="round" stroke-linejoin="round"></path>
                        <path d="M48.9326347,9.59158417 L48.9326347,0.591584166" id="Line-Copy-22" stroke="#546979" stroke-linecap="round" stroke-linejoin="round"></path>
                    </g>
                </g>
                <circle id="Oval-74" fill="#F6FAFC" sketch:type="MSShapeGroup" cx="14.5673653" cy="68.9084158" r="14"></circle>
                <g id="Imported-Layers" transform="translate(2.567365, 55.908416)" sketch:type="MSShapeGroup">
                    <path d="M25.6800644,10 C26.9794336,15.7550219 24.2526911,21.8677705 18.7412214,24.6182519 C13.2767959,27.3461016 6.8222533,25.8973079 3,21.4841268" id="Stroke-1" stroke="#546979" stroke-linecap="round" stroke-linejoin="round"></path>
                    <path d="M0.304735581,16 C-0.950580392,10.242003 1.73835531,4.13646802 7.15469144,1.38582784 C12.7000821,-1.43109724 19.280066,0.192699663 23,4.93042194" id="Stroke-2" stroke="#546979" stroke-linecap="round" stroke-linejoin="round"></path>
                    <path d="M22.9048374,1 L24,5.9587215 L19,6" id="Stroke-3" stroke="#546979" stroke-linecap="round" stroke-linejoin="round"></path>
                    <path d="M4.09490209,26 L3,21.0397637 L8,21" id="Stroke-4" stroke="#546979" stroke-linecap="round" stroke-linejoin="round"></path>
                    <path d="M12.4543947,20 L12.4543947,18.4014664 C11.5245992,18.385823 10.5616363,18.1002407 10,17.7051548 L10.3858485,16.6435887 C10.9644371,17.0244865 11.7965727,17.324257 12.6961489,17.324257 C13.8348996,17.324257 14.6051225,16.6748755 14.6051225,15.7722897 C14.6051225,14.9013545 13.9789939,14.3625679 12.7927032,13.8878099 C11.1575456,13.2540718 10.1455685,12.5264734 10.1455685,11.1480383 C10.1455685,9.83363184 11.0926847,8.83609448 12.5682698,8.59853361 L12.5682698,7 L13.5629261,7 L13.5629261,8.53632395 C14.524415,8.56724688 15.1826055,8.82045111 15.647319,9.0903901 L15.2470978,10.1348576 C14.9102635,9.94459059 14.2509674,9.59643477 13.2246177,9.59643477 C11.9896812,9.59643477 11.5245992,10.3251245 11.5245992,10.9577713 C11.5245992,11.7803213 12.1175603,12.1925057 13.5139119,12.7625791 C15.1667588,13.427604 16,14.2516091 16,15.6602395 C16,16.9106173 15.1177446,18.0831421 13.4648977,18.3516259 L13.4648977,19.9970896 L12.4543947,19.9970896 L12.4543947,20 Z" id="Fill-5" fill="#73C9C9"></path>
                </g>
                <path d="M40.5,1.40841579 L40.5,135.408417" id="Line-Copy-21" stroke="#546979" stroke-linecap="round" stroke-linejoin="round" stroke-dasharray="2,4" sketch:type="MSShapeGroup"></path>
            </g>
        </g>
    </g>
</svg>