<?xml version="1.0" encoding="UTF-8" standalone="no"?>
<svg width="72px" height="72px" viewBox="0 0 72 72" version="1.1" xmlns="http://www.w3.org/2000/svg" xmlns:xlink="http://www.w3.org/1999/xlink" xmlns:sketch="http://www.bohemiancoding.com/sketch/ns">
    <!-- Generator: Sketch 3.3.1 (12002) - http://www.bohemiancoding.com/sketch -->
    <title>icon-soon</title>
    <desc>Created with Sketch.</desc>
    <defs>
        <filter x="-50%" y="-50%" width="200%" height="200%" filterUnits="objectBoundingBox" id="filter-1">
            <feOffset dx="0" dy="1" in="SourceAlpha" result="shadowOffsetInner1"></feOffset>
            <feGaussianBlur stdDeviation="1" in="shadowOffsetInner1" result="shadowBlurInner1"></feGaussianBlur>
            <feComposite in="shadowBlurInner1" in2="SourceAlpha" operator="arithmetic" k2="-1" k3="1" result="shadowInnerInner1"></feComposite>
            <feColorMatrix values="0 0 0 0 0   0 0 0 0 0   0 0 0 0 0  0 0 0 0.35 0" in="shadowInnerInner1" type="matrix" result="shadowMatrixInner1"></feColorMatrix>
            <feMerge>
                <feMergeNode in="SourceGraphic"></feMergeNode>
                <feMergeNode in="shadowMatrixInner1"></feMergeNode>
            </feMerge>
        </filter>
        <filter x="-50%" y="-50%" width="200%" height="200%" filterUnits="objectBoundingBox" id="filter-2">
            <feOffset dx="-1" dy="1" in="SourceAlpha" result="shadowOffsetOuter1"></feOffset>
            <feGaussianBlur stdDeviation="0.5" in="shadowOffsetOuter1" result="shadowBlurOuter1"></feGaussianBlur>
            <feColorMatrix values="0 0 0 0 0.811764717   0 0 0 0 0.847058833   0 0 0 0 0.862745106  0 0 0 0.62977808 0" in="shadowBlurOuter1" type="matrix" result="shadowMatrixOuter1"></feColorMatrix>
            <feMerge>
                <feMergeNode in="shadowMatrixOuter1"></feMergeNode>
                <feMergeNode in="SourceGraphic"></feMergeNode>
            </feMerge>
        </filter>
    </defs>
    <g id="Website" stroke="none" stroke-width="1" fill="none" fill-rule="evenodd" sketch:type="MSPage">
        <g id="128" sketch:type="MSArtboardGroup" transform="translate(-29.000000, -30.000000)">
            <g id="icon-soon" sketch:type="MSLayerGroup" transform="translate(29.000000, 30.000000)">
                <polygon id="Star-1" fill="#FFFFFF" filter="url(#filter-1)" sketch:type="MSShapeGroup" points="36 69.3570205 33.5954652 71.9196076 31.5539443 69.0593921 28.8293045 71.2786214 27.1872286 68.1718181 24.1911051 70.0080873 22.9777769 66.7101372 19.7636357 68.1306781 19.0007072 64.7004332 15.6259046 65.6798962 15.3269902 62.1785692 11.8517497 62.6994758 12.0221836 59.1895481 8.50852092 59.2426027 9.1452617 55.7867089 5.65587823 55.3709647 6.74756323 52.0307755 3.34472711 51.1536514 4.87187518 47.9887725 1.6163101 46.6659209 3.55166926 43.7328295 0.501470856 41.9878568 2.81050458 39.338894 0.0201037057 37.2029392 2.66160722 34.8853759 0.180798657 32.3965551 3.10763428 30.4517483 0.980688104 27.6544746 4.14062638 26.1171294 2.405498 23.0613202 5.74214975 21.9588705 4.42980258 18.6990568 7.88362518 18.0511759 7.01747809 14.6455292 10.526838 14.4637785 10.1223474 10.9730726 13.62462 11.2606955 13.689004 7.74722213 17.1216911 8.49908593 17.6538009 5.02554315 20.9556462 6.22823085 21.9459861 2.85660408 25.0580681 4.4886537 26.4889655 1.2791097 29.355749 3.31139727 31.2016696 0.321210426 33.7719967 2.71746973 36 0 38.2280033 2.71746973 40.7983304 0.321210426 42.644251 3.31139727 45.5110345 1.2791097 46.9419319 4.4886537 50.0540139 2.85660408 51.0443538 6.22823085 54.3461991 5.02554315 54.8783089 8.49908593 58.310996 7.74722213 58.37538 11.2606955 61.8776526 10.9730726 61.473162 14.4637785 64.9825219 14.6455292 64.1163748 18.0511759 67.5701974 18.6990568 66.2578502 21.9588705 69.594502 23.0613202 67.8593736 26.1171294 71.0193119 27.6544746 68.8923657 30.4517483 71.8192013 32.3965551 69.3383928 34.8853759 71.9798963 37.2029392 69.1894954 39.338894 71.4985291 41.9878568 68.4483307 43.7328295 70.3836899 46.6659209 67.1281248 47.9887725 68.6552729 51.1536514 65.2524368 52.0307755 66.3441218 55.3709647 62.8547383 55.7867089 63.4914791 59.2426027 59.9778164 59.1895481 60.1482503 62.6994758 56.6730098 62.1785692 56.3740954 65.6798962 52.9992928 64.7004332 52.2363643 68.1306781 49.0222231 66.7101372 47.8088949 70.0080873 44.8127714 68.1718181 43.1706955 71.2786214 40.4460557 69.0593921 38.4045348 71.9196076 "></polygon>
                <path d="M16.1255172,28.342069 C13.742069,28.342069 11.8675862,30.08 11.8675862,32.6248276 C11.8675862,35.1696552 13.742069,36.9075862 16.1255172,36.9075862 C17.3668965,36.9075862 18.2482759,36.4110345 18.8937931,35.7406897 C18.9806896,35.6413793 19.0303448,35.5172414 19.0303448,35.3931034 C19.0303448,35.1324138 18.8317241,34.8841379 18.5462069,34.8841379 C18.422069,34.8841379 18.2855172,34.9462069 18.1986207,35.0455172 C17.6772414,35.6537931 16.9075862,35.9889655 16.1255172,35.9889655 C14.3131034,35.9889655 12.9351724,34.5862069 12.9351724,32.6248276 C12.9351724,30.6510345 14.3131034,29.2606897 16.1255172,29.2606897 C16.8951724,29.2606897 17.7144828,29.6331034 18.1986207,30.2165517 C18.2855172,30.3282759 18.422069,30.377931 18.5462069,30.377931 C18.8193103,30.377931 19.0303448,30.142069 19.0303448,29.8813793 C19.0303448,29.7448276 18.9806896,29.6206897 18.8937931,29.5213793 C18.2606896,28.8386207 17.3668965,28.342069 16.1255172,28.342069 L16.1255172,28.342069 Z M28.6427586,32.6248276 C28.6427586,30.1793103 26.9793103,28.342069 24.5337931,28.342069 C22.0758621,28.342069 20.4248276,30.1793103 20.4248276,32.6248276 C20.4248276,35.0703448 22.0758621,36.9075862 24.5337931,36.9075862 C26.9793103,36.9075862 28.6427586,35.0703448 28.6427586,32.6248276 L28.6427586,32.6248276 Z M27.5751724,32.6248276 C27.5751724,34.5489655 26.3834483,35.9889655 24.5337931,35.9889655 C22.6717241,35.9889655 21.4924138,34.5489655 21.4924138,32.6248276 C21.4924138,30.6882759 22.6717241,29.2606897 24.5337931,29.2606897 C26.3834483,29.2606897 27.5751724,30.6882759 27.5751724,32.6248276 L27.5751724,32.6248276 Z M38.5282759,36.3241379 L38.5282759,29.2482759 C38.5282759,28.8013793 38.1434483,28.4165517 37.6717241,28.4165517 C37.3241379,28.4165517 36.9889655,28.6151724 36.8524138,28.937931 L34.4689655,34.7103448 L32.097931,28.937931 C31.9613793,28.6151724 31.6137931,28.4165517 31.2786207,28.4165517 C30.8068965,28.4165517 30.422069,28.8013793 30.422069,29.2482759 L30.422069,36.3241379 C30.422069,36.6096552 30.6455172,36.8331034 30.9310345,36.8331034 C31.2289655,36.8331034 31.4524138,36.6096552 31.4524138,36.3241379 L31.4524138,29.9434483 L34.2206897,36.6717241 C34.257931,36.7710345 34.3572414,36.8331034 34.4565517,36.8331034 C34.5806897,36.8331034 34.68,36.7710345 34.7172414,36.6717241 L37.497931,29.9434483 L37.497931,36.3241379 C37.497931,36.6096552 37.7213793,36.8331034 38.0068965,36.8331034 C38.3048276,36.8331034 38.5282759,36.6096552 38.5282759,36.3241379 L38.5282759,36.3241379 Z M41.6606897,36.3241379 L41.6606897,28.9006897 C41.6606897,28.6275862 41.4372414,28.4041379 41.1641379,28.4041379 C40.8537931,28.4041379 40.6303448,28.6275862 40.6303448,28.9006897 L40.6303448,36.3241379 C40.6303448,36.6096552 40.8537931,36.8331034 41.1393103,36.8331034 C41.4372414,36.8331034 41.6606897,36.6096552 41.6606897,36.3241379 L41.6606897,36.3241379 Z M50.6151724,36.2496552 L50.6151724,28.9006897 C50.6151724,28.6275862 50.3917241,28.4041379 50.1186207,28.4041379 C49.8082759,28.4041379 49.5848276,28.6275862 49.5848276,28.9006897 L49.5848276,34.9462069 L44.9668966,28.6772414 C44.8427586,28.5034483 44.6317241,28.4041379 44.4206897,28.4041379 C44.0358621,28.4041379 43.7627586,28.702069 43.7627586,29.0248276 L43.7627586,36.3241379 C43.7627586,36.6096552 43.9862069,36.8331034 44.2717241,36.8331034 C44.5696552,36.8331034 44.7931035,36.6096552 44.7931035,36.3241379 L44.7931035,30.1544828 L49.4855172,36.5724138 C49.5972414,36.7337931 49.7958621,36.8331034 49.9944828,36.8331034 C50.3668966,36.8331034 50.6151724,36.5475862 50.6151724,36.2496552 L50.6151724,36.2496552 Z M59.8924138,34.8841379 L59.8924138,33.2455172 C59.8924138,32.8358621 59.5572414,32.5006897 59.1475862,32.5006897 L56.3917241,32.5006897 C56.1434483,32.5006897 55.9448276,32.6993103 55.9448276,32.9475862 C55.9448276,33.2206897 56.1434483,33.4193103 56.3917241,33.4193103 L58.862069,33.4193103 L58.862069,35.1075862 C58.4524138,35.5172414 57.6331035,36.0013793 56.64,36.0013793 C54.8275862,36.0013793 53.4496552,34.5862069 53.4496552,32.6248276 C53.4496552,30.6510345 54.8275862,29.2606897 56.64,29.2606897 C57.4593103,29.2606897 58.2910345,29.5958621 58.8124138,30.1544828 C58.9117241,30.2537931 59.0234483,30.3034483 59.1475862,30.3034483 C59.4206897,30.3034483 59.6193103,30.0924138 59.6193103,29.8193103 C59.6193103,29.6951724 59.582069,29.5586207 59.4827586,29.4717241 C58.8248276,28.8137931 57.8813793,28.342069 56.64,28.342069 C54.2813793,28.342069 52.382069,30.0551724 52.382069,32.6248276 C52.382069,35.1944828 54.2813793,36.92 56.64,36.92 C58.1048276,36.92 59.8924138,36.1627586 59.8924138,34.8841379 L59.8924138,34.8841379 Z M24.8441379,46.4055172 C24.8441379,43.3144828 19.9406897,44.382069 19.9406897,42.52 C19.9406897,41.737931 20.6482759,41.2041379 21.6413793,41.2041379 C22.3986207,41.2041379 23.1558621,41.4275862 23.7641379,41.9241379 C23.8510345,41.9986207 23.9627586,42.0358621 24.062069,42.0358621 C24.3351724,42.0358621 24.5462069,41.7875862 24.5462069,41.5393103 C24.5462069,41.4027586 24.4841379,41.2662069 24.3724138,41.1668966 C23.702069,40.6082759 22.7834483,40.2855172 21.7158621,40.2855172 C20.0896552,40.2855172 18.8731034,41.2165517 18.8731034,42.582069 C18.8731034,45.5365517 23.7765517,44.3572414 23.7765517,46.4924138 C23.7765517,47.1255172 23.3048276,47.92 21.8275862,47.92 C20.8717241,47.92 20.0772414,47.5227586 19.5062069,47.0137931 C19.4193103,46.9393103 19.3075862,46.9144828 19.2082759,46.9144828 C18.9103448,46.9144828 18.7241379,47.1875862 18.7241379,47.4358621 C18.7241379,47.5724138 18.7737931,47.7089655 18.8855172,47.8082759 C19.5931034,48.4289655 20.5613793,48.8386207 21.7903448,48.8386207 C24.0248276,48.8386207 24.8441379,47.6096552 24.8441379,46.4055172 L24.8441379,46.4055172 Z M34.4317241,44.5558621 C34.4317241,42.1103448 32.7682759,40.2731034 30.3227586,40.2731034 C27.8648276,40.2731034 26.2137931,42.1103448 26.2137931,44.5558621 C26.2137931,47.0013793 27.8648276,48.8386207 30.3227586,48.8386207 C32.7682759,48.8386207 34.4317241,47.0013793 34.4317241,44.5558621 L34.4317241,44.5558621 Z M33.3641379,44.5558621 C33.3641379,46.48 32.1724138,47.92 30.3227586,47.92 C28.4606897,47.92 27.2813793,46.48 27.2813793,44.5558621 C27.2813793,42.6193103 28.4606897,41.1917241 30.3227586,41.1917241 C32.1724138,41.1917241 33.3641379,42.6193103 33.3641379,44.5558621 L33.3641379,44.5558621 Z M44.0937931,44.5558621 C44.0937931,42.1103448 42.4303448,40.2731034 39.9848276,40.2731034 C37.5268966,40.2731034 35.8758621,42.1103448 35.8758621,44.5558621 C35.8758621,47.0013793 37.5268966,48.8386207 39.9848276,48.8386207 C42.4303448,48.8386207 44.0937931,47.0013793 44.0937931,44.5558621 L44.0937931,44.5558621 Z M43.0262069,44.5558621 C43.0262069,46.48 41.8344828,47.92 39.9848276,47.92 C38.1227586,47.92 36.9434483,46.48 36.9434483,44.5558621 C36.9434483,42.6193103 38.1227586,41.1917241 39.9848276,41.1917241 C41.8344828,41.1917241 43.0262069,42.6193103 43.0262069,44.5558621 L43.0262069,44.5558621 Z M52.7255172,48.1806897 L52.7255172,40.8317241 C52.7255172,40.5586207 52.502069,40.3351724 52.2289655,40.3351724 C51.9186207,40.3351724 51.6951724,40.5586207 51.6951724,40.8317241 L51.6951724,46.8772414 L47.0772414,40.6082759 C46.9531035,40.4344828 46.742069,40.3351724 46.5310345,40.3351724 C46.1462069,40.3351724 45.8731035,40.6331034 45.8731035,40.9558621 L45.8731035,48.2551724 C45.8731035,48.5406897 46.0965517,48.7641379 46.382069,48.7641379 C46.68,48.7641379 46.9034483,48.5406897 46.9034483,48.2551724 L46.9034483,42.0855172 L51.5958621,48.5034483 C51.7075862,48.6648276 51.9062069,48.7641379 52.1048276,48.7641379 C52.4772414,48.7641379 52.7255172,48.4786207 52.7255172,48.1806897 L52.7255172,48.1806897 Z" id="COMING" fill="#1998D1" filter="url(#filter-2)" sketch:type="MSShapeGroup"></path>
            </g>
        </g>
    </g>
</svg>