<?xml version="1.0" encoding="UTF-8" standalone="no"?>
<svg width="100px" height="154px" viewBox="0 0 100 154" version="1.1" xmlns="http://www.w3.org/2000/svg" xmlns:xlink="http://www.w3.org/1999/xlink" xmlns:sketch="http://www.bohemiancoding.com/sketch/ns">
    <!-- Generator: Sketch 3.2 (9961) - http://www.bohemiancoding.com/sketch -->
    <title>Artboard 17</title>
    <desc>Created with Sketch.</desc>
    <defs></defs>
    <g id="Page-1" stroke="none" stroke-width="1" fill="none" fill-rule="evenodd" sketch:type="MSPage">
        <g id="Artboard-17" sketch:type="MSArtboardGroup">
            <g id="BTS-Blue-Tag-Logo-Icon-Top" sketch:type="MSLayerGroup" transform="translate(0.000000, -1.000000)">
                <g id="Group" sketch:type="MSShapeGroup">
                    <g id="BTS-blue-tag-icon-top">
                        <path d="M0.101955224,0.200145631 L99.2749104,0.200145631 L99.2749104,154.890146 L0.101955224,154.890146 L0.101955224,0.200145631 Z" id="Fill-1" fill="#189FCE"></path>
                        <path d="M31.1240299,88.9323786 L31.1240299,104.439903 L42.9425373,104.439903 C43.1249403,103.48432 43.5063284,102.597961 44.0414776,101.827476 L31.1240299,88.9323786" id="Fill-2" fill="#FFFFFF"></path>
                        <path d="M31.1240299,107.010194 C31.4074328,111.177136 33.0701642,114.999466 35.6750597,117.974563 L44.0384627,109.627136 C43.5033134,108.853641 43.1234328,107.967282 42.9425373,107.010194 L31.1240299,107.010194" id="Fill-3" fill="#FFFFFF"></path>
                        <path d="M61.9441045,91.7208738 C58.9623433,89.1204854 55.1650448,87.4606311 50.9592239,87.1777184 L50.9592239,98.9923301 C51.9089254,99.1699029 52.7892836,99.5385922 53.5565821,100.062282 L61.9441045,91.7208738" id="Fill-4" fill="#FFFFFF"></path>
                        <path d="M55.4740746,109.417961 L63.8585821,117.786456 C66.3685075,114.841456 68.0010896,111.08233 68.2829851,106.978592 L56.4403582,106.978592 C56.2760448,107.863447 55.9428955,108.686602 55.4740746,109.417961" id="Fill-5" fill="#FFFFFF"></path>
                        <path d="M68.2829851,104.471505 C68.0010896,100.304563 66.3368507,96.482233 63.7319552,93.5071359 L55.3625224,101.862087 C55.8901343,102.634078 56.2609701,103.518932 56.4388507,104.471505 L68.2829851,104.471505" id="Fill-6" fill="#FFFFFF"></path>
                        <path d="M37.4644179,119.760825 C40.4461791,122.361214 44.2434776,124.021068 48.4492985,124.303981 L48.4492985,112.469806 C47.5011045,112.298252 46.6207463,111.937087 45.8519403,111.419417 L37.4644179,119.760825" id="Fill-7" fill="#FFFFFF"></path>
                        <path d="M50.9592239,124.303981 C55.1650448,124.021068 58.9623433,122.361214 61.9441045,119.760825 L53.5611045,111.39233 C52.7922985,111.917524 51.9104328,112.287718 50.9592239,112.465291 L50.9592239,124.303981" id="Fill-8" fill="#FFFFFF"></path>
                        <path d="M48.4176418,79.5962621 L31.0938806,64.2136408 C31.1240299,64.2136408 31.1240299,84.5457282 31.1240299,85.0784466 C34.2866866,88.2657282 44.1500149,98.1119903 45.9936418,99.9524272 C46.7202388,99.488932 47.538791,99.1563592 48.4176418,98.9923301 L48.4176418,79.5962621" id="Fill-9" fill="#FFFFFF"></path>
                    </g>
                </g>
            </g>
        </g>
    </g>
</svg>