<?xml version="1.0" encoding="UTF-8" standalone="no"?>
<svg width="260px" height="205px" viewBox="0 0 260 205" version="1.1" xmlns="http://www.w3.org/2000/svg" xmlns:xlink="http://www.w3.org/1999/xlink" xmlns:sketch="http://www.bohemiancoding.com/sketch/ns">
    <!-- Generator: Sketch 3.3.3 (12072) - http://www.bohemiancoding.com/sketch -->
    <title>logo-icon</title>
    <desc>Created with Sketch.</desc>
    <defs>
        <linearGradient x1="50%" y1="0%" x2="84.9968468%" y2="125.965848%" id="linearGradient-1">
            <stop stop-color="#145C9E" offset="0%"></stop>
            <stop stop-color="#2A324B" offset="100%"></stop>
        </linearGradient>
        <linearGradient x1="0%" y1="43.6567922%" x2="76.4011466%" y2="73.7251355%" id="linearGradient-2">
            <stop stop-color="#B86204" offset="0%"></stop>
            <stop stop-color="#F59C3B" offset="43.0803571%"></stop>
            <stop stop-color="#F9A03E" offset="53.4437947%"></stop>
            <stop stop-color="#B25D00" offset="100%"></stop>
        </linearGradient>
        <linearGradient x1="50%" y1="0%" x2="84.9968468%" y2="125.965848%" id="linearGradient-3">
            <stop stop-color="#F9A03E" offset="0%"></stop>
            <stop stop-color="#B25D00" offset="100%"></stop>
        </linearGradient>
        <filter x="-50%" y="-50%" width="200%" height="200%" filterUnits="objectBoundingBox" id="filter-4">
            <feOffset dx="-2" dy="2" in="SourceAlpha" result="shadowOffsetOuter1"></feOffset>
            <feGaussianBlur stdDeviation="1" in="shadowOffsetOuter1" result="shadowBlurOuter1"></feGaussianBlur>
            <feColorMatrix values="0 0 0 0 0.650403912   0 0 0 0 0.644501414   0 0 0 0 0.644501414  0 0 0 0.220275702 0" in="shadowBlurOuter1" type="matrix" result="shadowMatrixOuter1"></feColorMatrix>
            <feMerge>
                <feMergeNode in="shadowMatrixOuter1"></feMergeNode>
                <feMergeNode in="SourceGraphic"></feMergeNode>
            </feMerge>
        </filter>
        <filter x="-50%" y="-50%" width="200%" height="200%" filterUnits="objectBoundingBox" id="filter-5">
            <feOffset dx="-2" dy="2" in="SourceAlpha" result="shadowOffsetOuter1"></feOffset>
            <feGaussianBlur stdDeviation="1" in="shadowOffsetOuter1" result="shadowBlurOuter1"></feGaussianBlur>
            <feColorMatrix values="0 0 0 0 0   0 0 0 0 0   0 0 0 0 0  0 0 0 0.110920516 0" in="shadowBlurOuter1" type="matrix" result="shadowMatrixOuter1"></feColorMatrix>
            <feMerge>
                <feMergeNode in="shadowMatrixOuter1"></feMergeNode>
                <feMergeNode in="SourceGraphic"></feMergeNode>
            </feMerge>
        </filter>
    </defs>
    <g id="Social" stroke="none" stroke-width="1" fill="none" fill-rule="evenodd" sketch:type="MSPage">
        <g id="cnx_logo_typo" sketch:type="MSArtboardGroup" transform="translate(-120.000000, -155.000000)">
            <g id="logo-icon" sketch:type="MSLayerGroup" transform="translate(124.000000, 155.000000)">
                <g id="Group-Copy-+-CRYPTONOMEX" transform="translate(72.056738, 0.000000)" sketch:type="MSShapeGroup">
                    <g id="Group-Copy">
                        <path d="M19.2558237,108.679658 L32.7996933,86.8922599 L39.1430247,97.5286273 L25.5117183,119.240541 L19.2558237,108.679658 Z" id="Path" fill="url(#linearGradient-1)"></path>
                        <path d="M28.4373741,-2.49287906 L51.5819614,9.01110468 L51.1130517,111.448705 L28.4373741,100.205326 L28.4373741,-2.49287906 Z" id="Rectangle-6" fill="#145C9E" transform="translate(40.009668, 54.477913) rotate(32.000000) translate(-40.009668, -54.477913) "></path>
                        <path d="M50.701866,30.6562205 L74.0409756,42.7239837 L74.0409756,118.245137 L50.896143,133.109503 L50.701866,30.6562205 Z" id="Rectangle-6-Copy-2" fill="#145C9E" transform="translate(62.371421, 81.882862) rotate(32.000000) translate(-62.371421, -81.882862) "></path>
                        <path d="M79.4317508,76.5990011 L92.9756204,54.8116032 L99.3189517,65.4479707 L85.7750821,87.1495914 L79.4317508,76.5990011 Z" id="Path" fill="url(#linearGradient-2)"></path>
                        <path d="M80.7957716,66.6967071 L103.805653,78.8660091 L103.805653,115.224829 L80.6610655,130.088526 L80.7957716,66.6967071 Z" id="Rectangle-6-Copy" fill="url(#linearGradient-3)" transform="translate(92.233359, 98.392617) rotate(32.000000) translate(-92.233359, -98.392617) "></path>
                    </g>
                </g>
                <g id="CRYPTO-+-NOMEX" transform="translate(0.000000, 179.370424)" stroke-linecap="round" sketch:type="MSShapeGroup" stroke-linejoin="round">
                    <path d="M143.174307,19.8392857 L143.174307,2.63494553 L155.058913,19.8392857 L155.470501,19.8392857 L155.470501,1.81078552 L155.084638,1.81078552 L155.084638,19.1181457 L143.122859,1.81078552 L142.762719,1.78503052 L142.762719,19.8392857 L143.174307,19.8392857 Z M183.596912,10.8250356 C183.596912,13.2717606 182.619391,15.4609357 181.050211,17.0577457 C179.455307,18.6803107 177.243021,19.6847557 174.824941,19.6847557 C172.406861,19.6847557 170.2203,18.6803107 168.625396,17.0577457 C167.056216,15.4609357 166.05297,13.2717606 166.05297,10.8250356 C166.05297,8.37831059 167.056216,6.18913557 168.625396,4.59232555 C170.2203,2.96976054 172.406861,1.96531553 174.824941,1.96531553 C177.243021,1.96531553 179.455307,2.96976054 181.050211,4.59232555 C182.619391,6.18913557 183.596912,8.37831059 183.596912,10.8250356 L183.596912,10.8250356 Z M165.641382,10.8250356 C165.641382,13.3747806 166.696077,15.6927307 168.342429,17.3668057 C169.988781,19.0666357 172.303964,20.0968357 174.824941,20.0968357 C177.371643,20.0968357 179.661101,19.0666357 181.333178,17.3668057 C182.97953,15.6927307 184.034225,13.3747806 184.034225,10.8250356 C184.034225,8.27529059 182.97953,5.95734057 181.333178,4.28326555 C179.661101,2.58343553 177.371643,1.55323552 174.824941,1.55323552 C172.303964,1.55323552 169.988781,2.58343553 168.342429,4.28326555 C166.696077,5.95734057 165.641382,8.27529059 165.641382,10.8250356 L165.641382,10.8250356 Z M194.616694,2.40315053 L201.948106,13.3232706 L202.282522,13.3232706 L209.613935,2.40315053 L209.613935,19.8392857 L209.999798,19.8392857 L209.999798,1.81078552 L209.58821,1.81078552 L202.102452,12.8596806 L194.642418,1.81078552 L194.23083,1.81078552 L194.23083,19.8392857 L194.616694,19.8392857 L194.616694,2.40315053 Z M221.251098,11.0310756 L230.563278,11.0310756 L230.563278,10.6189956 L221.251098,10.6189956 L221.251098,2.22286553 L230.769072,2.22286553 L230.769072,1.83654052 L220.83951,1.83654052 L220.83951,19.8392857 L220.890958,19.8392857 L230.820521,19.8392857 L230.820521,19.4529607 L221.251098,19.4529607 L221.251098,11.0310756 Z M240.168225,1.83654052 L246.676462,10.8507906 L240.168225,19.8392857 L240.656986,19.8392857 L246.90798,11.1856056 L253.184699,19.8392857 L253.647735,19.8392857 L247.139499,10.8507906 L253.647735,1.83654052 L253.184699,1.83654052 L246.90798,10.4902206 L240.656986,1.83654052 L240.168225,1.83654052 Z" id="NOMEX" stroke="url(#linearGradient-3)" stroke-width="1.80000007" fill="url(#linearGradient-3)" filter="url(#filter-4)"></path>
                    <path d="M0.0771727668,10.8765456 C0.0771727668,13.3747806 1.10614299,15.6412207 2.64959833,17.2895407 C4.21877792,18.9378607 6.4310639,19.9680607 8.87486818,19.9680607 C13.0679218,19.9680607 16.3606266,17.1865207 17.3895968,13.0914756 L14.8428955,13.0914756 C13.9168223,15.8215057 11.6016393,17.3925607 8.87486818,17.3925607 C7.15134305,17.3925607 5.58216346,16.6456657 4.45029622,15.4609357 C3.31842897,14.2762057 2.59814981,12.6793956 2.59814981,10.8765456 C2.59814981,9.0221856 3.31842897,7.42537558 4.45029622,6.24064557 C5.58216346,5.05591556 7.15134305,4.30902055 8.87486818,4.30902055 C11.5244665,4.30902055 13.7367525,5.67403557 14.6885499,8.37831059 L17.2609755,8.37831059 C16.2320053,4.30902055 12.9907491,1.73352052 8.87486818,1.73352052 C6.4310639,1.73352052 4.21877792,2.78947553 2.64959833,4.41204055 C1.10614299,6.06036057 0.0771727668,8.32680059 0.0771727668,10.8765456 L0.0771727668,10.8765456 Z M30.6473881,11.9325006 L37.2070733,19.8392857 L40.5769508,19.8392857 L34.8918903,13.0657206 C37.978801,12.5248656 39.5479806,10.1038956 39.5479806,7.55415059 C39.5479806,4.69534555 37.5929371,1.81078552 33.6828503,1.81078552 L27.1231651,1.81078552 L27.1231651,19.8392857 L29.6955907,19.8392857 L29.6955907,4.43779555 L33.6828503,4.43779555 C35.869412,4.43779555 36.9498307,6.00885057 36.9498307,7.55415059 C36.9498307,9.1252056 35.869412,10.6962606 33.6828503,10.6962606 L30.6473881,10.6962606 L30.6473881,11.9325006 Z M46.8377446,1.83654052 L53.5003268,12.4991106 L53.5003268,19.8392857 L56.1242009,19.8392857 L56.1242009,12.4991106 L62.8125073,1.83654052 L59.7255967,1.83654052 L54.8122638,9.74332561 L49.898931,1.83654052 L46.8377446,1.83654052 Z M71.4913812,1.81078552 L71.4913812,19.8392857 L74.1152552,19.8392857 L74.1152552,13.8383707 L78.0767906,13.8383707 C81.9611532,13.8383707 83.9161966,10.8507906 83.9161966,7.83745559 C83.9161966,4.82412056 81.9611532,1.81078552 78.0767906,1.81078552 L71.4913812,1.81078552 Z M74.1152552,11.2628706 L74.1152552,4.43779555 L78.0767906,4.43779555 C80.2633523,4.43779555 81.3437711,6.13762557 81.3437711,7.86321059 C81.3437711,9.56304061 80.2633523,11.2628706 78.0767906,11.2628706 L74.1152552,11.2628706 Z M100.363796,19.9165507 L100.363796,4.43779555 L105.791614,4.43779555 L105.791614,1.81078552 L92.3121037,1.81078552 L92.3121037,4.43779555 L97.7656459,4.43779555 L97.7656459,19.9165507 L100.363796,19.9165507 Z M129.570625,10.8250356 C129.570625,12.6793956 128.824622,14.3019607 127.667031,15.4866907 C126.457991,16.6971757 124.785914,17.4440707 123.01094,17.4440707 C121.235967,17.4440707 119.589614,16.6971757 118.406299,15.4866907 C117.222983,14.3019607 116.476979,12.6536406 116.476979,10.8250356 C116.476979,8.9964306 117.222983,7.34811058 118.406299,6.16338057 C119.589614,4.95289556 121.235967,4.20600055 123.01094,4.20600055 C124.785914,4.20600055 126.457991,4.95289556 127.667031,6.16338057 C128.824622,7.34811058 129.570625,8.9706756 129.570625,10.8250356 L129.570625,10.8250356 Z M113.853105,10.8250356 C113.853105,13.3747806 114.9078,15.6669757 116.528428,17.3410507 C118.17478,19.0408807 120.489963,20.0710807 123.01094,20.0710807 C125.557642,20.0710807 127.8471,19.0408807 129.519177,17.3410507 C131.139805,15.6669757 132.1945,13.3747806 132.1945,10.8250356 C132.1945,8.27529059 131.139805,5.98309557 129.519177,4.30902055 C127.8471,2.63494553 125.557642,1.57899052 123.01094,1.57899052 C120.489963,1.57899052 118.17478,2.63494553 116.528428,4.30902055 C114.9078,5.98309557 113.853105,8.27529059 113.853105,10.8250356 L113.853105,10.8250356 Z" id="CRYPTO" stroke="#145C9E" stroke-width="0.900000036" fill="#145C9E" filter="url(#filter-5)"></path>
                </g>
            </g>
        </g>
    </g>
</svg>