<?xml version="1.0" encoding="UTF-8" standalone="no"?>
<svg width="89px" height="59px" viewBox="0 0 89 59" version="1.1" xmlns="http://www.w3.org/2000/svg" xmlns:xlink="http://www.w3.org/1999/xlink" xmlns:sketch="http://www.bohemiancoding.com/sketch/ns">
    <!-- Generator: Sketch 3.2 (9961) - http://www.bohemiancoding.com/sketch -->
    <title>yunbi-icon</title>
    <desc>Created with Sketch.</desc>
    <defs></defs>
    <g id="Page-1" stroke="none" stroke-width="1" fill="none" fill-rule="evenodd" sketch:type="MSPage">
        <g id="yunbi-icon" sketch:type="MSLayerGroup">
            <g id="Group" sketch:type="MSShapeGroup">
                <path d="M76.3,38.8 L70.4,48.9 L57.4,48.9 L47.8,58.7 L78.9,58.7 L88.8,36.5 L76.3,38.8 Z" id="Shape" fill="#0091D1"></path>
                <path d="M68.7,31.7 L77.2,23.4 L88.8,36.5 L76.3,38.8 L68.7,31.7 Z" id="Shape" fill="#0080BB"></path>
                <path d="M12.6,36.9 L31.5,30.1 L21.9,21.7 L8,26.4 L12.6,36.9 Z" id="Shape" fill="#0091D1"></path>
                <path d="M64.5,20.2 L36.2,48.9 L20.1,48.9 L8,26.4 L0.1,37.2 L10.9,58.7 L27.6,58.7 L41.2,58.7 L77.2,23.4 L64.5,20.2 Z" id="Shape" fill="#00AEEB"></path>
                <path d="M49.5,10.5 L60.3,9.5 L62.5,16.2 L53.6,24.7 L49.5,10.5 Z" id="Shape" fill="#00AEEB"></path>
                <path d="M34.5,0.4 L33.3,11.9 L60.3,9.5 L53.1,0.4 L34.5,0.4 Z" id="Shape" fill="#0091D1"></path>
                <path d="M21.9,21.7 L31.5,30.1 L34.5,0.4 L23.3,10.4 L21.9,21.7 Z" id="Shape" fill="#00AEEB"></path>
            </g>
        </g>
    </g>
</svg>