<svg xmlns="http://www.w3.org/2000/svg" width="1920" height="1080"><path d="M43,-236L219,-225L352,-225Z" fill="#184f83" stroke="#184f83" stroke-width="1.51"/><path d="M43,-236L352,-225L959,-229Z" fill="#195187" stroke="#195187" stroke-width="1.51"/><path d="M658,-211L793,-215L959,-229Z" fill="#19568d" stroke="#19568d" stroke-width="1.51"/><path d="M352,-225L658,-211L959,-229Z" fill="#19548b" stroke="#19548b" stroke-width="1.51"/><path d="M1290,1278L1004,1274L1519,1307Z" fill="#176cab" stroke="#176cab" stroke-width="1.51"/><path d="M1004,1274L513,1313L1519,1307Z" fill="#1967a6" stroke="#1967a6" stroke-width="1.51"/><path d="M959,-229L1287,-167L1550,-186Z" fill="#165e95" stroke="#165e95" stroke-width="1.51"/><path d="M1738,1262L1519,1307L1945,1296Z" fill="#1969ab" stroke="#1969ab" stroke-width="1.51"/><path d="M43,-236L959,-229L1964,-231Z" fill="#17598f" stroke="#17598f" stroke-width="1.51"/><path d="M-217,-239L43,-236L1964,-231Z" fill="#195389" stroke="#195389" stroke-width="1.51"/><path d="M1649,-188L1777,-197L1964,-231Z" fill="#185b95" stroke="#185b95" stroke-width="1.51"/><path d="M1550,-186L1649,-188L1964,-231Z" fill="#175d95" stroke="#175d95" stroke-width="1.51"/><path d="M959,-229L1550,-186L1964,-231Z" fill="#165f95" stroke="#165f95" stroke-width="1.51"/><path d="M2071,253L2086,367L2096,70Z" fill="#1c5f9f" stroke="#1c5f9f" stroke-width="1.51"/><path d="M2086,367L2015,425L2099,543Z" fill="#1b64a4" stroke="#1b64a4" stroke-width="1.51"/><path d="M1945,1296L1519,1307L2103,1318Z" fill="#1a68ab" stroke="#1a68ab" stroke-width="1.51"/><path d="M2092,1082L2024,1105L2103,1318Z" fill="#1a68ab" stroke="#1a68ab" stroke-width="1.51"/><path d="M2096,70L2086,367L2123,-28Z" fill="#1b5d9c" stroke="#1b5d9c" stroke-width="1.51"/><path d="M2092,1082L2103,1318L2142,1003Z" fill="#1a68ab" stroke="#1a68ab" stroke-width="1.51"/><path d="M2016,1017L2142,1003L2162,878Z" fill="#186bac" stroke="#186bac" stroke-width="1.51"/><path d="M2142,1003L2103,1318L2162,878Z" fill="#1969ab" stroke="#1969ab" stroke-width="1.51"/><path d="M2123,-28L2086,367L2172,719Z" fill="#1c61a1" stroke="#1c61a1" stroke-width="1.51"/><path d="M2086,367L2099,543L2172,719Z" fill="#1a67a6" stroke="#1a67a6" stroke-width="1.51"/><path d="M1975,801L2162,878L2172,719Z" fill="#166dac" stroke="#166dac" stroke-width="1.51"/><path d="M2002,713L1975,801L2172,719Z" fill="#176dab" stroke="#176dab" stroke-width="1.51"/><path d="M2099,543L2002,713L2172,719Z" fill="#186aa9" stroke="#186aa9" stroke-width="1.51"/><path d="M1990,569L2002,713L2099,543Z" fill="#1869a8" stroke="#1869a8" stroke-width="1.51"/><path d="M1975,801L2016,1017L2162,878Z" fill="#176cac" stroke="#176cac" stroke-width="1.51"/><path d="M2024,1105L1945,1296L2103,1318Z" fill="#1a67ab" stroke="#1a67ab" stroke-width="1.51"/><path d="M2016,1017L2092,1082L2142,1003Z" fill="#196aac" stroke="#196aac" stroke-width="1.51"/><path d="M1978,239L2071,253L2096,70Z" fill="#1c5f9e" stroke="#1c5f9e" stroke-width="1.51"/><path d="M1958,88L1978,239L2096,70Z" fill="#1b5e9c" stroke="#1b5e9c" stroke-width="1.51"/><path d="M2078,-147L1929,-88L2123,-28Z" fill="#195b97" stroke="#195b97" stroke-width="1.51"/><path d="M1958,88L2096,70L2123,-28Z" fill="#1b5c9a" stroke="#1b5c9a" stroke-width="1.51"/><path d="M1929,-88L1958,88L2123,-28Z" fill="#1a5c99" stroke="#1a5c99" stroke-width="1.51"/><path d="M2015,425L1990,569L2099,543Z" fill="#1a66a5" stroke="#1a66a5" stroke-width="1.51"/><path d="M2071,253L1978,239L2086,367Z" fill="#1c60a0" stroke="#1c60a0" stroke-width="1.51"/><path d="M2016,1017L2024,1105L2092,1082Z" fill="#196aac" stroke="#196aac" stroke-width="1.51"/><path d="M1978,239L2015,425L2086,367Z" fill="#1b62a1" stroke="#1b62a1" stroke-width="1.51"/><path d="M1975,801L1867,941L2016,1017Z" fill="#166dac" stroke="#166dac" stroke-width="1.51"/><path d="M1964,-231L1929,-88L2078,-147Z" fill="#195a96" stroke="#195a96" stroke-width="1.51"/><path d="M1929,-88L1880,12L1958,88Z" fill="#195d99" stroke="#195d99" stroke-width="1.51"/><path d="M1990,569L1829,631L2002,713Z" fill="#176ba9" stroke="#176ba9" stroke-width="1.51"/><path d="M1978,239L1883,254L2015,425Z" fill="#1b62a0" stroke="#1b62a0" stroke-width="1.51"/><path d="M1883,254L1824,411L2015,425Z" fill="#1b64a2" stroke="#1b64a2" stroke-width="1.51"/><path d="M1824,411L1990,569L2015,425Z" fill="#1a66a4" stroke="#1a66a4" stroke-width="1.51"/><path d="M2016,1017L1851,1120L2024,1105Z" fill="#186aac" stroke="#186aac" stroke-width="1.51"/><path d="M1851,1120L1945,1296L2024,1105Z" fill="#1969ab" stroke="#1969ab" stroke-width="1.51"/><path d="M1867,941L1851,1120L2016,1017Z" fill="#186cac" stroke="#186cac" stroke-width="1.51"/><path d="M1958,88L1883,254L1978,239Z" fill="#1b609e" stroke="#1b609e" stroke-width="1.51"/><path d="M1824,411L1805,574L1990,569Z" fill="#1968a6" stroke="#1968a6" stroke-width="1.51"/><path d="M1829,631L1975,801L2002,713Z" fill="#166dab" stroke="#166dab" stroke-width="1.51"/><path d="M1805,574L1829,631L1990,569Z" fill="#186ba8" stroke="#186ba8" stroke-width="1.51"/><path d="M1851,1120L1780,1231L1945,1296Z" fill="#1969ac" stroke="#1969ac" stroke-width="1.51"/><path d="M1779,135L1883,254L1958,88Z" fill="#1a609e" stroke="#1a609e" stroke-width="1.51"/><path d="M1777,-197L1929,-88L1964,-231Z" fill="#185b95" stroke="#185b95" stroke-width="1.51"/><path d="M1779,843L1867,941L1975,801Z" fill="#156fad" stroke="#156fad" stroke-width="1.51"/><path d="M1829,631L1779,843L1975,801Z" fill="#156fac" stroke="#156fac" stroke-width="1.51"/><path d="M1880,12L1779,135L1958,88Z" fill="#195f9c" stroke="#195f9c" stroke-width="1.51"/><path d="M1780,1231L1738,1262L1945,1296Z" fill="#1a69ac" stroke="#1a69ac" stroke-width="1.51"/><path d="M1731,688L1779,843L1829,631Z" fill="#156fab" stroke="#156fab" stroke-width="1.51"/><path d="M1723,-49L1880,12L1929,-88Z" fill="#195d99" stroke="#195d99" stroke-width="1.51"/><path d="M1777,-197L1723,-49L1929,-88Z" fill="#185d97" stroke="#185d97" stroke-width="1.51"/><path d="M1723,940L1851,1120L1867,941Z" fill="#166dad" stroke="#166dad" stroke-width="1.51"/><path d="M1779,135L1725,206L1883,254Z" fill="#1a619e" stroke="#1a619e" stroke-width="1.51"/><path d="M1731,358L1824,411L1883,254Z" fill="#1a64a2" stroke="#1a64a2" stroke-width="1.51"/><path d="M1725,206L1731,358L1883,254Z" fill="#1b63a0" stroke="#1b63a0" stroke-width="1.51"/><path d="M1723,-49L1779,135L1880,12Z" fill="#195f9b" stroke="#195f9b" stroke-width="1.51"/><path d="M1723,-49L1674,52L1779,135Z" fill="#19609b" stroke="#19609b" stroke-width="1.51"/><path d="M1723,940L1661,1104L1851,1120Z" fill="#176dac" stroke="#176dac" stroke-width="1.51"/><path d="M1779,843L1723,940L1867,941Z" fill="#156fad" stroke="#156fad" stroke-width="1.51"/><path d="M1738,589L1805,574L1824,411Z" fill="#1869a6" stroke="#1869a6" stroke-width="1.51"/><path d="M1661,1104L1780,1231L1851,1120Z" fill="#186bac" stroke="#186bac" stroke-width="1.51"/><path d="M1731,358L1738,589L1824,411Z" fill="#1967a4" stroke="#1967a4" stroke-width="1.51"/><path d="M1805,574L1738,589L1829,631Z" fill="#176ba8" stroke="#176ba8" stroke-width="1.51"/><path d="M1738,589L1731,688L1829,631Z" fill="#166da9" stroke="#166da9" stroke-width="1.51"/><path d="M1731,358L1588,501L1738,589Z" fill="#1769a5" stroke="#1769a5" stroke-width="1.51"/><path d="M1706,884L1723,940L1779,843Z" fill="#146fad" stroke="#146fad" stroke-width="1.51"/><path d="M1649,-188L1723,-49L1777,-197Z" fill="#175d96" stroke="#175d96" stroke-width="1.51"/><path d="M1731,688L1706,884L1779,843Z" fill="#1371ad" stroke="#1371ad" stroke-width="1.51"/><path d="M1661,1104L1738,1262L1780,1231Z" fill="#186bac" stroke="#186bac" stroke-width="1.51"/><path d="M1674,52L1725,206L1779,135Z" fill="#19619d" stroke="#19619d" stroke-width="1.51"/><path d="M959,-229L1097,-177L1287,-167Z" fill="#175c92" stroke="#175c92" stroke-width="1.51"/><path d="M1572,1096L1661,1104L1723,940Z" fill="#166ead" stroke="#166ead" stroke-width="1.51"/><path d="M1725,206L1548,303L1731,358Z" fill="#1a64a1" stroke="#1a64a1" stroke-width="1.51"/><path d="M1514,816L1706,884L1731,688Z" fill="#1271ae" stroke="#1271ae" stroke-width="1.51"/><path d="M1523,675L1514,816L1731,688Z" fill="#1371ab" stroke="#1371ab" stroke-width="1.51"/><path d="M1523,675L1731,688L1738,589Z" fill="#156eaa" stroke="#156eaa" stroke-width="1.51"/><path d="M1588,501L1523,675L1738,589Z" fill="#166ca8" stroke="#166ca8" stroke-width="1.51"/><path d="M1661,1104L1519,1307L1738,1262Z" fill="#176bac" stroke="#176bac" stroke-width="1.51"/><path d="M1572,1096L1519,1307L1661,1104Z" fill="#166dac" stroke="#166dac" stroke-width="1.51"/><path d="M1649,-188L1558,-57L1723,-49Z" fill="#175e98" stroke="#175e98" stroke-width="1.51"/><path d="M1512,1009L1572,1096L1723,940Z" fill="#156fad" stroke="#156fad" stroke-width="1.51"/><path d="M1674,52L1509,135L1725,206Z" fill="#19629d" stroke="#19629d" stroke-width="1.51"/><path d="M1548,303L1588,501L1731,358Z" fill="#1867a3" stroke="#1867a3" stroke-width="1.51"/><path d="M1558,-57L1674,52L1723,-49Z" fill="#18609a" stroke="#18609a" stroke-width="1.51"/><path d="M1509,135L1548,303L1725,206Z" fill="#19639f" stroke="#19639f" stroke-width="1.51"/><path d="M1355,1271L1290,1278L1519,1307Z" fill="#166dac" stroke="#166dac" stroke-width="1.51"/><path d="M1706,884L1512,1009L1723,940Z" fill="#1470ad" stroke="#1470ad" stroke-width="1.51"/><path d="M1514,816L1512,1009L1706,884Z" fill="#1372ad" stroke="#1372ad" stroke-width="1.51"/><path d="M1548,303L1502,444L1588,501Z" fill="#1868a4" stroke="#1868a4" stroke-width="1.51"/><path d="M1550,-186L1558,-57L1649,-188Z" fill="#165f97" stroke="#165f97" stroke-width="1.51"/><path d="M1558,-57L1509,135L1674,52Z" fill="#18619b" stroke="#18619b" stroke-width="1.51"/><path d="M1287,-167L1436,-141L1550,-186Z" fill="#156097" stroke="#156097" stroke-width="1.51"/><path d="M1509,135L1444,291L1548,303Z" fill="#1965a0" stroke="#1965a0" stroke-width="1.51"/><path d="M1428,65L1509,135L1558,-57Z" fill="#17629b" stroke="#17629b" stroke-width="1.51"/><path d="M1550,-186L1436,-141L1558,-57Z" fill="#176097" stroke="#176097" stroke-width="1.51"/><path d="M1435,1067L1519,1307L1572,1096Z" fill="#166eac" stroke="#166eac" stroke-width="1.51"/><path d="M1422,550L1523,675L1588,501Z" fill="#156da8" stroke="#156da8" stroke-width="1.51"/><path d="M1502,444L1422,550L1588,501Z" fill="#166ba6" stroke="#166ba6" stroke-width="1.51"/><path d="M1387,941L1512,1009L1514,816Z" fill="#1272ae" stroke="#1272ae" stroke-width="1.51"/><path d="M1435,1067L1355,1271L1519,1307Z" fill="#166ead" stroke="#166ead" stroke-width="1.51"/><path d="M1444,291L1502,444L1548,303Z" fill="#1867a2" stroke="#1867a2" stroke-width="1.51"/><path d="M1512,1009L1435,1067L1572,1096Z" fill="#156fad" stroke="#156fad" stroke-width="1.51"/><path d="M1433,701L1514,816L1523,675Z" fill="#1272ab" stroke="#1272ab" stroke-width="1.51"/><path d="M1436,-141L1378,-44L1558,-57Z" fill="#166199" stroke="#166199" stroke-width="1.51"/><path d="M1378,-44L1428,65L1558,-57Z" fill="#16629a" stroke="#16629a" stroke-width="1.51"/><path d="M1444,291L1357,361L1502,444Z" fill="#1869a3" stroke="#1869a3" stroke-width="1.51"/><path d="M1361,813L1387,941L1514,816Z" fill="#1073ae" stroke="#1073ae" stroke-width="1.51"/><path d="M1422,550L1433,701L1523,675Z" fill="#136faa" stroke="#136faa" stroke-width="1.51"/><path d="M1433,701L1361,813L1514,816Z" fill="#1073ad" stroke="#1073ad" stroke-width="1.51"/><path d="M1428,65L1444,291L1509,135Z" fill="#18649f" stroke="#18649f" stroke-width="1.51"/><path d="M1387,941L1435,1067L1512,1009Z" fill="#1371ae" stroke="#1371ae" stroke-width="1.51"/><path d="M1428,65L1301,281L1444,291Z" fill="#1866a0" stroke="#1866a0" stroke-width="1.51"/><path d="M1357,361L1422,550L1502,444Z" fill="#166ba5" stroke="#166ba5" stroke-width="1.51"/><path d="M1096,1245L1004,1274L1290,1278Z" fill="#186aa9" stroke="#186aa9" stroke-width="1.51"/><path d="M1357,361L1264,506L1422,550Z" fill="#166ba5" stroke="#166ba5" stroke-width="1.51"/><path d="M1255,102L1301,281L1428,65Z" fill="#18649e" stroke="#18649e" stroke-width="1.51"/><path d="M1422,550L1291,689L1433,701Z" fill="#1271aa" stroke="#1271aa" stroke-width="1.51"/><path d="M1248,1093L1355,1271L1435,1067Z" fill="#156fac" stroke="#156fac" stroke-width="1.51"/><path d="M1301,281L1357,361L1444,291Z" fill="#1868a2" stroke="#1868a2" stroke-width="1.51"/><path d="M1291,689L1361,813L1433,701Z" fill="#1073ac" stroke="#1073ac" stroke-width="1.51"/><path d="M1387,941L1256,999L1435,1067Z" fill="#1272ae" stroke="#1272ae" stroke-width="1.51"/><path d="M1287,-167L1378,-44L1436,-141Z" fill="#156198" stroke="#156198" stroke-width="1.51"/><path d="M1256,999L1248,1093L1435,1067Z" fill="#1370ac" stroke="#1370ac" stroke-width="1.51"/><path d="M1264,506L1291,689L1422,550Z" fill="#146ea8" stroke="#146ea8" stroke-width="1.51"/><path d="M1378,-44L1254,-10L1428,65Z" fill="#16629a" stroke="#16629a" stroke-width="1.51"/><path d="M1254,-10L1255,102L1428,65Z" fill="#17639b" stroke="#17639b" stroke-width="1.51"/><path d="M1248,1093L1290,1278L1355,1271Z" fill="#166dac" stroke="#166dac" stroke-width="1.51"/><path d="M1291,689L1302,815L1361,813Z" fill="#1073ac" stroke="#1073ac" stroke-width="1.51"/><path d="M1361,813L1302,815L1387,941Z" fill="#1074ae" stroke="#1074ae" stroke-width="1.51"/><path d="M1302,815L1256,999L1387,941Z" fill="#1172ad" stroke="#1172ad" stroke-width="1.51"/><path d="M1215,376L1264,506L1357,361Z" fill="#1769a3" stroke="#1769a3" stroke-width="1.51"/><path d="M1287,-167L1254,-10L1378,-44Z" fill="#166198" stroke="#166198" stroke-width="1.51"/><path d="M1301,281L1215,376L1357,361Z" fill="#1867a2" stroke="#1867a2" stroke-width="1.51"/><path d="M1140,-53L1254,-10L1287,-167Z" fill="#175f97" stroke="#175f97" stroke-width="1.51"/><path d="M1248,1093L1096,1245L1290,1278Z" fill="#176caa" stroke="#176caa" stroke-width="1.51"/><path d="M1264,506L1068,561L1291,689Z" fill="#156ca6" stroke="#156ca6" stroke-width="1.51"/><path d="M1068,561L1101,708L1291,689Z" fill="#156da7" stroke="#156da7" stroke-width="1.51"/><path d="M1101,708L1116,808L1291,689Z" fill="#136fa9" stroke="#136fa9" stroke-width="1.51"/><path d="M1255,102L1103,266L1301,281Z" fill="#19639d" stroke="#19639d" stroke-width="1.51"/><path d="M1139,938L1256,999L1302,815Z" fill="#1270ab" stroke="#1270ab" stroke-width="1.51"/><path d="M1116,808L1139,938L1302,815Z" fill="#1271ab" stroke="#1271ab" stroke-width="1.51"/><path d="M1291,689L1116,808L1302,815Z" fill="#1171ab" stroke="#1171ab" stroke-width="1.51"/><path d="M1103,266L1215,376L1301,281Z" fill="#1965a0" stroke="#1965a0" stroke-width="1.51"/><path d="M1097,-177L1140,-53L1287,-167Z" fill="#175d95" stroke="#175d95" stroke-width="1.51"/><path d="M1059,1152L1096,1245L1248,1093Z" fill="#176ca9" stroke="#176ca9" stroke-width="1.51"/><path d="M1254,-10L1140,-53L1255,102Z" fill="#186199" stroke="#186199" stroke-width="1.51"/><path d="M1063,151L1103,266L1255,102Z" fill="#19619b" stroke="#19619b" stroke-width="1.51"/><path d="M1215,376L1068,561L1264,506Z" fill="#1769a3" stroke="#1769a3" stroke-width="1.51"/><path d="M1140,-53L1063,151L1255,102Z" fill="#186099" stroke="#186099" stroke-width="1.51"/><path d="M1139,938L1248,1093L1256,999Z" fill="#146fab" stroke="#146fab" stroke-width="1.51"/><path d="M1103,266L1096,343L1215,376Z" fill="#19649f" stroke="#19649f" stroke-width="1.51"/><path d="M1139,938L1059,1152L1248,1093Z" fill="#166da9" stroke="#166da9" stroke-width="1.51"/><path d="M1096,343L1068,561L1215,376Z" fill="#1867a1" stroke="#1867a1" stroke-width="1.51"/><path d="M377,1279L-11,1296L513,1313Z" fill="#1b5c9b" stroke="#1b5c9b" stroke-width="1.51"/><path d="M352,-225L485,-201L658,-211Z" fill="#1a5188" stroke="#1a5188" stroke-width="1.51"/><path d="M813,1211L706,1222L1004,1274Z" fill="#1a65a4" stroke="#1a65a4" stroke-width="1.51"/><path d="M706,1222L513,1313L1004,1274Z" fill="#1b62a3" stroke="#1b62a3" stroke-width="1.51"/><path d="M988,392L961,501L1068,561Z" fill="#1866a1" stroke="#1866a1" stroke-width="1.51"/><path d="M988,392L1068,561L1096,343Z" fill="#1865a0" stroke="#1865a0" stroke-width="1.51"/><path d="M1116,808L1001,976L1139,938Z" fill="#146ea9" stroke="#146ea9" stroke-width="1.51"/><path d="M1001,976L1059,1152L1139,938Z" fill="#166ca8" stroke="#166ca8" stroke-width="1.51"/><path d="M963,137L1063,151L1140,-53Z" fill="#195e98" stroke="#195e98" stroke-width="1.51"/><path d="M914,-76L963,137L1140,-53Z" fill="#185c95" stroke="#185c95" stroke-width="1.51"/><path d="M1097,-177L914,-76L1140,-53Z" fill="#185c93" stroke="#185c93" stroke-width="1.51"/><path d="M1068,561L975,706L1101,708Z" fill="#166ba5" stroke="#166ba5" stroke-width="1.51"/><path d="M917,871L1001,976L1116,808Z" fill="#146da8" stroke="#146da8" stroke-width="1.51"/><path d="M1101,708L975,706L1116,808Z" fill="#146ea8" stroke="#146ea8" stroke-width="1.51"/><path d="M975,706L917,871L1116,808Z" fill="#146ea8" stroke="#146ea8" stroke-width="1.51"/><path d="M1059,1152L1004,1274L1096,1245Z" fill="#1869a7" stroke="#1869a7" stroke-width="1.51"/><path d="M959,-229L914,-76L1097,-177Z" fill="#185a91" stroke="#185a91" stroke-width="1.51"/><path d="M1063,151L915,244L1103,266Z" fill="#1a609a" stroke="#1a609a" stroke-width="1.51"/><path d="M988,392L1096,343L1103,266Z" fill="#1a639e" stroke="#1a639e" stroke-width="1.51"/><path d="M915,244L988,392L1103,266Z" fill="#1b619c" stroke="#1b619c" stroke-width="1.51"/><path d="M942,1162L1004,1274L1059,1152Z" fill="#1969a7" stroke="#1969a7" stroke-width="1.51"/><path d="M1001,976L942,1162L1059,1152Z" fill="#186aa7" stroke="#186aa7" stroke-width="1.51"/><path d="M963,137L915,244L1063,151Z" fill="#1a5f99" stroke="#1a5f99" stroke-width="1.51"/><path d="M961,501L975,706L1068,561Z" fill="#1768a3" stroke="#1768a3" stroke-width="1.51"/><path d="M914,-76L820,71L963,137Z" fill="#1a5b95" stroke="#1a5b95" stroke-width="1.51"/><path d="M961,501L776,577L975,706Z" fill="#1867a2" stroke="#1867a2" stroke-width="1.51"/><path d="M838,1007L942,1162L1001,976Z" fill="#1869a6" stroke="#1869a6" stroke-width="1.51"/><path d="M942,1162L813,1211L1004,1274Z" fill="#1a67a5" stroke="#1a67a5" stroke-width="1.51"/><path d="M917,871L838,1007L1001,976Z" fill="#176aa6" stroke="#176aa6" stroke-width="1.51"/><path d="M762,736L917,871L975,706Z" fill="#156ba5" stroke="#156ba5" stroke-width="1.51"/><path d="M915,244L864,240L988,392Z" fill="#1b609b" stroke="#1b609b" stroke-width="1.51"/><path d="M864,240L766,425L988,392Z" fill="#1b609c" stroke="#1b609c" stroke-width="1.51"/><path d="M766,425L961,501L988,392Z" fill="#1a639e" stroke="#1a639e" stroke-width="1.51"/><path d="M762,736L794,854L917,871Z" fill="#166ba5" stroke="#166ba5" stroke-width="1.51"/><path d="M793,-215L914,-76L959,-229Z" fill="#18588f" stroke="#18588f" stroke-width="1.51"/><path d="M776,577L762,736L975,706Z" fill="#1768a3" stroke="#1768a3" stroke-width="1.51"/><path d="M838,1007L779,1083L942,1162Z" fill="#1967a5" stroke="#1967a5" stroke-width="1.51"/><path d="M864,240L915,244L963,137Z" fill="#1b5e99" stroke="#1b5e99" stroke-width="1.51"/><path d="M820,71L864,240L963,137Z" fill="#1a5c97" stroke="#1a5c97" stroke-width="1.51"/><path d="M766,425L776,577L961,501Z" fill="#1a649f" stroke="#1a649f" stroke-width="1.51"/><path d="M802,-75L820,71L914,-76Z" fill="#1a5992" stroke="#1a5992" stroke-width="1.51"/><path d="M793,-215L802,-75L914,-76Z" fill="#195890" stroke="#195890" stroke-width="1.51"/><path d="M779,1083L813,1211L942,1162Z" fill="#1a66a4" stroke="#1a66a4" stroke-width="1.51"/><path d="M720,347L766,425L864,240Z" fill="#1c5e9a" stroke="#1c5e9a" stroke-width="1.51"/><path d="M794,854L838,1007L917,871Z" fill="#176aa5" stroke="#176aa5" stroke-width="1.51"/><path d="M665,205L720,347L864,240Z" fill="#1c5c98" stroke="#1c5c98" stroke-width="1.51"/><path d="M820,71L711,87L864,240Z" fill="#1b5b95" stroke="#1b5b95" stroke-width="1.51"/><path d="M711,87L665,205L864,240Z" fill="#1c5b95" stroke="#1c5b95" stroke-width="1.51"/><path d="M802,-75L711,87L820,71Z" fill="#1b5992" stroke="#1b5992" stroke-width="1.51"/><path d="M794,854L632,963L838,1007Z" fill="#1868a4" stroke="#1868a4" stroke-width="1.51"/><path d="M632,963L779,1083L838,1007Z" fill="#1967a3" stroke="#1967a3" stroke-width="1.51"/><path d="M691,706L762,736L776,577Z" fill="#1867a1" stroke="#1867a1" stroke-width="1.51"/><path d="M766,425L673,527L776,577Z" fill="#1a629d" stroke="#1a629d" stroke-width="1.51"/><path d="M658,-211L653,-78L793,-215Z" fill="#1a558d" stroke="#1a558d" stroke-width="1.51"/><path d="M793,-215L653,-78L802,-75Z" fill="#1a578e" stroke="#1a578e" stroke-width="1.51"/><path d="M653,-78L711,87L802,-75Z" fill="#1a5890" stroke="#1a5890" stroke-width="1.51"/><path d="M779,1083L706,1222L813,1211Z" fill="#1a64a3" stroke="#1a64a3" stroke-width="1.51"/><path d="M645,1158L706,1222L779,1083Z" fill="#1a64a2" stroke="#1a64a2" stroke-width="1.51"/><path d="M762,736L623,825L794,854Z" fill="#166aa4" stroke="#166aa4" stroke-width="1.51"/><path d="M623,825L632,963L794,854Z" fill="#1868a3" stroke="#1868a3" stroke-width="1.51"/><path d="M691,706L623,825L762,736Z" fill="#1868a2" stroke="#1868a2" stroke-width="1.51"/><path d="M673,527L691,706L776,577Z" fill="#19649f" stroke="#19649f" stroke-width="1.51"/><path d="M632,963L645,1158L779,1083Z" fill="#1a65a2" stroke="#1a65a2" stroke-width="1.51"/><path d="M720,347L673,527L766,425Z" fill="#1b609b" stroke="#1b609b" stroke-width="1.51"/><path d="M488,3L556,140L653,-78Z" fill="#1b568f" stroke="#1b568f" stroke-width="1.51"/><path d="M545,432L572,500L673,527Z" fill="#1b5f9a" stroke="#1b5f9a" stroke-width="1.51"/><path d="M556,140L665,205L711,87Z" fill="#1c5893" stroke="#1c5893" stroke-width="1.51"/><path d="M653,-78L556,140L711,87Z" fill="#1b5791" stroke="#1b5791" stroke-width="1.51"/><path d="M665,205L544,223L720,347Z" fill="#1d5a96" stroke="#1d5a96" stroke-width="1.51"/><path d="M544,223L545,432L720,347Z" fill="#1d5b97" stroke="#1d5b97" stroke-width="1.51"/><path d="M545,432L673,527L720,347Z" fill="#1b5e9a" stroke="#1b5e9a" stroke-width="1.51"/><path d="M673,527L572,500L691,706Z" fill="#1a629d" stroke="#1a629d" stroke-width="1.51"/><path d="M572,500L497,719L691,706Z" fill="#1a639e" stroke="#1a639e" stroke-width="1.51"/><path d="M645,1158L513,1313L706,1222Z" fill="#1b61a1" stroke="#1b61a1" stroke-width="1.51"/><path d="M632,963L502,1123L645,1158Z" fill="#1b63a1" stroke="#1b63a1" stroke-width="1.51"/><path d="M497,719L623,825L691,706Z" fill="#1966a1" stroke="#1966a1" stroke-width="1.51"/><path d="M485,-201L653,-78L658,-211Z" fill="#1a548b" stroke="#1a548b" stroke-width="1.51"/><path d="M497,719L551,829L623,825Z" fill="#1866a1" stroke="#1866a1" stroke-width="1.51"/><path d="M623,825L551,829L632,963Z" fill="#1967a2" stroke="#1967a2" stroke-width="1.51"/><path d="M517,956L502,1123L632,963Z" fill="#1a63a0" stroke="#1a63a0" stroke-width="1.51"/><path d="M556,140L544,223L665,205Z" fill="#1c5893" stroke="#1c5893" stroke-width="1.51"/><path d="M502,1123L513,1313L645,1158Z" fill="#1c60a0" stroke="#1c60a0" stroke-width="1.51"/><path d="M551,829L517,956L632,963Z" fill="#1965a1" stroke="#1965a1" stroke-width="1.51"/><path d="M485,-201L488,3L653,-78Z" fill="#1a548c" stroke="#1a548c" stroke-width="1.51"/><path d="M376,496L390,714L497,719Z" fill="#19619b" stroke="#19619b" stroke-width="1.51"/><path d="M544,223L396,363L545,432Z" fill="#1d5a95" stroke="#1d5a95" stroke-width="1.51"/><path d="M545,432L376,496L572,500Z" fill="#1c5e98" stroke="#1c5e98" stroke-width="1.51"/><path d="M376,496L497,719L572,500Z" fill="#1a609b" stroke="#1a609b" stroke-width="1.51"/><path d="M502,1123L377,1279L513,1313Z" fill="#1b5f9e" stroke="#1b5f9e" stroke-width="1.51"/><path d="M334,808L517,956L551,829Z" fill="#1865a0" stroke="#1865a0" stroke-width="1.51"/><path d="M390,77L544,223L556,140Z" fill="#1c5691" stroke="#1c5691" stroke-width="1.51"/><path d="M488,3L390,77L556,140Z" fill="#1b558f" stroke="#1b558f" stroke-width="1.51"/><path d="M334,808L338,935L517,956Z" fill="#19649e" stroke="#19649e" stroke-width="1.51"/><path d="M497,719L334,808L551,829Z" fill="#18659f" stroke="#18659f" stroke-width="1.51"/><path d="M485,-201L344,-29L488,3Z" fill="#1a538b" stroke="#1a538b" stroke-width="1.51"/><path d="M331,286L396,363L544,223Z" fill="#1c5893" stroke="#1c5893" stroke-width="1.51"/><path d="M390,77L331,286L544,223Z" fill="#1c5791" stroke="#1c5791" stroke-width="1.51"/><path d="M396,363L376,496L545,432Z" fill="#1c5c97" stroke="#1c5c97" stroke-width="1.51"/><path d="M390,714L334,808L497,719Z" fill="#18649e" stroke="#18649e" stroke-width="1.51"/><path d="M350,1144L377,1279L502,1123Z" fill="#1b5f9e" stroke="#1b5f9e" stroke-width="1.51"/><path d="M338,935L350,1144L502,1123Z" fill="#1a619e" stroke="#1a619e" stroke-width="1.51"/><path d="M338,935L502,1123L517,956Z" fill="#1a639f" stroke="#1a639f" stroke-width="1.51"/><path d="M352,-225L344,-29L485,-201Z" fill="#195188" stroke="#195188" stroke-width="1.51"/><path d="M344,-29L390,77L488,3Z" fill="#1b548d" stroke="#1b548d" stroke-width="1.51"/><path d="M208,967L246,1140L338,935Z" fill="#19619c" stroke="#19619c" stroke-width="1.51"/><path d="M334,808L276,861L338,935Z" fill="#18649e" stroke="#18649e" stroke-width="1.51"/><path d="M338,935L246,1140L350,1144Z" fill="#1a609d" stroke="#1a609d" stroke-width="1.51"/><path d="M219,-225L344,-29L352,-225Z" fill="#195087" stroke="#195087" stroke-width="1.51"/><path d="M208,402L269,520L376,496Z" fill="#1b5b95" stroke="#1b5b95" stroke-width="1.51"/><path d="M269,520L283,676L376,496Z" fill="#1a5e98" stroke="#1a5e98" stroke-width="1.51"/><path d="M269,1219L-11,1296L377,1279Z" fill="#1b5c9b" stroke="#1b5c9b" stroke-width="1.51"/><path d="M350,1144L269,1219L377,1279Z" fill="#1b5e9c" stroke="#1b5e9c" stroke-width="1.51"/><path d="M376,496L283,676L390,714Z" fill="#19609a" stroke="#19609a" stroke-width="1.51"/><path d="M249,146L331,286L390,77Z" fill="#1c558f" stroke="#1c558f" stroke-width="1.51"/><path d="M208,402L376,496L396,363Z" fill="#1b5b95" stroke="#1b5b95" stroke-width="1.51"/><path d="M331,286L208,402L396,363Z" fill="#1c5993" stroke="#1c5993" stroke-width="1.51"/><path d="M219,-225L190,-50L344,-29Z" fill="#195187" stroke="#195187" stroke-width="1.51"/><path d="M283,676L334,808L390,714Z" fill="#18639c" stroke="#18639c" stroke-width="1.51"/><path d="M344,-29L249,146L390,77Z" fill="#1a548c" stroke="#1a548c" stroke-width="1.51"/><path d="M249,146L247,278L331,286Z" fill="#1c5690" stroke="#1c5690" stroke-width="1.51"/><path d="M51,1226L-11,1296L269,1219Z" fill="#1a5c99" stroke="#1a5c99" stroke-width="1.51"/><path d="M247,278L208,402L331,286Z" fill="#1c5791" stroke="#1c5791" stroke-width="1.51"/><path d="M190,-50L249,146L344,-29Z" fill="#1a538a" stroke="#1a538a" stroke-width="1.51"/><path d="M246,1140L269,1219L350,1144Z" fill="#1a5e9c" stroke="#1a5e9c" stroke-width="1.51"/><path d="M283,676L276,861L334,808Z" fill="#17649d" stroke="#17649d" stroke-width="1.51"/><path d="M276,861L208,967L338,935Z" fill="#18629d" stroke="#18629d" stroke-width="1.51"/><path d="M190,-50L81,86L249,146Z" fill="#1a528a" stroke="#1a528a" stroke-width="1.51"/><path d="M46,728L127,820L283,676Z" fill="#17629a" stroke="#17629a" stroke-width="1.51"/><path d="M269,520L90,512L283,676Z" fill="#195d97" stroke="#195d97" stroke-width="1.51"/><path d="M90,512L46,728L283,676Z" fill="#185e97" stroke="#185e97" stroke-width="1.51"/><path d="M127,820L276,861L283,676Z" fill="#17639c" stroke="#17639c" stroke-width="1.51"/><path d="M208,967L78,1076L246,1140Z" fill="#195f9b" stroke="#195f9b" stroke-width="1.51"/><path d="M127,820L208,967L276,861Z" fill="#17639b" stroke="#17639b" stroke-width="1.51"/><path d="M132,300L208,402L247,278Z" fill="#1b5790" stroke="#1b5790" stroke-width="1.51"/><path d="M132,300L247,278L249,146Z" fill="#1b558f" stroke="#1b558f" stroke-width="1.51"/><path d="M208,402L90,512L269,520Z" fill="#1a5b94" stroke="#1a5b94" stroke-width="1.51"/><path d="M246,1140L51,1226L269,1219Z" fill="#1a5d9a" stroke="#1a5d9a" stroke-width="1.51"/><path d="M81,86L132,300L249,146Z" fill="#1b548c" stroke="#1b548c" stroke-width="1.51"/><path d="M78,1076L51,1226L246,1140Z" fill="#195d99" stroke="#195d99" stroke-width="1.51"/><path d="M65,-52L190,-50L219,-225Z" fill="#195086" stroke="#195086" stroke-width="1.51"/><path d="M132,300L95,365L208,402Z" fill="#1b5791" stroke="#1b5791" stroke-width="1.51"/><path d="M127,820L62,979L208,967Z" fill="#17619a" stroke="#17619a" stroke-width="1.51"/><path d="M62,979L78,1076L208,967Z" fill="#18609a" stroke="#18609a" stroke-width="1.51"/><path d="M43,-236L65,-52L219,-225Z" fill="#184e84" stroke="#184e84" stroke-width="1.51"/><path d="M65,-52L81,86L190,-50Z" fill="#195188" stroke="#195188" stroke-width="1.51"/><path d="M95,365L90,512L208,402Z" fill="#1a5992" stroke="#1a5992" stroke-width="1.51"/><path d="M43,-236L-3,-91L65,-52Z" fill="#184f83" stroke="#184f83" stroke-width="1.51"/><path d="M-79,684L46,728L90,512Z" fill="#175d95" stroke="#175d95" stroke-width="1.51"/><path d="M-7,379L90,512L95,365Z" fill="#1a5891" stroke="#1a5891" stroke-width="1.51"/><path d="M-16,831L62,979L127,820Z" fill="#176199" stroke="#176199" stroke-width="1.51"/><path d="M81,86L-90,257L132,300Z" fill="#1a538b" stroke="#1a538b" stroke-width="1.51"/><path d="M-7,379L95,365L132,300Z" fill="#1b568f" stroke="#1b568f" stroke-width="1.51"/><path d="M-90,257L-7,379L132,300Z" fill="#1a558e" stroke="#1a558e" stroke-width="1.51"/><path d="M46,728L-16,831L127,820Z" fill="#166299" stroke="#166299" stroke-width="1.51"/><path d="M-82,1129L51,1226L78,1076Z" fill="#195c98" stroke="#195c98" stroke-width="1.51"/><path d="M65,-52L-98,89L81,86Z" fill="#195087" stroke="#195087" stroke-width="1.51"/><path d="M-98,89L-90,257L81,86Z" fill="#195189" stroke="#195189" stroke-width="1.51"/><path d="M-7,379L-82,488L90,512Z" fill="#195991" stroke="#195991" stroke-width="1.51"/><path d="M-82,488L-79,684L90,512Z" fill="#185b92" stroke="#185b92" stroke-width="1.51"/><path d="M-3,-91L-98,89L65,-52Z" fill="#185085" stroke="#185085" stroke-width="1.51"/><path d="M62,979L-106,1004L78,1076Z" fill="#185e98" stroke="#185e98" stroke-width="1.51"/><path d="M-106,1004L-82,1129L78,1076Z" fill="#185d97" stroke="#185d97" stroke-width="1.51"/><path d="M-98,-150L-3,-91L43,-236Z" fill="#174e82" stroke="#174e82" stroke-width="1.51"/><path d="M-16,831L-106,1004L62,979Z" fill="#176098" stroke="#176098" stroke-width="1.51"/><path d="M-217,-239L-98,-150L43,-236Z" fill="#174c7f" stroke="#174c7f" stroke-width="1.51"/><path d="M-82,1129L-11,1296L51,1226Z" fill="#195b97" stroke="#195b97" stroke-width="1.51"/><path d="M-79,684L-16,831L46,728Z" fill="#166097" stroke="#166097" stroke-width="1.51"/><path d="M-79,684L-150,703L-16,831Z" fill="#165f96" stroke="#165f96" stroke-width="1.51"/><path d="M-82,1129L-152,1246L-11,1296Z" fill="#195a96" stroke="#195a96" stroke-width="1.51"/><path d="M-189,-90L-98,89L-3,-91Z" fill="#184e84" stroke="#184e84" stroke-width="1.51"/><path d="M-98,-150L-189,-90L-3,-91Z" fill="#184d82" stroke="#184d82" stroke-width="1.51"/><path d="M-208,797L-106,1004L-16,831Z" fill="#166097" stroke="#166097" stroke-width="1.51"/><path d="M-245,381L-82,488L-7,379Z" fill="#19568e" stroke="#19568e" stroke-width="1.51"/><path d="M-90,257L-245,381L-7,379Z" fill="#19548c" stroke="#19548c" stroke-width="1.51"/><path d="M-150,703L-208,797L-16,831Z" fill="#156096" stroke="#156096" stroke-width="1.51"/><path d="M-208,797L-186,1009L-106,1004Z" fill="#165e96" stroke="#165e96" stroke-width="1.51"/><path d="M-189,-90L-243,66L-98,89Z" fill="#184f84" stroke="#184f84" stroke-width="1.51"/><path d="M-98,89L-213,200L-90,257Z" fill="#195188" stroke="#195188" stroke-width="1.51"/><path d="M-106,1004L-158,1111L-82,1129Z" fill="#185c96" stroke="#185c96" stroke-width="1.51"/><path d="M-158,1111L-152,1246L-82,1129Z" fill="#185b95" stroke="#185b95" stroke-width="1.51"/><path d="M-82,488L-254,572L-79,684Z" fill="#185a91" stroke="#185a91" stroke-width="1.51"/><path d="M-254,572L-150,703L-79,684Z" fill="#175c93" stroke="#175c93" stroke-width="1.51"/><path d="M-213,200L-245,381L-90,257Z" fill="#1a528a" stroke="#1a528a" stroke-width="1.51"/><path d="M-245,381L-254,572L-82,488Z" fill="#19578e" stroke="#19578e" stroke-width="1.51"/><path d="M-186,1009L-158,1111L-106,1004Z" fill="#175c96" stroke="#175c96" stroke-width="1.51"/><path d="M-217,-239L-189,-90L-98,-150Z" fill="#174c80" stroke="#174c80" stroke-width="1.51"/><path d="M-243,66L-213,200L-98,89Z" fill="#195086" stroke="#195086" stroke-width="1.51"/><path d="M-254,572L-208,797L-150,703Z" fill="#165d93" stroke="#165d93" stroke-width="1.51"/><path d="M-158,1111L-186,1009L-152,1246Z" fill="#185b95" stroke="#185b95" stroke-width="1.51"/><path d="M-208,797L-254,572L-186,1009Z" fill="#155f95" stroke="#155f95" stroke-width="1.51"/><path d="M-217,-239L-243,66L-189,-90Z" fill="#174d81" stroke="#174d81" stroke-width="1.51"/><path d="M-243,66L-245,381L-213,200Z" fill="#195187" stroke="#195187" stroke-width="1.51"/><path d="M-254,572L-245,381L-243,66Z" fill="#19538a" stroke="#19538a" stroke-width="1.51"/></svg>