<svg xmlns="http://www.w3.org/2000/svg" width="1920" height="1080"><path d="M-112,-266L402,-223L899,-242Z" fill="#124779" stroke="#124779" stroke-width="1.51"/><path d="M601,1323L-181,1341L1307,1335Z" fill="#145189" stroke="#145189" stroke-width="1.51"/><path d="M745,1319L601,1323L1307,1335Z" fill="#175c98" stroke="#175c98" stroke-width="1.51"/><path d="M-112,-266L899,-242L1939,-246Z" fill="#16568f" stroke="#16568f" stroke-width="1.51"/><path d="M1251,-197L1431,-192L1939,-246Z" fill="#144f84" stroke="#144f84" stroke-width="1.51"/><path d="M899,-242L1251,-197L1939,-246Z" fill="#0f508c" stroke="#0f508c" stroke-width="1.51"/><path d="M1777,1329L1307,1335L2032,1330Z" fill="#195286" stroke="#195286" stroke-width="1.51"/><path d="M2058,911L2066,952L2094,808Z" fill="#165692" stroke="#165692" stroke-width="1.51"/><path d="M2066,952L2013,1000L2102,1114Z" fill="#1b5489" stroke="#1b5489" stroke-width="1.51"/><path d="M2094,808L2066,952L2102,1114Z" fill="#18548d" stroke="#18548d" stroke-width="1.51"/><path d="M2102,1114L1972,1172L2106,1306Z" fill="#184f81" stroke="#184f81" stroke-width="1.51"/><path d="M2046,-133L1957,-43L2137,117Z" fill="#144a7b" stroke="#144a7b" stroke-width="1.51"/><path d="M1957,-43L1931,63L2137,117Z" fill="#164d80" stroke="#164d80" stroke-width="1.51"/><path d="M2115,-193L2046,-133L2137,117Z" fill="#124779" stroke="#124779" stroke-width="1.51"/><path d="M2035,659L2094,808L2143,621Z" fill="#165b99" stroke="#165b99" stroke-width="1.51"/><path d="M2094,808L2102,1114L2143,621Z" fill="#135694" stroke="#135694" stroke-width="1.51"/><path d="M2071,378L1955,490L2163,521Z" fill="#1a5c98" stroke="#1a5c98" stroke-width="1.51"/><path d="M2035,659L2143,621L2163,521Z" fill="#175d9b" stroke="#175d9b" stroke-width="1.51"/><path d="M1955,490L2035,659L2163,521Z" fill="#1b609e" stroke="#1b609e" stroke-width="1.51"/><path d="M2137,117L2091,234L2163,521Z" fill="#15528a" stroke="#15528a" stroke-width="1.51"/><path d="M2091,234L2071,378L2163,521Z" fill="#175791" stroke="#175791" stroke-width="1.51"/><path d="M2143,621L2102,1114L2163,521Z" fill="#125897" stroke="#125897" stroke-width="1.51"/><path d="M2102,1114L2106,1306L2163,521Z" fill="#17538a" stroke="#17538a" stroke-width="1.51"/><path d="M1972,1172L2032,1330L2106,1306Z" fill="#164d7f" stroke="#164d7f" stroke-width="1.51"/><path d="M1989,226L2091,234L2137,117Z" fill="#155086" stroke="#155086" stroke-width="1.51"/><path d="M1931,63L1989,226L2137,117Z" fill="#164f84" stroke="#164f84" stroke-width="1.51"/><path d="M1431,-192L1687,-147L1939,-246Z" fill="#174d7f" stroke="#174d7f" stroke-width="1.51"/><path d="M1989,226L2071,378L2091,234Z" fill="#17548b" stroke="#17548b" stroke-width="1.51"/><path d="M1939,-246L2046,-133L2115,-193Z" fill="#124675" stroke="#124675" stroke-width="1.51"/><path d="M1989,226L1957,365L2071,378Z" fill="#19578f" stroke="#19578f" stroke-width="1.51"/><path d="M2035,659L1928,692L2094,808Z" fill="#175b9b" stroke="#175b9b" stroke-width="1.51"/><path d="M2013,1000L1972,1172L2102,1114Z" fill="#1c5385" stroke="#1c5385" stroke-width="1.51"/><path d="M1928,692L1895,755L2094,808Z" fill="#175b9b" stroke="#175b9b" stroke-width="1.51"/><path d="M1988,935L2058,911L2094,808Z" fill="#165793" stroke="#165793" stroke-width="1.51"/><path d="M1895,755L1988,935L2094,808Z" fill="#165998" stroke="#165998" stroke-width="1.51"/><path d="M1957,365L1955,490L2071,378Z" fill="#1a5b96" stroke="#1a5b96" stroke-width="1.51"/><path d="M2058,911L1988,935L2066,952Z" fill="#18568f" stroke="#18568f" stroke-width="1.51"/><path d="M1988,935L2013,1000L2066,952Z" fill="#1a568e" stroke="#1a568e" stroke-width="1.51"/><path d="M1955,490L1928,692L2035,659Z" fill="#1b609e" stroke="#1b609e" stroke-width="1.51"/><path d="M1897,-204L1957,-43L2046,-133Z" fill="#154979" stroke="#154979" stroke-width="1.51"/><path d="M1939,-246L1897,-204L2046,-133Z" fill="#154877" stroke="#154877" stroke-width="1.51"/><path d="M1833,587L1928,692L1955,490Z" fill="#1d62a1" stroke="#1d62a1" stroke-width="1.51"/><path d="M1827,1088L1972,1172L2013,1000Z" fill="#1f5688" stroke="#1f5688" stroke-width="1.51"/><path d="M1972,1172L1777,1329L2032,1330Z" fill="#184f81" stroke="#184f81" stroke-width="1.51"/><path d="M1897,-204L1849,-98L1957,-43Z" fill="#164b7b" stroke="#164b7b" stroke-width="1.51"/><path d="M1895,755L1862,933L1988,935Z" fill="#1a5a96" stroke="#1a5a96" stroke-width="1.51"/><path d="M1931,63L1870,94L1989,226Z" fill="#185186" stroke="#185186" stroke-width="1.51"/><path d="M1870,94L1847,159L1989,226Z" fill="#195388" stroke="#195388" stroke-width="1.51"/><path d="M1988,935L1862,933L2013,1000Z" fill="#1b5890" stroke="#1b5890" stroke-width="1.51"/><path d="M1862,933L1827,1088L2013,1000Z" fill="#1e588e" stroke="#1e588e" stroke-width="1.51"/><path d="M167,1289L-181,1341L601,1323Z" fill="#13497c" stroke="#13497c" stroke-width="1.51"/><path d="M1687,-147L1897,-204L1939,-246Z" fill="#174a79" stroke="#174a79" stroke-width="1.51"/><path d="M1839,306L1957,365L1989,226Z" fill="#1a578f" stroke="#1a578f" stroke-width="1.51"/><path d="M1847,159L1839,306L1989,226Z" fill="#1a558c" stroke="#1a558c" stroke-width="1.51"/><path d="M1774,481L1955,490L1957,365Z" fill="#1e5f9b" stroke="#1e5f9b" stroke-width="1.51"/><path d="M1827,1088L1777,1329L1972,1172Z" fill="#1c5486" stroke="#1c5486" stroke-width="1.51"/><path d="M1849,-98L1931,63L1957,-43Z" fill="#174d7e" stroke="#174d7e" stroke-width="1.51"/><path d="M1839,306L1774,481L1957,365Z" fill="#1d5d97" stroke="#1d5d97" stroke-width="1.51"/><path d="M1849,-98L1870,94L1931,63Z" fill="#184f81" stroke="#184f81" stroke-width="1.51"/><path d="M1774,481L1833,587L1955,490Z" fill="#1f64a2" stroke="#1f64a2" stroke-width="1.51"/><path d="M1782,979L1827,1088L1862,933Z" fill="#205a90" stroke="#205a90" stroke-width="1.51"/><path d="M1849,-98L1767,-69L1870,94Z" fill="#194f80" stroke="#194f80" stroke-width="1.51"/><path d="M1833,587L1895,755L1928,692Z" fill="#1b609f" stroke="#1b609f" stroke-width="1.51"/><path d="M1742,1102L1666,1224L1777,1329Z" fill="#1d5589" stroke="#1d5589" stroke-width="1.51"/><path d="M1742,1102L1777,1329L1827,1088Z" fill="#1f5688" stroke="#1f5688" stroke-width="1.51"/><path d="M1753,469L1774,481L1839,306Z" fill="#1f609b" stroke="#1f609b" stroke-width="1.51"/><path d="M1765,186L1839,306L1847,159Z" fill="#1c578d" stroke="#1c578d" stroke-width="1.51"/><path d="M1747,739L1690,904L1862,933Z" fill="#1d5e9b" stroke="#1d5e9b" stroke-width="1.51"/><path d="M1747,739L1862,933L1895,755Z" fill="#195d9d" stroke="#195d9d" stroke-width="1.51"/><path d="M1833,587L1747,739L1895,755Z" fill="#1d61a0" stroke="#1d61a0" stroke-width="1.51"/><path d="M1687,-147L1849,-98L1897,-204Z" fill="#184c7c" stroke="#184c7c" stroke-width="1.51"/><path d="M405,1293L167,1289L601,1323Z" fill="#144e83" stroke="#144e83" stroke-width="1.51"/><path d="M1439,1257L1307,1335L1777,1329Z" fill="#165590" stroke="#165590" stroke-width="1.51"/><path d="M1704,649L1747,739L1833,587Z" fill="#1f63a3" stroke="#1f63a3" stroke-width="1.51"/><path d="M1742,321L1753,469L1839,306Z" fill="#1f5e98" stroke="#1f5e98" stroke-width="1.51"/><path d="M1687,-147L1767,-69L1849,-98Z" fill="#194e7f" stroke="#194e7f" stroke-width="1.51"/><path d="M1690,904L1782,979L1862,933Z" fill="#1f5c95" stroke="#1f5c95" stroke-width="1.51"/><path d="M1767,-69L1674,23L1870,94Z" fill="#1a5184" stroke="#1a5184" stroke-width="1.51"/><path d="M1765,186L1847,159L1870,94Z" fill="#1b5489" stroke="#1b5489" stroke-width="1.51"/><path d="M1674,23L1765,186L1870,94Z" fill="#1c5488" stroke="#1c5488" stroke-width="1.51"/><path d="M1431,-192L1547,-137L1687,-147Z" fill="#154f86" stroke="#154f86" stroke-width="1.51"/><path d="M1582,1232L1439,1257L1777,1329Z" fill="#19558c" stroke="#19558c" stroke-width="1.51"/><path d="M1765,186L1742,321L1839,306Z" fill="#1e5990" stroke="#1e5990" stroke-width="1.51"/><path d="M1717,1077L1742,1102L1782,979Z" fill="#215b8f" stroke="#215b8f" stroke-width="1.51"/><path d="M1782,979L1742,1102L1827,1088Z" fill="#215a8d" stroke="#215a8d" stroke-width="1.51"/><path d="M1774,481L1704,649L1833,587Z" fill="#2166a4" stroke="#2166a4" stroke-width="1.51"/><path d="M1753,469L1704,649L1774,481Z" fill="#2167a6" stroke="#2167a6" stroke-width="1.51"/><path d="M1690,904L1717,1077L1782,979Z" fill="#205c94" stroke="#205c94" stroke-width="1.51"/><path d="M1666,1224L1582,1232L1777,1329Z" fill="#1a548a" stroke="#1a548a" stroke-width="1.51"/><path d="M1604,746L1690,904L1747,739Z" fill="#1a60a3" stroke="#1a60a3" stroke-width="1.51"/><path d="M1532,551L1704,649L1753,469Z" fill="#1f68aa" stroke="#1f68aa" stroke-width="1.51"/><path d="M1742,321L1541,393L1753,469Z" fill="#1e619e" stroke="#1e619e" stroke-width="1.51"/><path d="M1546,210L1742,321L1765,186Z" fill="#1c5a94" stroke="#1c5a94" stroke-width="1.51"/><path d="M1674,23L1546,210L1765,186Z" fill="#1a578f" stroke="#1a578f" stroke-width="1.51"/><path d="M1687,-147L1674,23L1767,-69Z" fill="#195083" stroke="#195083" stroke-width="1.51"/><path d="M1080,1276L745,1319L1307,1335Z" fill="#175d9b" stroke="#175d9b" stroke-width="1.51"/><path d="M1690,904L1585,1062L1717,1077Z" fill="#1f5c95" stroke="#1f5c95" stroke-width="1.51"/><path d="M1717,1077L1666,1224L1742,1102Z" fill="#20598d" stroke="#20598d" stroke-width="1.51"/><path d="M1541,393L1532,551L1753,469Z" fill="#1e65a7" stroke="#1e65a7" stroke-width="1.51"/><path d="M1609,18L1546,210L1674,23Z" fill="#19568e" stroke="#19568e" stroke-width="1.51"/><path d="M1589,-16L1674,23L1687,-147Z" fill="#185186" stroke="#185186" stroke-width="1.51"/><path d="M1704,649L1604,746L1747,739Z" fill="#1c63a5" stroke="#1c63a5" stroke-width="1.51"/><path d="M1546,210L1541,393L1742,321Z" fill="#1b5e9b" stroke="#1b5e9b" stroke-width="1.51"/><path d="M1604,746L1553,841L1690,904Z" fill="#1860a4" stroke="#1860a4" stroke-width="1.51"/><path d="M1585,1062L1666,1224L1717,1077Z" fill="#1f5a8f" stroke="#1f5a8f" stroke-width="1.51"/><path d="M1585,1062L1582,1232L1666,1224Z" fill="#1d588f" stroke="#1d588f" stroke-width="1.51"/><path d="M1547,-137L1589,-16L1687,-147Z" fill="#175086" stroke="#175086" stroke-width="1.51"/><path d="M1532,551L1604,746L1704,649Z" fill="#1c66a9" stroke="#1c66a9" stroke-width="1.51"/><path d="M1500,453L1532,551L1541,393Z" fill="#1b66ab" stroke="#1b66ab" stroke-width="1.51"/><path d="M1489,324L1541,393L1546,210Z" fill="#195f9f" stroke="#195f9f" stroke-width="1.51"/><path d="M1589,-16L1609,18L1674,23Z" fill="#18538a" stroke="#18538a" stroke-width="1.51"/><path d="M1553,841L1585,1062L1690,904Z" fill="#1c5e9d" stroke="#1c5e9d" stroke-width="1.51"/><path d="M1376,67L1403,173L1546,210Z" fill="#155a99" stroke="#155a99" stroke-width="1.51"/><path d="M1553,841L1431,981L1585,1062Z" fill="#1b5f9f" stroke="#1b5f9f" stroke-width="1.51"/><path d="M1508,1099L1582,1232L1585,1062Z" fill="#1d5a93" stroke="#1d5a93" stroke-width="1.51"/><path d="M1547,-137L1479,-107L1589,-16Z" fill="#15528a" stroke="#15528a" stroke-width="1.51"/><path d="M1532,551L1435,703L1604,746Z" fill="#1966ad" stroke="#1966ad" stroke-width="1.51"/><path d="M1589,-16L1376,67L1609,18Z" fill="#16558f" stroke="#16558f" stroke-width="1.51"/><path d="M1376,67L1546,210L1609,18Z" fill="#165794" stroke="#165794" stroke-width="1.51"/><path d="M1435,703L1553,841L1604,746Z" fill="#1563aa" stroke="#1563aa" stroke-width="1.51"/><path d="M1440,854L1431,981L1553,841Z" fill="#1761a6" stroke="#1761a6" stroke-width="1.51"/><path d="M1508,1099L1439,1257L1582,1232Z" fill="#1a5994" stroke="#1a5994" stroke-width="1.51"/><path d="M1431,981L1508,1099L1585,1062Z" fill="#1d5d9a" stroke="#1d5d9a" stroke-width="1.51"/><path d="M1479,-107L1376,67L1589,-16Z" fill="#14548f" stroke="#14548f" stroke-width="1.51"/><path d="M1431,-192L1479,-107L1547,-137Z" fill="#14518a" stroke="#14518a" stroke-width="1.51"/><path d="M1435,703L1440,854L1553,841Z" fill="#1263ac" stroke="#1263ac" stroke-width="1.51"/><path d="M1415,1097L1439,1257L1508,1099Z" fill="#1a5b98" stroke="#1a5b98" stroke-width="1.51"/><path d="M1367,657L1435,703L1532,551Z" fill="#1768b2" stroke="#1768b2" stroke-width="1.51"/><path d="M1403,173L1489,324L1546,210Z" fill="#175c9c" stroke="#175c9c" stroke-width="1.51"/><path d="M1500,453L1430,470L1532,551Z" fill="#1b68ae" stroke="#1b68ae" stroke-width="1.51"/><path d="M1489,324L1500,453L1541,393Z" fill="#1a62a6" stroke="#1a62a6" stroke-width="1.51"/><path d="M1403,173L1359,243L1489,324Z" fill="#155da0" stroke="#155da0" stroke-width="1.51"/><path d="M1431,981L1415,1097L1508,1099Z" fill="#1c5e9c" stroke="#1c5e9c" stroke-width="1.51"/><path d="M1430,470L1367,657L1532,551Z" fill="#1a6ab4" stroke="#1a6ab4" stroke-width="1.51"/><path d="M402,-223L736,-205L899,-242Z" fill="#144f85" stroke="#144f85" stroke-width="1.51"/><path d="M1489,324L1430,470L1500,453Z" fill="#1964a9" stroke="#1964a9" stroke-width="1.51"/><path d="M1333,301L1430,470L1489,324Z" fill="#1763a8" stroke="#1763a8" stroke-width="1.51"/><path d="M1305,-131L1376,67L1479,-107Z" fill="#115492" stroke="#115492" stroke-width="1.51"/><path d="M1359,243L1333,301L1489,324Z" fill="#155fa3" stroke="#155fa3" stroke-width="1.51"/><path d="M1318,634L1367,657L1430,470Z" fill="#166ab6" stroke="#166ab6" stroke-width="1.51"/><path d="M1341,731L1343,829L1435,703Z" fill="#0f65b2" stroke="#0f65b2" stroke-width="1.51"/><path d="M1435,703L1343,829L1440,854Z" fill="#1064af" stroke="#1064af" stroke-width="1.51"/><path d="M1431,-192L1305,-131L1479,-107Z" fill="#11528d" stroke="#11528d" stroke-width="1.51"/><path d="M899,-242L962,-202L1251,-197Z" fill="#165791" stroke="#165791" stroke-width="1.51"/><path d="M1241,538L1318,634L1430,470Z" fill="#186cb8" stroke="#186cb8" stroke-width="1.51"/><path d="M1362,1048L1415,1097L1431,981Z" fill="#1b5f9f" stroke="#1b5f9f" stroke-width="1.51"/><path d="M1415,1097L1289,1157L1439,1257Z" fill="#185c9b" stroke="#185c9b" stroke-width="1.51"/><path d="M1289,1157L1307,1335L1439,1257Z" fill="#145999" stroke="#145999" stroke-width="1.51"/><path d="M1343,829L1431,981L1440,854Z" fill="#1362a9" stroke="#1362a9" stroke-width="1.51"/><path d="M1333,301L1241,538L1430,470Z" fill="#1767b1" stroke="#1767b1" stroke-width="1.51"/><path d="M1343,829L1362,1048L1431,981Z" fill="#1761a6" stroke="#1761a6" stroke-width="1.51"/><path d="M1367,657L1341,731L1435,703Z" fill="#1267b3" stroke="#1267b3" stroke-width="1.51"/><path d="M1251,-197L1305,-131L1431,-192Z" fill="#10528e" stroke="#10528e" stroke-width="1.51"/><path d="M962,-202L1099,-164L1251,-197Z" fill="#155692" stroke="#155692" stroke-width="1.51"/><path d="M1376,67L1282,109L1403,173Z" fill="#135a9b" stroke="#135a9b" stroke-width="1.51"/><path d="M1362,1048L1289,1157L1415,1097Z" fill="#1b5e9e" stroke="#1b5e9e" stroke-width="1.51"/><path d="M1160,407L1241,538L1333,301Z" fill="#1868b0" stroke="#1868b0" stroke-width="1.51"/><path d="M1305,-131L1282,109L1376,67Z" fill="#125797" stroke="#125797" stroke-width="1.51"/><path d="M1282,109L1359,243L1403,173Z" fill="#135c9f" stroke="#135c9f" stroke-width="1.51"/><path d="M858,1273L745,1319L1080,1276Z" fill="#195d9a" stroke="#195d9a" stroke-width="1.51"/><path d="M1149,-91L1282,109L1305,-131Z" fill="#135795" stroke="#135795" stroke-width="1.51"/><path d="M1343,829L1132,833L1362,1048Z" fill="#1564ac" stroke="#1564ac" stroke-width="1.51"/><path d="M1132,833L1099,1035L1362,1048Z" fill="#1a64a9" stroke="#1a64a9" stroke-width="1.51"/><path d="M1282,109L1200,221L1359,243Z" fill="#145ea1" stroke="#145ea1" stroke-width="1.51"/><path d="M1318,634L1341,731L1367,657Z" fill="#1368b5" stroke="#1368b5" stroke-width="1.51"/><path d="M1099,1035L1289,1157L1362,1048Z" fill="#1d61a0" stroke="#1d61a0" stroke-width="1.51"/><path d="M1200,221L1333,301L1359,243Z" fill="#1560a3" stroke="#1560a3" stroke-width="1.51"/><path d="M1149,-91L1134,71L1282,109Z" fill="#155a99" stroke="#155a99" stroke-width="1.51"/><path d="M1289,1157L1130,1206L1307,1335Z" fill="#175c9b" stroke="#175c9b" stroke-width="1.51"/><path d="M1318,634L1175,726L1341,731Z" fill="#1469b5" stroke="#1469b5" stroke-width="1.51"/><path d="M1341,731L1175,726L1343,829Z" fill="#1167b3" stroke="#1167b3" stroke-width="1.51"/><path d="M1175,726L1132,833L1343,829Z" fill="#1167b4" stroke="#1167b4" stroke-width="1.51"/><path d="M1241,538L1216,586L1318,634Z" fill="#186cb9" stroke="#186cb9" stroke-width="1.51"/><path d="M1200,221L1140,293L1333,301Z" fill="#1762a6" stroke="#1762a6" stroke-width="1.51"/><path d="M1140,293L1160,407L1333,301Z" fill="#1865ab" stroke="#1865ab" stroke-width="1.51"/><path d="M1099,1035L1094,1108L1289,1157Z" fill="#1e62a1" stroke="#1e62a1" stroke-width="1.51"/><path d="M1130,1206L1114,1249L1307,1335Z" fill="#175c9b" stroke="#175c9b" stroke-width="1.51"/><path d="M1216,586L1175,726L1318,634Z" fill="#176bb7" stroke="#176bb7" stroke-width="1.51"/><path d="M1114,1249L1080,1276L1307,1335Z" fill="#165b9a" stroke="#165b9a" stroke-width="1.51"/><path d="M1251,-197L1149,-91L1305,-131Z" fill="#135591" stroke="#135591" stroke-width="1.51"/><path d="M1094,1108L1130,1206L1289,1157Z" fill="#1b609f" stroke="#1b609f" stroke-width="1.51"/><path d="M1134,71L1200,221L1282,109Z" fill="#165d9f" stroke="#165d9f" stroke-width="1.51"/><path d="M1099,-164L1149,-91L1251,-197Z" fill="#145692" stroke="#145692" stroke-width="1.51"/><path d="M1069,1015L1099,1035L1132,833Z" fill="#1b66ab" stroke="#1b66ab" stroke-width="1.51"/><path d="M1033,536L1216,586L1241,538Z" fill="#1b6fbb" stroke="#1b6fbb" stroke-width="1.51"/><path d="M1160,407L1033,536L1241,538Z" fill="#1c6eb9" stroke="#1c6eb9" stroke-width="1.51"/><path d="M1005,629L1175,726L1216,586Z" fill="#196eb9" stroke="#196eb9" stroke-width="1.51"/><path d="M1033,536L1005,629L1216,586Z" fill="#1c70bc" stroke="#1c70bc" stroke-width="1.51"/><path d="M1134,71L975,249L1140,293Z" fill="#1962a5" stroke="#1962a5" stroke-width="1.51"/><path d="M1134,71L1140,293L1200,221Z" fill="#1760a3" stroke="#1760a3" stroke-width="1.51"/><path d="M1004,930L1069,1015L1132,833Z" fill="#1b68ae" stroke="#1b68ae" stroke-width="1.51"/><path d="M1049,52L975,249L1134,71Z" fill="#1960a1" stroke="#1960a1" stroke-width="1.51"/><path d="M1049,52L1134,71L1149,-91Z" fill="#165b9a" stroke="#165b9a" stroke-width="1.51"/><path d="M1019,-61L1049,52L1149,-91Z" fill="#175b98" stroke="#175b98" stroke-width="1.51"/><path d="M1140,293L1071,326L1160,407Z" fill="#1a67ad" stroke="#1a67ad" stroke-width="1.51"/><path d="M970,741L1132,833L1175,726Z" fill="#166bb6" stroke="#166bb6" stroke-width="1.51"/><path d="M1005,629L970,741L1175,726Z" fill="#196db9" stroke="#196db9" stroke-width="1.51"/><path d="M975,249L1071,326L1140,293Z" fill="#1b66aa" stroke="#1b66aa" stroke-width="1.51"/><path d="M1071,326L1033,536L1160,407Z" fill="#1c6cb4" stroke="#1c6cb4" stroke-width="1.51"/><path d="M1099,-164L1019,-61L1149,-91Z" fill="#165996" stroke="#165996" stroke-width="1.51"/><path d="M970,741L1004,930L1132,833Z" fill="#176ab5" stroke="#176ab5" stroke-width="1.51"/><path d="M1080,1276L1114,1249L1130,1206Z" fill="#195e9d" stroke="#195e9d" stroke-width="1.51"/><path d="M1094,1108L1080,1276L1130,1206Z" fill="#1b609f" stroke="#1b609f" stroke-width="1.51"/><path d="M402,-223L565,-187L736,-205Z" fill="#134c80" stroke="#134c80" stroke-width="1.51"/><path d="M895,452L1033,536L1071,326Z" fill="#1e6eb6" stroke="#1e6eb6" stroke-width="1.51"/><path d="M909,351L895,452L1071,326Z" fill="#1d6cb2" stroke="#1d6cb2" stroke-width="1.51"/><path d="M928,1129L1080,1276L1094,1108Z" fill="#1d62a1" stroke="#1d62a1" stroke-width="1.51"/><path d="M1069,1015L1094,1108L1099,1035Z" fill="#1f65a5" stroke="#1f65a5" stroke-width="1.51"/><path d="M962,-202L1019,-61L1099,-164Z" fill="#165895" stroke="#165895" stroke-width="1.51"/><path d="M954,42L975,249L1049,52Z" fill="#1a61a2" stroke="#1a61a2" stroke-width="1.51"/><path d="M1069,1015L928,1129L1094,1108Z" fill="#2165a4" stroke="#2165a4" stroke-width="1.51"/><path d="M928,1129L858,1273L1080,1276Z" fill="#1c62a0" stroke="#1c62a0" stroke-width="1.51"/><path d="M1019,-61L954,42L1049,52Z" fill="#185d9b" stroke="#185d9b" stroke-width="1.51"/><path d="M975,249L909,351L1071,326Z" fill="#1c68ad" stroke="#1c68ad" stroke-width="1.51"/><path d="M1004,930L928,1129L1069,1015Z" fill="#2067a8" stroke="#2067a8" stroke-width="1.51"/><path d="M954,42L865,203L975,249Z" fill="#1a62a3" stroke="#1a62a3" stroke-width="1.51"/><path d="M855,1028L928,1129L1004,930Z" fill="#2067a7" stroke="#2067a7" stroke-width="1.51"/><path d="M970,741L816,824L1004,930Z" fill="#186ab5" stroke="#186ab5" stroke-width="1.51"/><path d="M831,598L1005,629L1033,536Z" fill="#1f72be" stroke="#1f72be" stroke-width="1.51"/><path d="M895,452L831,598L1033,536Z" fill="#2072bc" stroke="#2072bc" stroke-width="1.51"/><path d="M816,824L835,925L1004,930Z" fill="#1b68ae" stroke="#1b68ae" stroke-width="1.51"/><path d="M962,-202L839,-133L1019,-61Z" fill="#185a96" stroke="#185a96" stroke-width="1.51"/><path d="M839,-133L954,42L1019,-61Z" fill="#185c99" stroke="#185c99" stroke-width="1.51"/><path d="M835,925L855,1028L1004,930Z" fill="#1e67aa" stroke="#1e67aa" stroke-width="1.51"/><path d="M832,691L970,741L1005,629Z" fill="#1c6eb9" stroke="#1c6eb9" stroke-width="1.51"/><path d="M831,598L832,691L1005,629Z" fill="#1d6eb9" stroke="#1d6eb9" stroke-width="1.51"/><path d="M530,1304L405,1293L601,1323Z" fill="#155187" stroke="#155187" stroke-width="1.51"/><path d="M839,-133L760,-63L954,42Z" fill="#175994" stroke="#175994" stroke-width="1.51"/><path d="M865,203L909,351L975,249Z" fill="#1b65a8" stroke="#1b65a8" stroke-width="1.51"/><path d="M832,691L813,712L970,741Z" fill="#196cb6" stroke="#196cb6" stroke-width="1.51"/><path d="M813,712L816,824L970,741Z" fill="#186ab5" stroke="#186ab5" stroke-width="1.51"/><path d="M899,-242L839,-133L962,-202Z" fill="#175791" stroke="#175791" stroke-width="1.51"/><path d="M691,48L865,203L954,42Z" fill="#195d9b" stroke="#195d9b" stroke-width="1.51"/><path d="M760,-63L691,48L954,42Z" fill="#175995" stroke="#175995" stroke-width="1.51"/><path d="M766,265L797,349L865,203Z" fill="#1a62a3" stroke="#1a62a3" stroke-width="1.51"/><path d="M802,571L831,598L895,452Z" fill="#1f70b9" stroke="#1f70b9" stroke-width="1.51"/><path d="M865,203L797,349L909,351Z" fill="#1b65a7" stroke="#1b65a7" stroke-width="1.51"/><path d="M801,1061L858,1273L928,1129Z" fill="#1e619e" stroke="#1e619e" stroke-width="1.51"/><path d="M855,1028L801,1061L928,1129Z" fill="#2164a1" stroke="#2164a1" stroke-width="1.51"/><path d="M801,1061L706,1158L858,1273Z" fill="#1d5e99" stroke="#1d5e99" stroke-width="1.51"/><path d="M797,349L895,452L909,351Z" fill="#1c69ae" stroke="#1c69ae" stroke-width="1.51"/><path d="M736,-205L839,-133L899,-242Z" fill="#16558d" stroke="#16558d" stroke-width="1.51"/><path d="M704,510L802,571L895,452Z" fill="#1e6db5" stroke="#1e6db5" stroke-width="1.51"/><path d="M797,349L704,510L895,452Z" fill="#1d6aae" stroke="#1d6aae" stroke-width="1.51"/><path d="M835,925L801,1061L855,1028Z" fill="#1e64a4" stroke="#1e64a4" stroke-width="1.51"/><path d="M706,1158L745,1319L858,1273Z" fill="#1a5b96" stroke="#1a5b96" stroke-width="1.51"/><path d="M691,48L766,265L865,203Z" fill="#195d9c" stroke="#195d9c" stroke-width="1.51"/><path d="M802,571L813,712L831,598Z" fill="#1c6db5" stroke="#1c6db5" stroke-width="1.51"/><path d="M831,598L813,712L832,691Z" fill="#1b6cb4" stroke="#1b6cb4" stroke-width="1.51"/><path d="M611,1017L801,1061L835,925Z" fill="#1e61a0" stroke="#1e61a0" stroke-width="1.51"/><path d="M736,-205L760,-63L839,-133Z" fill="#16558d" stroke="#16558d" stroke-width="1.51"/><path d="M596,923L611,1017L835,925Z" fill="#1b60a0" stroke="#1b60a0" stroke-width="1.51"/><path d="M816,824L596,923L835,925Z" fill="#1a63a7" stroke="#1a63a7" stroke-width="1.51"/><path d="M543,634L604,764L704,510Z" fill="#1a66ab" stroke="#1a66ab" stroke-width="1.51"/><path d="M704,510L604,764L802,571Z" fill="#1b69b0" stroke="#1b69b0" stroke-width="1.51"/><path d="M802,571L604,764L813,712Z" fill="#1a69b0" stroke="#1a69b0" stroke-width="1.51"/><path d="M813,712L604,764L816,824Z" fill="#1766ae" stroke="#1766ae" stroke-width="1.51"/><path d="M604,764L596,923L816,824Z" fill="#1662a7" stroke="#1662a7" stroke-width="1.51"/><path d="M585,541L543,634L704,510Z" fill="#1c68ad" stroke="#1c68ad" stroke-width="1.51"/><path d="M691,48L563,152L766,265Z" fill="#175996" stroke="#175996" stroke-width="1.51"/><path d="M565,335L704,510L797,349Z" fill="#1c64a6" stroke="#1c64a6" stroke-width="1.51"/><path d="M611,1017L632,1103L801,1061Z" fill="#1e5e99" stroke="#1e5e99" stroke-width="1.51"/><path d="M632,1103L706,1158L801,1061Z" fill="#1e5e98" stroke="#1e5e98" stroke-width="1.51"/><path d="M589,91L563,152L691,48Z" fill="#165690" stroke="#165690" stroke-width="1.51"/><path d="M766,265L565,335L797,349Z" fill="#1a61a1" stroke="#1a61a1" stroke-width="1.51"/><path d="M565,-187L548,-139L736,-205Z" fill="#144e84" stroke="#144e84" stroke-width="1.51"/><path d="M548,-139L556,-75L736,-205Z" fill="#144f85" stroke="#144f85" stroke-width="1.51"/><path d="M706,1158L601,1323L745,1319Z" fill="#195791" stroke="#195791" stroke-width="1.51"/><path d="M736,-205L556,-75L760,-63Z" fill="#15528a" stroke="#15528a" stroke-width="1.51"/><path d="M563,152L565,335L766,265Z" fill="#195c99" stroke="#195c99" stroke-width="1.51"/><path d="M556,-75L691,48L760,-63Z" fill="#16548c" stroke="#16548c" stroke-width="1.51"/><path d="M565,335L522,424L704,510Z" fill="#1b63a3" stroke="#1b63a3" stroke-width="1.51"/><path d="M522,424L585,541L704,510Z" fill="#1c66a9" stroke="#1c66a9" stroke-width="1.51"/><path d="M632,1103L541,1182L706,1158Z" fill="#1c5992" stroke="#1c5992" stroke-width="1.51"/><path d="M541,1182L601,1323L706,1158Z" fill="#19578f" stroke="#19578f" stroke-width="1.51"/><path d="M556,-75L589,91L691,48Z" fill="#15538c" stroke="#15538c" stroke-width="1.51"/><path d="M563,152L504,218L565,335Z" fill="#175993" stroke="#175993" stroke-width="1.51"/><path d="M522,424L564,536L585,541Z" fill="#1b65a7" stroke="#1b65a7" stroke-width="1.51"/><path d="M541,1182L530,1304L601,1323Z" fill="#17538a" stroke="#17538a" stroke-width="1.51"/><path d="M553,931L596,923L604,764Z" fill="#175fa0" stroke="#175fa0" stroke-width="1.51"/><path d="M596,923L553,931L611,1017Z" fill="#1b5d9b" stroke="#1b5d9b" stroke-width="1.51"/><path d="M611,1017L541,1182L632,1103Z" fill="#1e5a92" stroke="#1e5a92" stroke-width="1.51"/><path d="M564,536L543,634L585,541Z" fill="#1b66aa" stroke="#1b66aa" stroke-width="1.51"/><path d="M556,-75L523,112L589,91Z" fill="#15528a" stroke="#15528a" stroke-width="1.51"/><path d="M400,798L553,931L604,764Z" fill="#145da0" stroke="#145da0" stroke-width="1.51"/><path d="M543,634L488,681L604,764Z" fill="#1762a6" stroke="#1762a6" stroke-width="1.51"/><path d="M553,931L509,978L611,1017Z" fill="#1b5c98" stroke="#1b5c98" stroke-width="1.51"/><path d="M509,978L541,1182L611,1017Z" fill="#1d5a92" stroke="#1d5a92" stroke-width="1.51"/><path d="M488,681L400,798L604,764Z" fill="#155fa3" stroke="#155fa3" stroke-width="1.51"/><path d="M394,6L523,112L556,-75Z" fill="#145086" stroke="#145086" stroke-width="1.51"/><path d="M496,-93L394,6L556,-75Z" fill="#144e83" stroke="#144e83" stroke-width="1.51"/><path d="M523,112L563,152L589,91Z" fill="#16558e" stroke="#16558e" stroke-width="1.51"/><path d="M509,978L385,1022L541,1182Z" fill="#1c5990" stroke="#1c5990" stroke-width="1.51"/><path d="M548,-139L496,-93L556,-75Z" fill="#144e83" stroke="#144e83" stroke-width="1.51"/><path d="M304,553L543,634L564,536Z" fill="#1b64a6" stroke="#1b64a6" stroke-width="1.51"/><path d="M351,453L304,553L564,536Z" fill="#1a62a3" stroke="#1a62a3" stroke-width="1.51"/><path d="M522,424L351,453L564,536Z" fill="#1a62a2" stroke="#1a62a2" stroke-width="1.51"/><path d="M450,383L522,424L565,335Z" fill="#195e9d" stroke="#195e9d" stroke-width="1.51"/><path d="M504,218L450,383L565,335Z" fill="#185b97" stroke="#185b97" stroke-width="1.51"/><path d="M402,-223L548,-139L565,-187Z" fill="#134b7f" stroke="#134b7f" stroke-width="1.51"/><path d="M304,553L488,681L543,634Z" fill="#1962a4" stroke="#1962a4" stroke-width="1.51"/><path d="M523,112L504,218L563,152Z" fill="#17568f" stroke="#17568f" stroke-width="1.51"/><path d="M400,798L509,978L553,931Z" fill="#185c9a" stroke="#185c9a" stroke-width="1.51"/><path d="M405,1293L530,1304L541,1182Z" fill="#175288" stroke="#175288" stroke-width="1.51"/><path d="M402,-223L496,-93L548,-139Z" fill="#134c7f" stroke="#134c7f" stroke-width="1.51"/><path d="M293,1088L405,1293L541,1182Z" fill="#195388" stroke="#195388" stroke-width="1.51"/><path d="M385,1022L293,1088L541,1182Z" fill="#1c568c" stroke="#1c568c" stroke-width="1.51"/><path d="M-112,-266L257,-148L402,-223Z" fill="#114372" stroke="#114372" stroke-width="1.51"/><path d="M400,798L385,1022L509,978Z" fill="#185996" stroke="#185996" stroke-width="1.51"/><path d="M450,383L351,453L522,424Z" fill="#195e9d" stroke="#195e9d" stroke-width="1.51"/><path d="M357,211L504,218L523,112Z" fill="#17558e" stroke="#17558e" stroke-width="1.51"/><path d="M357,211L371,369L450,383Z" fill="#185994" stroke="#185994" stroke-width="1.51"/><path d="M357,211L450,383L504,218Z" fill="#175792" stroke="#175792" stroke-width="1.51"/><path d="M394,6L357,211L523,112Z" fill="#155189" stroke="#155189" stroke-width="1.51"/><path d="M289,923L385,1022L400,798Z" fill="#175895" stroke="#175895" stroke-width="1.51"/><path d="M402,-223L285,-104L496,-93Z" fill="#134a7d" stroke="#134a7d" stroke-width="1.51"/><path d="M285,-104L394,6L496,-93Z" fill="#134c80" stroke="#134c80" stroke-width="1.51"/><path d="M274,773L400,798L488,681Z" fill="#145c9f" stroke="#145c9f" stroke-width="1.51"/><path d="M304,553L274,773L488,681Z" fill="#175ea0" stroke="#175ea0" stroke-width="1.51"/><path d="M-76,1291L-181,1341L167,1289Z" fill="#114676" stroke="#114676" stroke-width="1.51"/><path d="M247,156L357,211L394,6Z" fill="#155086" stroke="#155086" stroke-width="1.51"/><path d="M371,369L351,453L450,383Z" fill="#195d9a" stroke="#195d9a" stroke-width="1.51"/><path d="M-112,-266L30,-137L257,-148Z" fill="#104270" stroke="#104270" stroke-width="1.51"/><path d="M258,561L274,773L304,553Z" fill="#185e9e" stroke="#185e9e" stroke-width="1.51"/><path d="M212,101L247,156L394,6Z" fill="#144e83" stroke="#144e83" stroke-width="1.51"/><path d="M274,773L289,923L400,798Z" fill="#13599a" stroke="#13599a" stroke-width="1.51"/><path d="M257,-148L285,-104L402,-223Z" fill="#124779" stroke="#124779" stroke-width="1.51"/><path d="M293,1088L167,1289L405,1293Z" fill="#174f83" stroke="#174f83" stroke-width="1.51"/><path d="M357,211L256,395L371,369Z" fill="#175792" stroke="#175792" stroke-width="1.51"/><path d="M285,-104L212,101L394,6Z" fill="#134b7f" stroke="#134b7f" stroke-width="1.51"/><path d="M289,923L293,1088L385,1022Z" fill="#1a568d" stroke="#1a568d" stroke-width="1.51"/><path d="M267,1082L167,1289L293,1088Z" fill="#185083" stroke="#185083" stroke-width="1.51"/><path d="M289,923L267,1082L293,1088Z" fill="#1a558b" stroke="#1a558b" stroke-width="1.51"/><path d="M247,156L256,395L357,211Z" fill="#16538b" stroke="#16538b" stroke-width="1.51"/><path d="M256,395L351,453L371,369Z" fill="#185b98" stroke="#185b98" stroke-width="1.51"/><path d="M157,-59L212,101L285,-104Z" fill="#13497b" stroke="#13497b" stroke-width="1.51"/><path d="M128,1150L167,1289L267,1082Z" fill="#184e81" stroke="#184e81" stroke-width="1.51"/><path d="M256,395L304,553L351,453Z" fill="#195e9c" stroke="#195e9c" stroke-width="1.51"/><path d="M157,-59L140,42L212,101Z" fill="#13497c" stroke="#13497c" stroke-width="1.51"/><path d="M247,156L118,192L256,395Z" fill="#155189" stroke="#155189" stroke-width="1.51"/><path d="M118,192L159,407L256,395Z" fill="#16548d" stroke="#16548d" stroke-width="1.51"/><path d="M256,395L159,407L258,561Z" fill="#185b98" stroke="#185b98" stroke-width="1.51"/><path d="M230,1073L128,1150L267,1082Z" fill="#1a5184" stroke="#1a5184" stroke-width="1.51"/><path d="M258,561L120,724L274,773Z" fill="#155b9b" stroke="#155b9b" stroke-width="1.51"/><path d="M230,1073L267,1082L289,923Z" fill="#1a548a" stroke="#1a548a" stroke-width="1.51"/><path d="M176,888L230,1073L289,923Z" fill="#17558e" stroke="#17558e" stroke-width="1.51"/><path d="M274,773L176,888L289,923Z" fill="#145795" stroke="#145795" stroke-width="1.51"/><path d="M256,395L258,561L304,553Z" fill="#195e9d" stroke="#195e9d" stroke-width="1.51"/><path d="M257,-148L157,-59L285,-104Z" fill="#114779" stroke="#114779" stroke-width="1.51"/><path d="M120,724L176,888L274,773Z" fill="#125797" stroke="#125797" stroke-width="1.51"/><path d="M47,590L120,724L258,561Z" fill="#175b9a" stroke="#175b9a" stroke-width="1.51"/><path d="M35,476L47,590L159,407Z" fill="#185a96" stroke="#185a96" stroke-width="1.51"/><path d="M30,-137L157,-59L257,-148Z" fill="#114575" stroke="#114575" stroke-width="1.51"/><path d="M159,407L47,590L258,561Z" fill="#185d9a" stroke="#185d9a" stroke-width="1.51"/><path d="M118,192L42,334L159,407Z" fill="#15528a" stroke="#15528a" stroke-width="1.51"/><path d="M176,888L41,1073L230,1073Z" fill="#195287" stroke="#195287" stroke-width="1.51"/><path d="M212,101L118,192L247,156Z" fill="#144e83" stroke="#144e83" stroke-width="1.51"/><path d="M128,1150L104,1251L167,1289Z" fill="#154b7d" stroke="#154b7d" stroke-width="1.51"/><path d="M41,1073L128,1150L230,1073Z" fill="#1a5082" stroke="#1a5082" stroke-width="1.51"/><path d="M104,1251L-76,1291L167,1289Z" fill="#13487a" stroke="#13487a" stroke-width="1.51"/><path d="M140,42L118,192L212,101Z" fill="#134b7f" stroke="#134b7f" stroke-width="1.51"/><path d="M73,-15L140,42L157,-59Z" fill="#124779" stroke="#124779" stroke-width="1.51"/><path d="M-37,951L41,1073L176,888Z" fill="#175188" stroke="#175188" stroke-width="1.51"/><path d="M21,819L-37,951L176,888Z" fill="#14538d" stroke="#14538d" stroke-width="1.51"/><path d="M120,724L21,819L176,888Z" fill="#115594" stroke="#115594" stroke-width="1.51"/><path d="M-8,127L118,192L140,42Z" fill="#134b7e" stroke="#134b7e" stroke-width="1.51"/><path d="M30,-137L73,-15L157,-59Z" fill="#114575" stroke="#114575" stroke-width="1.51"/><path d="M42,334L35,476L159,407Z" fill="#165690" stroke="#165690" stroke-width="1.51"/><path d="M73,-15L-8,127L140,42Z" fill="#12487a" stroke="#12487a" stroke-width="1.51"/><path d="M41,1073L-88,1200L104,1251Z" fill="#174b7c" stroke="#174b7c" stroke-width="1.51"/><path d="M47,590L-20,755L120,724Z" fill="#145895" stroke="#145895" stroke-width="1.51"/><path d="M41,1073L104,1251L128,1150Z" fill="#174d7e" stroke="#174d7e" stroke-width="1.51"/><path d="M-75,219L42,334L118,192Z" fill="#144e84" stroke="#144e84" stroke-width="1.51"/><path d="M-8,127L-75,219L118,192Z" fill="#134c7f" stroke="#134c7f" stroke-width="1.51"/><path d="M-20,755L21,819L120,724Z" fill="#125593" stroke="#125593" stroke-width="1.51"/><path d="M-88,1200L-76,1291L104,1251Z" fill="#144878" stroke="#144878" stroke-width="1.51"/><path d="M-50,359L35,476L42,334Z" fill="#16548d" stroke="#16548d" stroke-width="1.51"/><path d="M35,476L-57,555L47,590Z" fill="#185b98" stroke="#185b98" stroke-width="1.51"/><path d="M-128,73L-8,127L73,-15Z" fill="#114778" stroke="#114778" stroke-width="1.51"/><path d="M-52,-110L-128,73L73,-15Z" fill="#114474" stroke="#114474" stroke-width="1.51"/><path d="M30,-137L-52,-110L73,-15Z" fill="#114473" stroke="#114473" stroke-width="1.51"/><path d="M-150,-46L-128,73L-52,-110Z" fill="#104372" stroke="#104372" stroke-width="1.51"/><path d="M-67,823L-37,951L21,819Z" fill="#12528c" stroke="#12528c" stroke-width="1.51"/><path d="M-112,-266L-52,-110L30,-137Z" fill="#0f416e" stroke="#0f416e" stroke-width="1.51"/><path d="M-50,359L-85,468L35,476Z" fill="#16568f" stroke="#16568f" stroke-width="1.51"/><path d="M-75,219L-50,359L42,334Z" fill="#144f86" stroke="#144f86" stroke-width="1.51"/><path d="M-57,555L-20,755L47,590Z" fill="#155895" stroke="#155895" stroke-width="1.51"/><path d="M-57,555L-161,641L-20,755Z" fill="#155793" stroke="#155793" stroke-width="1.51"/><path d="M-37,951L-151,1173L41,1073Z" fill="#194e7f" stroke="#194e7f" stroke-width="1.51"/><path d="M-151,1173L-88,1200L41,1073Z" fill="#174b7b" stroke="#174b7b" stroke-width="1.51"/><path d="M-214,1072L-151,1173L-37,951Z" fill="#184d7c" stroke="#184d7c" stroke-width="1.51"/><path d="M-85,468L-57,555L35,476Z" fill="#175894" stroke="#175894" stroke-width="1.51"/><path d="M-20,755L-67,823L21,819Z" fill="#105391" stroke="#105391" stroke-width="1.51"/><path d="M-112,-266L-167,-182L-52,-110Z" fill="#0f3f6b" stroke="#0f3f6b" stroke-width="1.51"/><path d="M-161,641L-164,737L-20,755Z" fill="#125490" stroke="#125490" stroke-width="1.51"/><path d="M-128,73L-75,219L-8,127Z" fill="#12497b" stroke="#12497b" stroke-width="1.51"/><path d="M-164,737L-67,823L-20,755Z" fill="#115390" stroke="#115390" stroke-width="1.51"/><path d="M-75,219L-176,238L-50,359Z" fill="#144d81" stroke="#144d81" stroke-width="1.51"/><path d="M-67,823L-242,930L-37,951Z" fill="#145087" stroke="#145087" stroke-width="1.51"/><path d="M-242,930L-214,1072L-37,951Z" fill="#164e81" stroke="#164e81" stroke-width="1.51"/><path d="M-204,367L-85,468L-50,359Z" fill="#15538a" stroke="#15538a" stroke-width="1.51"/><path d="M-176,238L-204,367L-50,359Z" fill="#144f84" stroke="#144f84" stroke-width="1.51"/><path d="M-128,73L-176,238L-75,219Z" fill="#12497c" stroke="#12497c" stroke-width="1.51"/><path d="M-85,468L-187,504L-57,555Z" fill="#175892" stroke="#175892" stroke-width="1.51"/><path d="M-167,-182L-150,-46L-52,-110Z" fill="#10416e" stroke="#10416e" stroke-width="1.51"/><path d="M-187,504L-161,641L-57,555Z" fill="#165893" stroke="#165893" stroke-width="1.51"/><path d="M-164,737L-242,930L-67,823Z" fill="#10508b" stroke="#10508b" stroke-width="1.51"/><path d="M-88,1200L-151,1173L-76,1291Z" fill="#144877" stroke="#144877" stroke-width="1.51"/><path d="M-151,1173L-181,1341L-76,1291Z" fill="#124675" stroke="#124675" stroke-width="1.51"/><path d="M-204,367L-187,504L-85,468Z" fill="#16548d" stroke="#16548d" stroke-width="1.51"/><path d="M-150,-46L-176,238L-128,73Z" fill="#114676" stroke="#114676" stroke-width="1.51"/><path d="M-214,1072L-181,1341L-151,1173Z" fill="#154776" stroke="#154776" stroke-width="1.51"/><path d="M-167,-182L-176,238L-150,-46Z" fill="#104372" stroke="#104372" stroke-width="1.51"/><path d="M-204,367L-176,238L-167,-182Z" fill="#124778" stroke="#124778" stroke-width="1.51"/><path d="M-242,930L-164,737L-161,641Z" fill="#11518d" stroke="#11518d" stroke-width="1.51"/><path d="M-187,504L-242,930L-161,641Z" fill="#13538e" stroke="#13538e" stroke-width="1.51"/><path d="M-214,1072L-242,930L-181,1341Z" fill="#174a78" stroke="#174a78" stroke-width="1.51"/><path d="M-204,367L-242,930L-187,504Z" fill="#155590" stroke="#155590" stroke-width="1.51"/></svg>