<?xml version="1.0" encoding="UTF-8" standalone="no"?>
<svg width="220px" height="80px" viewBox="0 0 220 80" version="1.1" xmlns="http://www.w3.org/2000/svg" xmlns:xlink="http://www.w3.org/1999/xlink" xmlns:sketch="http://www.bohemiancoding.com/sketch/ns">
    <!-- Generator: Sketch 3.2 (9961) - http://www.bohemiancoding.com/sketch -->
    <title>BTS Logo SVG - shadow-white</title>
    <desc>Created with Sketch.</desc>
    <defs></defs>
    <g id="Page-1" stroke="none" stroke-width="1" fill="none" fill-rule="evenodd" sketch:type="MSPage">
        <g id="BTS-Logo-SVG---shadow-white" sketch:type="MSArtboardGroup" fill="#FFFFFF">
            <g id="Logo-2" sketch:type="MSLayerGroup" transform="translate(29.000000, 9.000000)">
                <path d="M12.048844,41 L0,41 C0.287952693,45.1951886 1.92706802,49.0113258 4.47911934,52 L13,43.3326238 C12.5465722,42.6359292 12.2177937,41.8473433 12.048844,41" id="Fill-1" sketch:type="MSShapeGroup"></path>
                <path d="M14.6677243,45 L6,53.5211653 C8.98879428,56.0733019 12.8050847,57.712472 17,58 L17,45.9511877 C16.1526227,45.7817981 15.3644469,45.4534429 14.6677243,45" id="Fill-2" sketch:type="MSShapeGroup"></path>
                <path d="M21.3322757,45 C20.6355531,45.4534429 19.8473773,45.7817981 19,45.9511877 L19,58 C23.1949153,57.712472 27.0112057,56.0728676 30,53.5211653 L21.3322757,45" id="Fill-3" sketch:type="MSShapeGroup"></path>
                <path d="M23.951156,41 C23.7822063,41.8473433 23.4534278,42.6359292 23,43.332182 L31.5208807,52 C34.072932,49.0113258 35.7120473,45.1951886 36,41 L23.951156,41" id="Fill-4" sketch:type="MSShapeGroup"></path>
                <path d="M23.951156,39 L36,39 C35.7120473,34.8050847 34.072932,30.9887943 31.5208807,28 L23,36.6677243 C23.4534278,37.3644469 23.7822063,38.1526227 23.951156,39" id="Fill-5" sketch:type="MSShapeGroup"></path>
                <path d="M21.3322757,35 L30,26.4791193 C27.0112057,23.927068 23.1949153,22.2875184 19,22 L19,34.0484097 C19.8473773,34.2177937 20.6355531,34.5465722 21.3322757,35" id="Fill-6" sketch:type="MSShapeGroup"></path>
                <path d="M0,0 L0,20.319132 L14.7318725,35 C15.4094321,34.5535572 16.1759294,34.2298435 17,34.0634965 L17,15.0332327 L0,0" id="Fill-7" sketch:type="MSShapeGroup"></path>
                <path d="M13,36.7606052 C12.5481723,37.4295814 12.220554,38.1863688 12.0522005,39 L0,39 L0,24 L13,36.7606052" id="Fill-8" sketch:type="MSShapeGroup"></path>
                <path d="M166.812221,32.2298557 L166,32.2298557 L166,32 L168,32 L168,32.2298557 L167.156483,32.2298557 L167.156483,34 L166.812221,34 L166.812221,32.2298557" id="Fill-9" sketch:type="MSShapeGroup"></path>
                <path d="M169.747122,33.1262562 C169.7241,32.8507217 169.7241,32.5057555 169.7241,32.2758999 C169.655034,32.5057555 169.563311,32.7586333 169.471222,33.0345332 L169.126256,34 L168.942445,34 L168.620501,33.0575553 C168.528778,32.7816554 168.459711,32.5287776 168.390645,32.2758999 C168.390645,32.5287776 168.367623,32.8507217 168.344601,33.1492783 L168.298557,34 L168,34 L168.137767,32 L168.459711,32 L168.804312,32.9654668 C168.896401,33.2183446 168.942445,33.4251781 169.011511,33.6323771 C169.05719,33.4251781 169.126256,33.2183446 169.218345,32.9654668 L169.563311,32 L169.884889,32 L170,34 L169.747122,34 L169.747122,33.1262562" id="Fill-10" sketch:type="MSShapeGroup"></path>
                <path id="Fill-11" sketch:type="MSShapeGroup"></path>
                <path d="M70,27.9319241 L70,25 L72,27.0418609 L72,30 L70,27.9319241" id="Fill-12" sketch:type="MSShapeGroup"></path>
                <path d="M66.8865219,34.461571 C66.2163048,33.7162385 65.4174519,33.1038045 64.5153626,32.6775979 C63.6132732,32.2513912 62.5825481,32.0118352 61.4997952,32.0118352 C59.9020893,32.0118352 58.4588283,32.4647062 57.2474396,33.3700249 C56.5256043,33.9024658 55.9070053,34.5682285 55.4174519,35.3402254 L55.4174519,22 L54,22 L54,48.8137727 L55.4174519,48.8137727 L55.4174519,45.6716097 C55.9070053,46.4440299 56.5256043,47.1097926 57.2474396,47.6422335 C58.4588283,48.5475522 59.8762802,49 61.4997952,49 C62.5825481,49 63.6132732,48.7871083 64.5153626,48.3609017 C65.4174519,47.9351183 66.2163048,47.3493487 66.8865219,46.6035929 C67.556739,45.8582603 68.0721016,44.9529415 68.4330193,43.9409653 C68.7935272,42.9289891 69,41.7841142 69,40.5592463 C69,39.3610427 68.8193363,38.2161679 68.4330193,37.1775273 C68.0721016,36.13931 67.5309299,35.2339912 66.8865219,34.461571 L66.8865219,34.461571 Z M67,41.0267548 C67,42.0689195 66.8475704,43.0308196 66.5685194,43.8857004 C66.2894684,44.7405812 65.858391,45.4884426 65.3506956,46.0766244 C64.8179985,46.6907116 64.1836817,47.1451192 63.4481484,47.4925074 C62.7122118,47.8131408 61.9004637,48 61.0125008,48 C60.1245379,48 59.3127898,47.8398957 58.5772565,47.4925074 C57.84132,47.1718741 57.2070032,46.6907116 56.6743061,46.0766244 C56.141609,45.4621125 55.7355333,44.7405812 55.4314806,43.8857004 C55.1524296,43.0308196 55,42.0689195 55,41.0267548 C55,39.9850149 55.1524296,39.0231147 55.4314806,38.1678093 C55.7105316,37.3129285 56.141609,36.565067 56.6743061,35.9505551 C57.2070032,35.3360432 57.84132,34.8548808 58.5772565,34.5079172 C59.3127898,34.160529 60.1245379,34 60.9870959,34 C61.8496539,34 62.6868069,34.160529 63.3973385,34.5079172 C64.1328718,34.8548808 64.7671887,35.3360432 65.2998857,35.9505551 C65.8329861,36.565067 66.2386585,37.3129285 66.5431145,38.1678093 C66.8475704,39.0231147 67,39.9850149 67,41.0267548 L67,41.0267548 Z" id="Fill-13" sketch:type="MSShapeGroup"></path>
                <path d="M71,32 L72,32 L72,49 L71,49 L71,32 Z" id="Fill-14" sketch:type="MSShapeGroup"></path>
                <path d="M80.8499901,45.9761855 C80.4502285,46.370587 80,46.5544182 79.4500298,46.5544182 C78.9000596,46.5544182 78.4502285,46.370587 78.1001391,45.9498642 C77.7500497,45.5291414 77.5501689,45.0035513 77.5501689,44.3204512 L77.5501689,32.9128891 L81.6002384,32.9128891 L81.6002384,31.4668895 L77.5501689,31.4668895 L77.5501689,26 L76.1752434,26 L76.1752434,31.4668895 L74,31.4668895 L74,32.9128891 L76.1752434,32.9128891 L76.1752434,44.3204512 C76.1752434,45.3716315 76.4752633,46.2653019 77.1003378,46.9488197 C77.7250149,47.6582411 78.500298,48 79.4500298,48 C79.9002583,48 80.3250546,47.9214539 80.7001788,47.7372049 C81.0749056,47.579695 81.3999603,47.3691247 81.6999801,47.1063296 L82,46.8435346 L81.2000795,45.6081053 L80.8499901,45.9761855" id="Fill-15" sketch:type="MSShapeGroup"></path>
                <path d="M94.5000542,41.1662265 C94.0361981,40.8197718 93.5181532,40.5533659 92.9454861,40.3670088 C92.3996965,40.1802282 91.8270294,40.0205541 91.2816733,39.8604564 L90.2451501,39.5673676 C89.8363498,39.4610593 89.3998049,39.3543276 88.9905711,39.1946534 C88.609082,39.0612387 88.2271594,38.8748817 87.8998591,38.6614181 C87.5998699,38.4483781 87.3271919,38.1552893 87.1364474,37.7821516 C86.9452693,37.4090139 86.8360247,36.929568 86.8360247,36.3433903 C86.8360247,35.8639444 86.9452693,35.4374408 87.163325,35.0909861 C87.3818142,34.7445314 87.6818034,34.4247596 88.0091037,34.2117196 C88.3632817,33.9719966 88.7998266,33.785216 89.2636827,33.6789078 C89.7271052,33.545493 90.2182725,33.4921272 90.681695,33.4921272 C91.4997291,33.4921272 92.2635743,33.5988589 92.8908638,33.8118989 C93.5181532,34.0253625 94.1454427,34.3447107 94.745421,34.7978973 L95.1000325,35.0643032 L95.9726888,33.8919478 L95.6453885,33.6255419 C94.9088544,33.0393642 94.1454427,32.6395436 93.3274087,32.3731377 C92.5362523,32.1067318 91.6362848,32 90.6543839,32 C90.0270944,32 89.3724938,32.0800488 88.7452043,32.2401465 C88.1179148,32.3998206 87.5179365,32.6662265 86.9998916,33.0393642 C86.4818468,33.4125019 86.0453018,33.8652648 85.7180015,34.3980766 C85.3907012,34.9575714 85.2272678,35.6237979 85.2272678,36.3700732 C85.2272678,37.2493398 85.3907012,37.9689322 85.7180015,38.5284269 C86.0453018,39.0612387 86.4272244,39.5140017 86.890647,39.8604564 C87.3545031,40.1802282 87.8452368,40.4466341 88.3905928,40.6067318 C88.8817601,40.7664059 89.3724938,40.8998206 89.7817275,41.0065524 L90.8182508,41.2996412 C91.3362957,41.4326324 91.8543405,41.5927301 92.3181966,41.7524042 C92.754308,41.9125019 93.1635418,42.0988589 93.4908421,42.3385819 C93.7908313,42.5520454 94.0635093,42.8447107 94.2273762,43.2178484 C94.4181207,43.5909861 94.5000542,44.0708555 94.5000542,44.6566097 C94.5000542,45.1631621 94.3908096,45.6159251 94.1454427,45.9623798 C93.9000759,46.3355175 93.6000867,46.6286063 93.2181641,46.8416463 C92.8362415,47.0817928 92.3728189,47.2414669 91.8816517,47.3481987 C91.3636068,47.454507 90.8451284,47.5078728 90.3270836,47.5078728 C89.3724938,47.5078728 88.4725263,47.3215158 87.6271811,46.975061 C86.7818359,46.6286063 86.0179907,46.1224775 85.3633901,45.4829339 L85.0087786,45.1631621 L84,46.3088345 L84.2999892,46.6019234 C85.1180232,47.3748817 86.0453018,47.9610593 87.0545139,48.3871394 C88.0906037,48.78696 89.1817492,49 90.3270836,49 C90.954373,49 91.6089737,48.9203747 92.2635743,48.78696 C92.9454861,48.6535453 93.5454644,48.3871394 94.0908204,48.0673676 C94.6361764,47.7209129 95.1000325,47.2948328 95.454644,46.7353381 C95.8092554,46.1754198 96,45.4829339 96,44.6566097 C96,43.8040261 95.8634442,43.1115402 95.5634551,42.5520454 C95.3453994,41.9921272 94.9634768,41.5393642 94.5000542,41.1662265" id="Fill-16" sketch:type="MSShapeGroup"></path>
                <path d="M108.304077,33.9047702 C107.756323,33.341773 107.1302,32.9125994 106.373877,32.5908259 C105.643677,32.2690523 104.834692,32.1079524 104,32.1079524 C102.826123,32.1079524 101.730615,32.4301522 100.791431,33.0464232 C100.2698,33.3950467 99.8,33.7973702 99.4346925,34.2798175 L99.4346925,22 L98,22 L98,49 L99.4346925,49 L99.4346925,38.3823242 C99.4346925,37.711927 99.5653075,37.0683798 99.773877,36.5053826 C100.008569,35.9155354 100.321631,35.4062382 100.739185,34.9770647 C101.156738,34.5478911 101.626123,34.1996938 102.2,33.9580439 C102.747754,33.7168203 103.373877,33.6098466 104,33.6098466 C104.626123,33.6098466 105.226123,33.7436703 105.773877,33.9580439 C106.321631,34.1996938 106.817139,34.5478911 107.208569,34.9770647 C107.626123,35.4062382 107.939185,35.9155354 108.173877,36.5053826 C108.408569,37.0683798 108.513062,37.711927 108.513062,38.3823242 L108.513062,49 L110,49 L110,38.3823242 C110,37.4975534 109.843262,36.6664825 109.5302,35.9155354 C109.269385,35.1113146 108.826123,34.4677674 108.304077,33.9047702" id="Fill-17" sketch:type="MSShapeGroup"></path>
                <path d="M123.851452,34.2384025 C123.381743,33.545493 122.755187,32.9859983 121.945643,32.5861777 C121.162656,32.2134636 120.144813,32 118.917842,32 C118.36971,32 117.638589,32.0533659 116.80332,32.1867806 C115.941909,32.3197718 114.975934,32.6128606 113.957676,33.0393642 L113.540249,33.2257213 L114.140664,34.6115402 L114.532365,34.4247596 C115.419917,34.0253625 116.255187,33.7585331 117.012033,33.6522248 C117.795021,33.545493 118.447718,33.4921272 118.917842,33.4921272 C119.857676,33.4921272 120.640664,33.6255419 121.214938,33.8919478 C121.789212,34.1583537 122.233195,34.5314914 122.572199,34.9842543 C122.911618,35.4641238 123.146473,36.0769844 123.277178,36.7698939 C123.381743,37.3560716 123.459751,37.9956151 123.485892,38.6881011 C121.736929,38.3149634 120.19668,38.1286063 118.839419,38.1286063 C116.698755,38.1286063 115.028216,38.6080522 113.879668,39.5144252 C113.096266,40.1535453 112.574274,40.8998206 112.339419,41.6990383 C112.104564,42.4719966 112,43.1644825 112,43.7773432 C112,44.2305297 112.078423,44.7633415 112.234855,45.3495192 C112.391701,45.9356968 112.678838,46.5218745 113.070124,47.0551099 C113.461826,47.5879217 114.009959,48.0406846 114.688797,48.4138223 C115.367635,48.78696 116.229046,49 117.273029,49 C117.795021,49 118.343568,48.9470577 118.970124,48.8136429 C119.570539,48.6802282 120.170539,48.4938711 120.770954,48.2274652 C121.371369,47.9610593 121.971784,47.6146046 122.520332,47.1881011 C122.885477,46.8950122 123.251037,46.5485575 123.564315,46.1758433 L123.564315,48.8136429 L125,48.8136429 L125,39.7274652 C125,38.6347352 124.921992,37.6224775 124.791286,36.716528 C124.608714,35.7572126 124.295436,34.931312 123.851452,34.2384025 L123.851452,34.2384025 Z M123,40.5966651 L123,42.0556005 C123,42.5692557 122.948248,43.1365956 122.845155,43.6768785 C122.767528,44.1901042 122.560932,44.6767023 122.250832,45.1358139 C121.914856,45.6494691 121.501253,46.0815235 121.062184,46.4598933 C120.596829,46.8382631 120.131885,47.1354616 119.641065,47.3514888 C119.149834,47.5679455 118.659013,47.7298586 118.168193,47.8380869 C117.676962,47.9458858 117.212018,48 116.772539,48 C116.02337,48 115.403171,47.865144 114.912351,47.5945731 C114.42112,47.3244317 114.033803,46.9731191 113.775455,46.5951788 C113.491231,46.216809 113.3101,45.8113821 113.181131,45.3793277 C113.077628,44.9468437 113,44.568474 113,44.2442184 C113,43.7580497 113.077628,43.2177669 113.258348,42.5963128 C113.413603,42.0285434 113.775455,41.5423748 114.292151,41.0832632 C115.196575,40.3535808 116.540067,40.0022681 118.297162,40.0022681 C119.641065,39.975211 121.217029,40.1912382 123,40.5966651 L123,40.5966651 Z" id="Fill-18" sketch:type="MSShapeGroup"></path>
                <path d="M136.749323,32.8904476 C136.331234,32.620654 135.85734,32.404476 135.328084,32.2427714 C134.798829,32.0806378 134.26913,32 133.711973,32 C132.625117,32 131.62241,32.2968159 130.730427,32.8634253 C130.31278,33.133219 129.922592,33.4570571 129.588209,33.8349397 L129.588209,32.1887269 L128,32.1887269 L128,49 L129.588209,49 L129.588209,37.9903618 C129.588209,37.3426856 129.699818,36.7490538 129.89469,36.2094666 C130.117465,35.6698794 130.396486,35.1839078 130.786231,34.7794318 C131.148516,34.3745269 131.594508,34.0506888 132.095861,33.8349397 C132.9595,33.4570571 133.990552,33.4030126 134.85419,33.6998284 C135.244378,33.8349397 135.606663,34.0236665 135.941046,34.2394157 L136.442399,34.5632538 L137,33.0791744 L136.749323,32.8904476" id="Fill-19" sketch:type="MSShapeGroup"></path>
                <path d="M137.508047,39.9405053 L151,39.9405053 L150.973032,39.4610593 C150.892129,38.3416463 150.649849,37.3027057 150.299698,36.3967562 C149.923007,35.4908067 149.438017,34.6911655 148.818618,34.0516219 C148.199218,33.4125019 147.445408,32.8792665 146.610268,32.5332353 C145.775555,32.1867806 144.806004,32 143.782946,32 C142.65159,32 141.574596,32.21304 140.632013,32.6395436 C139.68943,33.0660471 138.854717,33.6522248 138.154415,34.4247596 C137.48108,35.1710349 136.942583,36.0769844 136.565464,37.142608 C136.188345,38.1819722 136,39.3276446 136,40.5533659 C136,41.7790871 136.188345,42.9247596 136.565464,43.9374408 C136.942583,44.9763815 137.48108,45.882331 138.154415,46.6286063 C138.82775,47.3748817 139.662462,47.9873188 140.632013,48.3871394 C141.574596,48.78696 142.65159,49 143.782946,49 C145.048713,49 146.206609,48.8136429 147.256635,48.4138223 C148.334056,48.0406846 149.249672,47.4811899 150.030449,46.762021 L150.353633,46.4689322 L149.41105,45.3762021 L149.060898,45.6692909 C148.414959,46.2287857 147.633754,46.6819722 146.745106,47.0284269 C145.856458,47.3481987 144.85994,47.5078728 143.782946,47.5078728 C142.867331,47.5078728 142.005222,47.3481987 141.251413,47.001744 C140.497175,46.6552893 139.824268,46.1754198 139.285343,45.5892421 C138.746847,44.9763815 138.289253,44.2572126 137.992609,43.404629 C137.696821,42.5520454 137.535015,41.5927301 137.535015,40.5533659 L137.535015,40.047237 C137.508047,39.9938711 137.508047,39.9671882 137.508047,39.9405053 L137.508047,39.9405053 Z M138,38 C138.138761,37.3616841 138.360339,36.7766317 138.665174,36.2448427 C139.025513,35.5798952 139.469109,34.9948427 140.023274,34.5158945 C140.577438,34.037369 141.21486,33.6649476 141.907786,33.3990531 C142.600712,33.1331586 143.404207,33 144.235894,33 C145.178151,33 145.981645,33.1597903 146.674571,33.4523165 C147.367498,33.7448427 147.921662,34.1438958 148.39257,34.6490531 C148.863918,35.1542103 149.224258,35.7392628 149.50134,36.3775786 C149.722918,36.8831586 149.889431,37.4415793 150,38 L138,38 L138,38 Z" id="Fill-20" sketch:type="MSShapeGroup"></path>
                <path d="M163.606677,42.5253625 C163.306982,41.9654442 162.925434,41.5126812 162.462466,41.1662265 C161.999065,40.8197718 161.481529,40.5533659 160.909424,40.3670088 C160.364603,40.1802282 159.792498,40.0205541 159.247244,39.8604564 L158.212171,39.5673676 C157.803338,39.4610593 157.367222,39.3543276 156.958823,39.1946534 C156.577275,39.0612387 156.195727,38.8748817 155.868748,38.6614181 C155.569053,38.4483781 155.296643,38.1552893 155.106085,37.7821516 C154.915095,37.4090139 154.806391,36.929568 154.806391,36.3433903 C154.806391,35.8639444 154.915095,35.4374408 155.13337,35.0909861 C155.351211,34.7445314 155.650906,34.4247596 156.00517,34.2117196 C156.359433,33.9719966 156.795117,33.785216 157.258518,33.6789078 C157.721485,33.545493 158.212171,33.4921272 158.675138,33.4921272 C159.492803,33.4921272 160.255465,33.5988589 160.882139,33.8118989 C161.508813,34.0253625 162.135487,34.3447107 162.734877,34.7978973 L163.08914,35.0643032 L163.96094,33.8919478 L163.633961,33.6255419 C162.898583,33.0393642 162.135487,32.6395436 161.318256,32.3731377 C160.527876,32.1067318 159.628791,32 158.647854,32 C158.02118,32 157.367222,32.0800488 156.740548,32.2401465 C156.114307,32.3998206 155.514484,32.6662265 154.996948,33.0393642 C154.479411,33.4125019 154.043295,33.8652648 153.716316,34.3980766 C153.389337,34.9575714 153.226064,35.6237979 153.226064,36.3700732 C153.226064,37.2493398 153.389337,37.9689322 153.716316,38.5284269 C154.043295,39.0612387 154.424843,39.5140017 154.88781,39.8604564 C155.351211,40.1802282 155.841464,40.4466341 156.386717,40.6067318 C156.87697,40.7664059 157.367222,40.8998206 157.776054,41.0065524 L158.81156,41.2996412 C159.329097,41.4326324 159.846633,41.5927301 160.310034,41.7524042 C160.746151,41.9125019 161.15455,42.0988589 161.481529,42.3385819 C161.781224,42.5520454 162.053634,42.8447107 162.21734,43.2178484 C162.407898,43.5909861 162.489751,44.0708555 162.489751,44.6566097 C162.489751,45.1631621 162.380613,45.6159251 162.135487,45.9623798 C161.890361,46.3355175 161.590666,46.6286063 161.209118,46.8416463 C160.827571,47.0817928 160.364603,47.2414669 159.873918,47.3481987 C158.430012,47.6679705 156.931538,47.5345558 155.623622,46.975061 C154.779106,46.6286063 154.01601,46.1224775 153.362052,45.4829339 L153.007789,45.1631621 L152,46.3088345 L152.299695,46.6019234 C153.116926,47.3748817 154.043295,47.9610593 155.051517,48.3871394 C156.08659,48.78696 157.176664,49 158.320875,49 C158.947549,49 159.601507,48.9203747 160.255465,48.78696 C160.936708,48.6535453 161.536098,48.3871394 162.080918,48.0673676 C162.625739,47.7209129 163.08914,47.2948328 163.443404,46.7353381 C163.797667,46.1754198 163.988225,45.4829339 163.988225,44.6566097 C164.042793,43.8040261 163.906372,43.0848572 163.606677,42.5253625" id="Fill-21" sketch:type="MSShapeGroup"></path>
            </g>
        </g>
    </g>
</svg>